<svg xmlns="http://www.w3.org/2000/svg" width="24" height="24" viewBox="0 0 24 24">
  <g fill="none" fill-rule="evenodd">
    <path fill="#000" d="M2,3 L2,13 L5,13 L5,17.046 L9.478,13 L16,13 L16,3 L2,3 Z M3,4 L15,4 L15,12 L9.093,12 L6,14.794 L6,12 L3,12 L3,4 Z M17.5003,7.9995 L21.9993,7.9995 L21.9993,16.9995 L19.0003,16.9995 L19.0003,21.2575 L14.8993,16.9995 L10.0003,16.9995 L10.0003,14.4995 L11.0003,14.4995 L11.0003,15.9995 L15.3253,15.9995 L18.0003,18.7775 L18.0003,15.9995 L21.0003,15.9995 L21.0003,8.9995 L17.5003,8.9995 L17.5003,7.9995 Z"/>
    <path fill="#000" d="M2,3 L2,13 L5,13 L5,17.046 L9.478,13 L16,13 L16,3 L2,3 Z M3,4 L15,4 L15,12 L9.093,12 L6,14.794 L6,12 L3,12 L3,4 Z M17.5003,7.9995 L21.9993,7.9995 L21.9993,16.9995 L19.0003,16.9995 L19.0003,21.2575 L14.8993,16.9995 L10.0003,16.9995 L10.0003,14.4995 L11.0003,14.4995 L11.0003,15.9995 L15.3253,15.9995 L18.0003,18.7775 L18.0003,15.9995 L21.0003,15.9995 L21.0003,8.9995 L17.5003,8.9995 L17.5003,7.9995 Z"/>
  </g>
</svg>
