<svg xmlns="http://www.w3.org/2000/svg" width="24" height="24" viewBox="0 0 24 24">
  <g fill="none" fill-rule="evenodd">
    <path fill="#000" fill-rule="nonzero" d="M4,8.05842693 L4,16.499 L20,16.499 L20,8.05875634 L12.0002,14.6468269 L4,8.05842693 Z M4.89374698,7.499 L12.0002,13.3513731 L19.106653,7.499 L4.89374698,7.499 Z M3,17.499 L3,6.499 L21,6.499 L21,17.499 L3,17.499 Z"/>
    <path fill="#000" fill-rule="nonzero" d="M4,8.05842693 L4,16.499 L20,16.499 L20,8.05875634 L12.0002,14.6468269 L4,8.05842693 Z M4.89374698,7.499 L12.0002,13.3513731 L19.106653,7.499 L4.89374698,7.499 Z M3,17.499 L3,6.499 L21,6.499 L21,17.499 L3,17.499 Z"/>
  </g>
</svg>
