<?xml version="1.0" standalone="no"?>
<!DOCTYPE svg PUBLIC "-//W3C//DTD SVG 1.1//EN" "http://www.w3.org/Graphics/SVG/1.1/DTD/svg11.dtd" >
<svg xmlns="http://www.w3.org/2000/svg">
<metadata>
Created by FontPrep 20130207 at Wed May 17 10:33:34 2017
 By Max Ono
Copyright (c) 2014 by Julieta Ulanovsky. All rights reserved, Design Modifications and new weights 2015, Jasper @ Cannot Into Space Fonts
</metadata>
<defs>
<font id="fbd541516f97000af56331457cc13ede" horiz-adv-x='1024' >
  <font-face 
    font-family="TruenoRg"
    font-weight="400"
    font-stretch="normal"
    units-per-em="2048"
    panose-1="0 0 5 0 0 0 0 0 0 0"
    ascent="1638"
    descent="-410"
    x-height="1090"
    cap-height="1434"
    bbox="-567 -514 2828 1985"
    underline-thickness="102"
    underline-position="-205"
    unicode-range="U+0020-FB02"
  />
<missing-glyph horiz-adv-x="1024" 
d="M573 717l349 -522v1044zM164 1331l348 -522l348 522h-696zM164 102h696l-348 523zM102 195l349 522l-349 522v-1044zM0 0v1434h1024v-1434h-1024z" />
    <glyph glyph-name="fi" unicode="fi" horiz-adv-x="1284" 
d="M877 0v1090h233v-1090h-233zM856 1402q0 62 39 102t98 40t99 -40t38 -102q0 -62 -38 -103q-38 -39 -98 -39t-99 40t-39 102zM76 874v177h143v104q0 183 112 279t246 96t220 -49l-9 -205q-104 47 -188 47q-147 0 -147 -145v-127h284v-177h-284v-874h-234v874h-143z" />
    <glyph glyph-name="fl" unicode="fl" horiz-adv-x="1333" 
d="M913 0v1520h236v-1520h-236zM219 1051v133q-1 158 105 258t250 97t225 -46l-6 -205q-70 53 -152 54t-135 -53t-53 -140v-98h286l-2 -174h-284v-877h-234v877h-143l2 174h141z" />
    <glyph glyph-name=".notdef" horiz-adv-x="1024" 
d="M573 717l349 -522v1044zM164 1331l348 -522l348 522h-696zM164 102h696l-348 523zM102 195l349 522l-349 522v-1044zM0 0v1434h1024v-1434h-1024z" />
    <glyph glyph-name=".null" horiz-adv-x="0" 
 />
    <glyph glyph-name="nonmarkingreturn" horiz-adv-x="681" 
 />
    <glyph glyph-name="space" unicode=" " horiz-adv-x="528" 
 />
    <glyph glyph-name="exclam" unicode="!" horiz-adv-x="430" 
d="M133 1415h223v-352l-37 -606h-149l-37 606v352zM375 118q0 -58 -37 -98t-92 -38q-55 0 -92 39t-37 97t37 96t92 38t92 -38t37 -96z" />
    <glyph glyph-name="quotedbl" unicode="&#x22;" horiz-adv-x="741" 
d="M438 930v504h180v-504h-180zM123 930v504h180v-504h-180z" />
    <glyph glyph-name="numbersign" unicode="#" horiz-adv-x="1484" 
d="M537 530h364l43 361h-362zM55 354l17 176h293l43 361h-285l16 176h291l45 367h174l-45 -367h363l45 367h174l-45 -367h284l-14 -176h-293l-45 -361h287l-17 -176h-290l-45 -354h-172l43 354h-363l-45 -354h-172l43 354h-287z" />
    <glyph glyph-name="dollar" unicode="$" horiz-adv-x="1271" 
d="M911 393q0 121 -168 187v-353q168 35 168 166zM408 1067q0 -117 155 -178v321q-155 -26 -155 -143zM137 1044q0 162 115 266t311 128v270h180v-268q238 -23 418 -144l-100 -213q-156 94 -318 123v-379q99 -31 159 -55q186 -77 243 -193q35 -73 35 -173q0 -168 -119 -277
t-318 -131v-289h-180v287q-295 24 -510 223l105 209q184 -170 405 -203v410q-252 74 -337 166q-36 39 -62 102q-27 63 -27 141z" />
    <glyph glyph-name="percent" unicode="%" horiz-adv-x="1992" 
d="M1536 713q-106 0 -164 -76t-57 -214q0 -138 57 -213q58 -75 164 -75t165 76q58 76 58 213t-58 213q-59 76 -165 76zM1157 423q0 199 101 313q102 114 278 114t278 -114t101 -314q0 -200 -101 -312q-102 -114 -278 -114t-278 114t-101 313zM348 0l1055 1434h225
l-1053 -1434h-227zM236 1011q0 -138 57 -214t163 -76t166 77q58 77 58 214t-58 212q-58 74 -164 74t-165 -74q-57 -75 -57 -213zM78 1011q0 199 101 313t277 114t278 -114t102 -314t-102 -314t-277 -114q-176 0 -278 114q-101 115 -101 315z" />
    <glyph glyph-name="ampersand" unicode="&#x26;" horiz-adv-x="1357" 
d="M475 1122q0 -109 107 -254q124 66 190 126t66 140t-47 120q-47 42 -129 42t-134 -49t-53 -125zM311 398q0 -94 76 -162t188 -68q152 0 295 139q-244 244 -348 363q-100 -58 -156 -118t-55 -154zM117 391q0 139 82 229t227 168q-137 184 -137 330t103 236q102 90 266 90
t265 -84t101 -220t-111 -234q-85 -74 -237 -154q102 -117 301 -312q74 111 129 258l154 -114q-68 -162 -150 -273l233 -227l-120 -123l-224 219q-201 -190 -432 -190q-193 0 -321 114t-129 287z" />
    <glyph glyph-name="quotesingle" unicode="'" horiz-adv-x="425" 
d="M123 930v504h180v-504h-180z" />
    <glyph glyph-name="parenleft" unicode="(" horiz-adv-x="653" 
d="M158 633q0 526 250 887h213q-242 -377 -242 -887t242 -887h-213q-250 361 -250 887z" />
    <glyph glyph-name="parenright" unicode=")" horiz-adv-x="706" 
d="M707 634q0 -526 -250 -888h-213q242 377 241 887q0 510 -241 887h213q250 -360 250 -886z" />
    <glyph glyph-name="asterisk" unicode="*" horiz-adv-x="712" 
d="M51 1053l185 104l-185 100l64 117l182 -108l-2 211h123l-2 -211l182 106l61 -115l-184 -100l184 -104l-61 -115l-182 109l2 -211h-123l2 211l-182 -107z" />
    <glyph glyph-name="plus" unicode="+" horiz-adv-x="1019" 
d="M72 584v161h362v359h154v-359h360v-161h-360v-359h-154v359h-362z" />
    <glyph glyph-name="comma" unicode="," horiz-adv-x="438" 
d="M221 248q53 0 90 -36t37 -93t-37 -111l-116 -176h-121l78 178q-56 36 -56 100t36 101t89 37z" />
    <glyph glyph-name="hyphen" unicode="-" horiz-adv-x="753" 
d="M125 543v162h504v-162h-504z" />
    <glyph glyph-name="period" unicode="." horiz-adv-x="446" 
d="M352 118q0 -58 -37 -98t-92 -38q-55 0 -92 39t-37 97t37 96t92 38t92 -38t37 -96z" />
    <glyph glyph-name="slash" unicode="/" horiz-adv-x="677" 
d="M-43 -240l649 1911h201l-649 -1911h-201z" />
    <glyph glyph-name="zero" unicode="0" horiz-adv-x="1415" 
d="M346 717q0 -532 363 -533q360 0 360 532q1 532 -361 533q-362 0 -362 -532zM98 717q0 348 158 535q158 188 452 188t452 -188t157 -535q0 -347 -158 -535q-157 -188 -451 -188t-452 188t-158 535z" />
    <glyph glyph-name="one" unicode="1" horiz-adv-x="792" 
d="M27 1219v215h522v-1434h-242v1219h-280z" />
    <glyph glyph-name="two" unicode="2" horiz-adv-x="1204" 
d="M590 1444q205 0 331 -98t126 -263q0 -188 -263 -471l-372 -395h700v-217h-1020v176l529 567q174 178 174 306q1 86 -63 135t-177 49q-195 0 -391 -180l-96 186q252 205 522 205z" />
    <glyph glyph-name="three" unicode="3" horiz-adv-x="1103" 
d="M776 440q0 114 -79 173q-79 60 -224 61h-199v141l373 402h-573v215h872v-152l-409 -442l73 -9q184 -16 294 -117t110 -268q0 -202 -142 -328t-380 -126q-132 0 -262 42t-222 113l101 197q160 -150 366 -149q141 1 221 67t80 180z" />
    <glyph glyph-name="four" unicode="4" horiz-adv-x="1226" 
d="M61 352v180l490 902h233l-465 -867h426v340h226v-340h209v-215h-209v-352h-226v352h-684z" />
    <glyph glyph-name="five" unicode="5" horiz-adv-x="1181" 
d="M836 453q0 115 -80 178t-217 63q-203 0 -377 -18v758h872l2 -217h-651v-310l197 2q231 0 371 -123q141 -124 141 -328t-144 -335t-387 -131q-127 0 -265 45t-245 119l97 196q180 -152 387 -151q139 1 219 69t80 183z" />
    <glyph glyph-name="six" unicode="6" horiz-adv-x="1259" 
d="M371 470q1 -110 77 -190q76 -81 216 -81q140 1 218 73q79 72 79 198t-75 197t-211 71t-220 -80q-84 -78 -84 -188zM98 695q0 337 168 543t451 206q236 0 428 -109l-94 -182q-139 90 -330 90t-292 -139t-95 -379q115 203 391 203q213 0 337 -124t124 -339t-137 -345
t-367 -130q-272 0 -428 184t-156 521z" />
    <glyph glyph-name="seven" unicode="7" horiz-adv-x="1167" 
d="M76 1434h1042v-185l-571 -1249h-256l557 1217h-557l-2 -201l-213 201v217z" />
    <glyph glyph-name="eight" unicode="8" horiz-adv-x="1282" 
d="M367 1059q0 -100 72 -155q73 -54 203 -54t202 54t72 154t-72 156t-202 56t-202 -56t-73 -155zM319 422q0 -115 84 -178q84 -64 238 -64t239 64t85 178q0 115 -85 177q-85 63 -238 63t-238 -62t-85 -178zM90 397q0 131 79 229t216 140q-223 102 -223 315q0 167 129 265
t350 98t351 -99t130 -272q0 -102 -56 -182t-157 -125q133 -43 209 -139t76 -226q0 -190 -148 -301q-148 -110 -404 -110t-404 110t-148 297z" />
    <glyph glyph-name="nine" unicode="9" horiz-adv-x="1259" 
d="M608 1235q-139 -1 -218 -73t-79 -198t75 -197t211 -71t220 79t84 189t-77 190q-77 81 -216 81zM86 969q0 215 137 345t367 130q272 0 428 -184t156 -522t-168 -542q-168 -206 -451 -206q-236 0 -428 108l94 183q139 -91 330 -91t292 140t95 379q-115 -203 -391 -203
q-215 0 -338 124t-123 339z" />
    <glyph glyph-name="colon" unicode=":" horiz-adv-x="434" 
d="M94 726q0 58 37 96t92 38t92 -38t37 -96t-37 -97t-92 -39t-92 39t-37 97zM352 118q0 -58 -37 -98t-92 -38q-55 0 -92 39t-37 97t37 96t92 38t92 -38t37 -96z" />
    <glyph glyph-name="semicolon" unicode=";" horiz-adv-x="442" 
d="M94 726q0 58 37 96t92 38t92 -38t37 -96t-37 -97t-92 -39t-92 39t-37 97zM221 248q53 0 90 -36t37 -93t-37 -111l-116 -176h-121l78 178q-56 36 -56 100t36 101t89 37z" />
    <glyph glyph-name="less" unicode="&#x3c;" horiz-adv-x="1019" 
d="M72 563v207l876 381v-182l-719 -301l719 -303v-183z" />
    <glyph glyph-name="equal" unicode="=" horiz-adv-x="1019" 
d="M72 799v162h876v-162h-876zM72 369v161h876v-161h-876z" />
    <glyph glyph-name="greater" unicode="&#x3e;" horiz-adv-x="1019" 
d="M72 193v182l719 301l-719 303v182l876 -381v-207z" />
    <glyph glyph-name="question" unicode="?" horiz-adv-x="907" 
d="M557 118q0 -58 -37 -98t-92 -38q-55 0 -92 39t-37 97t37 96t92 38t92 -38t37 -96zM432 1423q190 0 301 -89q111 -88 111 -252t-115 -279q-47 -47 -94 -92q-115 -110 -115 -244h-180q0 168 101 276q42 45 83 86q101 101 101 218q-1 86 -57 131t-154 45q-209 0 -219 -209
l-185 2q6 195 119 301t303 106z" />
    <glyph glyph-name="at" unicode="@" horiz-adv-x="1994" 
d="M964 836q-116 0 -186 -79t-71 -198t71 -203t189 -84t189 82t71 203q0 121 -74 200q-73 79 -189 79zM983 -313q-391 -1 -652 245t-261 619t271 630t667 257t657 -250q260 -250 260 -631q0 -229 -108 -370q-109 -140 -283 -140q-205 0 -238 166l-4 41q-125 -182 -352 -182
q-193 0 -333 135t-140 343t125 349t326 141q120 0 210 -54t113 -99v133h221v-715q0 -111 94 -110q78 0 136 101q57 101 57 255q0 311 -203 516t-529 205q-327 0 -549 -211t-222 -512t211 -497t526 -195q225 0 395 120l84 -149q-88 -63 -224 -102t-255 -39z" />
    <glyph glyph-name="A" unicode="A" horiz-adv-x="1511" 
d="M481 539h541l-270 637zM2 0l633 1434h248l626 -1434h-258l-137 324h-723l-137 -324h-252z" />
    <glyph glyph-name="B" unicode="B" horiz-adv-x="1445" 
d="M430 840h369q115 0 181 51t64 141q0 90 -64 138q-65 48 -181 49h-369v-379zM430 215h369q143 0 222 54q79 53 79 151t-80 152t-221 55h-369v-412zM188 0v1434h623q223 0 352 -96t129 -263q0 -121 -68 -206t-184 -113q144 -25 226 -121t82 -242q0 -185 -140 -289
t-383 -104h-637z" />
    <glyph glyph-name="C" unicode="C" horiz-adv-x="1427" 
d="M70 717q0 307 218 515t535 208q152 0 296 -58t249 -163l-141 -177q-79 84 -185 134t-215 49q-215 -1 -363 -147t-148 -358t148 -358t367 -147q219 0 396 170l143 -160q-111 -109 -258 -172t-297 -63q-315 0 -530 210t-215 517z" />
    <glyph glyph-name="D" unicode="D" horiz-adv-x="1587" 
d="M430 217h352q211 0 352 140q140 139 140 357t-144 360t-358 143h-342v-1000zM188 0v1434h588q322 0 532 -203t210 -514t-211 -514t-537 -203h-582z" />
    <glyph glyph-name="E" unicode="E" horiz-adv-x="1343" 
d="M188 0v1434h1024v-217h-782v-388h700v-217h-700v-395h807v-217h-1049z" />
    <glyph glyph-name="F" unicode="F" horiz-adv-x="1177" 
d="M188 0v1434h963l-2 -217h-719v-414h651v-215h-651v-588h-242z" />
    <glyph glyph-name="G" unicode="G" horiz-adv-x="1533" 
d="M70 717q0 307 221 515t547 208q152 0 298 -54t253 -147l-138 -178q-176 164 -404 164q-228 1 -380 -147t-152 -362t153 -362t372 -147q166 0 329 98v400h211v-529q-112 -84 -262 -135t-295 -51q-317 0 -535 210t-218 517z" />
    <glyph glyph-name="H" unicode="H" horiz-adv-x="1619" 
d="M188 0v1434h242v-623h760v623h242v-1434h-242v594h-760v-594h-242z" />
    <glyph glyph-name="I" unicode="I" horiz-adv-x="618" 
d="M188 0v1434h242v-1434h-242z" />
    <glyph glyph-name="J" unicode="J" horiz-adv-x="1021" 
d="M416 223q98 1 151 59t54 169v983h243v-992q0 -216 -119 -334t-327 -118q-254 0 -422 207l115 184q145 -158 305 -158z" />
    <glyph glyph-name="K" unicode="K" horiz-adv-x="1470" 
d="M188 0v1434h242v-742l684 742h285l-555 -613l592 -821h-291l-471 633l-244 -268v-365h-242z" />
    <glyph glyph-name="L" unicode="L" horiz-adv-x="1093" 
d="M188 0v1434h242v-1215h621v-219h-863z" />
    <glyph glyph-name="M" unicode="M" horiz-adv-x="1894" 
d="M188 0v1434h287l473 -953l471 953h285v-1434h-223l-2 1071l-453 -921h-158l-452 921v-1071h-228z" />
    <glyph glyph-name="N" unicode="N" horiz-adv-x="1622" 
d="M188 0v1434h238l768 -1031v1031h238v-1434h-238l-764 1028v-1028h-242z" />
    <glyph glyph-name="O" unicode="O" horiz-adv-x="1658" 
d="M315 717q0 -213 153 -361q154 -148 364 -149q210 0 360 148q150 147 150 361t-150 360t-362 146t-364 -146t-151 -359zM70 717q0 307 219 515t541 208t540 -208q219 -208 219 -515t-219 -517t-541 -210q-323 0 -541 210t-218 517z" />
    <glyph glyph-name="P" unicode="P" horiz-adv-x="1378" 
d="M430 649h320q346 0 346 289q0 279 -346 279h-320v-568zM188 0v1434h572q270 0 418 -128t149 -367q0 -239 -148 -373t-419 -134h-330v-432h-242z" />
    <glyph glyph-name="Q" unicode="Q" horiz-adv-x="1689" 
d="M315 717q0 -213 153 -361q154 -148 364 -149q210 0 360 148q150 147 150 361t-150 360t-362 146t-364 -146t-151 -359zM70 717q0 307 219 515t541 208t540 -208q219 -208 219 -515q0 -244 -142 -431t-374 -259q123 -133 238 -133t266 118l96 -170q-178 -158 -389 -157
q-133 -1 -252 79t-205 226q-321 2 -539 211t-218 516z" />
    <glyph glyph-name="R" unicode="R" horiz-adv-x="1480" 
d="M430 649h340q348 0 348 289q0 279 -348 279h-340v-568zM188 0v1434h582q274 0 426 -128t152 -362q0 -172 -77 -291t-220 -174l321 -479h-274l-262 434q-20 -2 -66 -2h-340v-432h-242z" />
    <glyph glyph-name="S" unicode="S" horiz-adv-x="1273" 
d="M648 219q122 0 193 46t71 124t-58 128q-57 50 -143 74q-87 23 -187 57t-186 72t-143 122t-58 202q-1 182 143 291t401 109t480 -148l-100 -213q-219 133 -420 134q-109 0 -171 -39t-62 -111t57 -122t143 -74q86 -23 186 -59t187 -76q86 -40 142 -125t57 -205
q0 -188 -151 -302t-390 -112q-163 0 -317 62t-269 165l105 209q108 -100 238 -154t252 -55z" />
    <glyph glyph-name="T" unicode="T" horiz-adv-x="1185" 
d="M18 1217v217h1149v-217h-454v-1217h-242v1217h-453z" />
    <glyph glyph-name="U" unicode="U" horiz-adv-x="1564" 
d="M160 594v840h241v-840q-1 -180 103 -284t281 -103q177 0 279 102q101 102 101 285v840h242v-840q0 -280 -166 -442t-457 -162q-292 0 -458 162t-166 442z" />
    <glyph glyph-name="V" unicode="V" horiz-adv-x="1413" 
d="M6 1434h260l443 -1166l446 1166h252l-580 -1434h-249z" />
    <glyph glyph-name="W" unicode="W" horiz-adv-x="2121" 
d="M6 1434h260l348 -1166l347 1164l237 2l348 -1166l346 1166h250l-479 -1434h-248l-340 1118l-344 -1118h-250z" />
    <glyph glyph-name="X" unicode="X" horiz-adv-x="1417" 
d="M31 0l522 735l-485 699h280l350 -498l353 498h282l-481 -689l522 -745h-289l-387 541l-385 -541h-282z" />
    <glyph glyph-name="Y" unicode="Y" horiz-adv-x="1304" 
d="M776 0h-239v469l-535 965h244l409 -699l402 699h246l-527 -957v-477z" />
    <glyph glyph-name="Z" unicode="Z" horiz-adv-x="1363" 
d="M76 0v174l874 1043h-848v217h1174v-174l-873 -1043h883v-217h-1210z" />
    <glyph glyph-name="bracketleft" unicode="[" horiz-adv-x="706" 
d="M188 -254v1774h465v-189h-254v-1397h254v-188h-465z" />
    <glyph glyph-name="backslash" unicode="\" horiz-adv-x="1116" 
d="M266 1671h201l649 -1911h-201z" />
    <glyph glyph-name="bracketright" unicode="]" horiz-adv-x="968" 
d="M315 -66h254v1397h-254v189h465v-1774h-465v188z" />
    <glyph glyph-name="asciicircum" unicode="^" horiz-adv-x="1101" 
d="M66 270l380 807h207l381 -807h-182l-301 662l-303 -662h-182z" />
    <glyph glyph-name="underscore" unicode="_" horiz-adv-x="1159" 
d="M0 -274h1159v-144h-1159v144z" />
    <glyph glyph-name="grave" unicode="`" 
d="M115 1448l241 102l217 -303h-208z" />
    <glyph glyph-name="a" unicode="a" horiz-adv-x="1200" 
d="M530 483q-117 1 -171 -33t-54 -110t56 -120t168 -44t199 58t97 149v100h-295zM825 688q-1 219 -277 219q-144 0 -304 -110l-97 164q125 73 225 105t244 32q209 0 324 -102t117 -281l2 -715h-232v133q-117 -143 -360 -143q-174 0 -279 95q-104 97 -104 245t109 236t303 89
h329v33z" />
    <glyph glyph-name="b" unicode="b" horiz-adv-x="1392" 
d="M752 901q-144 0 -238 -99t-94 -255t93 -255t239 -99t238 99q93 99 93 255t-93 255t-238 99zM184 0v1520h236v-619q124 197 368 197t388 -155t145 -401q0 -246 -141 -399q-141 -152 -375 -151q-262 0 -385 196v-188h-236z" />
    <glyph glyph-name="c" unicode="c" horiz-adv-x="1155" 
d="M72 544q0 246 152 400t397 154q295 0 450 -178l-129 -152q-123 125 -311 123q-141 0 -233 -97t-91 -251q0 -154 91 -251t233 -97q209 0 321 131l131 -131q-154 -203 -462 -203q-244 0 -397 152q-152 153 -152 400z" />
    <glyph glyph-name="d" unicode="d" horiz-adv-x="1396" 
d="M977 542q0 157 -93 257q-92 100 -240 100t-242 -100t-93 -257q0 -157 93 -256q92 -100 240 -100t242 100t93 256zM72 547q0 249 143 401t375 152q262 0 387 -199v619h235v-1520h-235v186q-121 -197 -383 -196q-233 0 -378 154q-144 155 -144 403z" />
    <glyph glyph-name="e" unicode="e" horiz-adv-x="1204" 
d="M305 627h623q-6 131 -88 207t-213 76t-217 -76t-105 -207zM72 543q0 245 154 399t397 156q281 0 407 -169t103 -474h-824q29 -127 119 -200t219 -73q184 0 307 127l125 -133q-168 -184 -435 -184t-420 152q-152 153 -152 399z" />
    <glyph glyph-name="f" unicode="f" horiz-adv-x="702" 
d="M76 872v177h143v106q0 179 111 277t259 98t251 -76l-90 -180q-70 51 -142 51t-113 -37q-42 -37 -42 -110v-129h284v-177h-284v-872h-234v872h-143z" />
    <glyph glyph-name="g" unicode="g" horiz-adv-x="1310" 
d="M608 238q139 0 228 94q88 94 88 241t-87 241t-227 93q-140 1 -227 -93q-88 -94 -88 -241t87 -241t226 -94zM72 578q0 234 133 375q133 142 350 145q250 2 369 -185v177h233v-984q1 -233 -153 -371t-404 -138t-461 143l101 170q160 -119 329 -119t261 84t94 225v138
q-114 -184 -348 -184t-369 144q-135 146 -135 380z" />
    <glyph glyph-name="h" unicode="h" horiz-adv-x="1370" 
d="M184 0v1520h236v-643q113 221 403 221q190 0 298 -112t108 -308v-678h-236v612q0 123 -69 194q-70 71 -203 70q-133 0 -217 -96t-84 -243v-537h-236z" />
    <glyph glyph-name="i" unicode="i" horiz-adv-x="581" 
d="M174 0v1090h234v-1090h-234zM428 1402q0 -62 -39 -102t-98 -40t-98 40t-39 102t39 102t98 40t98 -40t39 -102z" />
    <glyph glyph-name="j" unicode="j" horiz-adv-x="587" 
d="M145 1402q0 62 41 102q42 40 104 40t103 -40t41 -102t-41 -104t-103 -41q-62 0 -104 41q-41 42 -41 104zM37 -201q63 0 99 37t36 111v1143h234v-1121q0 -182 -104 -279q-104 -98 -240 -98t-236 74l78 182q70 -49 133 -49z" />
    <glyph glyph-name="k" unicode="k" horiz-adv-x="1218" 
d="M184 0v1520h236v-918l481 488h270l-403 -422l434 -668h-278l-320 500l-184 -195v-305h-236z" />
    <glyph glyph-name="l" unicode="l" horiz-adv-x="604" 
d="M184 0v1520h236v-1520h-236z" />
    <glyph glyph-name="m" unicode="m" horiz-adv-x="2136" 
d="M174 0v1090h234v-211q109 219 395 219q145 0 243 -69t136 -193q100 262 413 262q187 0 293 -113t107 -307v-678h-236v612q0 125 -68 196q-69 71 -198 69q-129 -1 -210 -97t-81 -241v-539h-235v612q0 125 -69 196t-187 71q-139 -3 -221 -99t-82 -241v-539h-234z" />
    <glyph glyph-name="n" unicode="n" horiz-adv-x="1357" 
d="M174 0v1090h236v-209q111 217 401 217q190 0 298 -112t108 -308v-678h-236v612q0 123 -70 194q-71 71 -197 70t-209 -83t-95 -213v-580h-236z" />
    <glyph glyph-name="o" unicode="o" horiz-adv-x="1280" 
d="M640 895q-146 0 -240 -98t-93 -255q0 -157 93 -255q92 -99 240 -99t240 98t93 256q0 157 -93 255q-94 98 -240 98zM72 546q0 248 158 400t410 152q253 0 411 -153q157 -153 157 -399t-158 -401q-158 -153 -410 -153q-253 0 -411 153q-157 154 -157 401z" />
    <glyph glyph-name="p" unicode="p" horiz-adv-x="1392" 
d="M752 901q-144 0 -238 -99t-94 -255t93 -255t239 -99t238 99q93 99 93 255t-93 255t-238 99zM184 -397v1487h236v-189q124 197 368 197t388 -155t145 -401q0 -246 -141 -399q-141 -152 -375 -151q-262 0 -385 196v-585h-236z" />
    <glyph glyph-name="q" unicode="q" horiz-adv-x="1396" 
d="M977 542q0 157 -93 257q-92 100 -240 100t-242 -100t-93 -257q0 -157 93 -256q92 -100 240 -100t242 100t93 256zM72 547q0 249 143 401t375 152q262 0 387 -199v189h235v-1487h-235v583q-121 -197 -383 -196q-233 0 -378 154q-144 155 -144 403z" />
    <glyph glyph-name="r" unicode="r" horiz-adv-x="806" 
d="M174 0v1090h236v-218q113 225 376 226v-226q-162 8 -262 -76t-114 -227v-569h-236z" />
    <glyph glyph-name="s" unicode="s" horiz-adv-x="962" 
d="M486 176q184 0 184 117q0 61 -60 98t-143 60q-84 23 -168 53t-142 102q-58 70 -59 178q0 156 116 236t286 80q225 0 381 -111l-86 -174q-156 96 -315 96t-158 -108q0 -53 59 -88t144 -59t170 -56t145 -102q59 -72 59 -183q0 -159 -120 -241t-298 -82q-123 0 -241 40
t-197 111l84 168q70 -61 171 -98q102 -37 188 -37z" />
    <glyph glyph-name="t" unicode="t" horiz-adv-x="833" 
d="M63 872v177h154v299h234v-299h321v-177h-321v-522q1 -82 29 -114t90 -33q62 0 161 47l60 -180q-135 -80 -269 -80t-219 80q-86 80 -86 237v565h-154z" />
    <glyph glyph-name="u" unicode="u" horiz-adv-x="1337" 
d="M139 412v678h236v-613q-1 -123 67 -193t196 -70q128 1 209 96t81 243v537h235v-1090h-235v213q-106 -217 -389 -221q-186 0 -293 112t-107 308z" />
    <glyph glyph-name="v" unicode="v" horiz-adv-x="1075" 
d="M2 1090h246l303 -859l299 859h235l-417 -1090h-244z" />
    <glyph glyph-name="w" unicode="w" horiz-adv-x="1828" 
d="M2 1090h242l282 -857l275 857h243l277 -857l278 857h240l-397 -1090h-244l-276 807l-277 -807h-242z" />
    <glyph glyph-name="x" unicode="x" horiz-adv-x="1134" 
d="M29 0l385 559l-359 531h271l243 -373l248 373h258l-350 -531l375 -559h-271l-260 399l-278 -399h-262z" />
    <glyph glyph-name="y" unicode="y" horiz-adv-x="1087" 
d="M248 -408q-141 0 -252 93l100 182q74 -53 142 -53q111 0 165 120l37 82l-450 1074h243l326 -826l303 826h236l-496 -1240q-102 -258 -354 -258z" />
    <glyph glyph-name="z" unicode="z" horiz-adv-x="1099" 
d="M111 897v193l895 -3v-157l-623 -737l641 -3v-192l-932 2v160l623 737h-604z" />
    <glyph glyph-name="braceleft" unicode="{" horiz-adv-x="673" 
d="M74 535v194h63q47 0 68 26q20 26 20 83v424q0 141 74 200t246 60h88v-189q-107 0 -151 -34t-44 -111v-336q0 -98 -32 -150q-33 -51 -111 -71q78 -17 111 -69t32 -150v-336q0 -78 44 -112t151 -34v-188h-88q-172 0 -246 59t-74 203v422q0 57 -20 83t-68 26h-63z" />
    <glyph glyph-name="bar" unicode="|" horiz-adv-x="550" 
d="M186 -238v1897h179v-1897h-179z" />
    <glyph glyph-name="braceright" unicode="}" horiz-adv-x="823" 
d="M264 -70q106 0 151 34q44 34 44 112v336q0 98 33 149t110 72q-78 18 -110 69t-33 150v336q0 78 -44 112t-151 33v189h88q172 0 246 -60t74 -200v-424q0 -57 20 -83t68 -26h63v-194h-63q-48 0 -68 -26t-20 -83v-422q0 -142 -74 -202t-246 -60h-88v188z" />
    <glyph glyph-name="asciitilde" unicode="~" horiz-adv-x="1019" 
d="M135 522q0 287 199 287q72 0 173 -58t138 -59q80 0 80 103h162q0 -287 -199 -287q-76 0 -175 58t-134 59q-80 0 -80 -103h-164z" />
    <glyph glyph-name="nbspace" unicode="&#xa0;" horiz-adv-x="528" 
 />
    <glyph glyph-name="exclamdown" unicode="&#xa1;" horiz-adv-x="428" 
d="M352 -328h-223v355l37 604h149l37 -604v-355zM111 970q0 58 36 97q37 39 93 39t92 -39q37 -39 37 -97t-37 -96t-92 -38t-93 37q-36 39 -36 97z" />
    <glyph glyph-name="cent" unicode="&#xa2;" horiz-adv-x="1155" 
d="M307 543q1 -125 61 -214t162 -120v668q-102 -31 -162 -120t-61 -214zM72 544q0 222 126 370t332 178v309h179v-307q231 -25 362 -174l-129 -152q-94 98 -233 119v-686q154 18 243 125l131 -131q-129 -172 -374 -199v-287h-179v289q-206 28 -332 176t-126 370z" />
    <glyph glyph-name="sterling" unicode="&#xa3;" horiz-adv-x="1120" 
d="M76 0v197h170v413h-170v172h170v207q0 217 113 336q114 119 323 119q244 0 405 -184l-96 -189q-131 156 -284 156q-219 0 -220 -244v-201h361v-172h-361v-413h574v-197h-985z" />
    <glyph glyph-name="currency" unicode="&#xa4;" horiz-adv-x="1456" 
d="M1094 654q0 140 -108 240t-258 101q-150 -1 -256 -101q-105 -100 -105 -240t105 -238t256 -98q150 0 258 98t108 238zM727 1194q170 0 313 -94l211 209l133 -142l-204 -204q100 -139 100 -309t-104 -312l208 -209l-133 -141l-217 215q-139 -90 -306 -90t-306 90
l-217 -215l-133 141l209 209q-103 141 -103 310t98 311l-204 204l133 142l211 -211q141 96 311 96z" />
    <glyph glyph-name="yen" unicode="&#xa5;" horiz-adv-x="1286" 
d="M1178 659v-102h-357l-43 -78v-92h400v-102h-400v-285h-241v285h-383v102h383v82l-50 88h-333v102h278l-430 775h244l409 -699l402 699h246l-426 -775h301z" />
    <glyph glyph-name="brokenbar" unicode="&#xa6;" horiz-adv-x="550" 
d="M186 950v709h179v-709h-179zM186 -238v709h179v-709h-179z" />
    <glyph glyph-name="section" unicode="&#xa7;" horiz-adv-x="1021" 
d="M503 770q-212 0 -212 -132q0 -64 75 -111q75 -46 178 -46t154 36q52 37 52 101t-72 108t-175 44zM489 -6q94 0 155 37q60 37 60 95q1 105 -218 169q-91 27 -182 59t-154 103q-64 70 -64 169t67 167t183 96q-115 47 -161 101t-46 136q0 131 111 213t304 82t374 -108
l-74 -152q-164 94 -312 94q-90 1 -144 -33t-54 -92q0 -103 221 -165q92 -27 183 -60t156 -103q64 -70 64 -166q0 -97 -63 -171t-158 -103q94 -41 136 -94t42 -139q1 -133 -115 -218t-304 -85q-263 0 -453 156l72 151q176 -139 374 -139z" />
    <glyph glyph-name="dieresis" unicode="&#xa8;" horiz-adv-x="794" 
d="M416 1412q0 56 36 93t89 37t88 -37t35 -93t-35 -93t-88 -37t-89 37t-36 93zM53 1412q0 56 36 93t89 37t88 -37t35 -93t-35 -93t-88 -37t-89 37t-36 93z" />
    <glyph glyph-name="copyright" unicode="&#xa9;" horiz-adv-x="1525" 
d="M406 715q0 150 106 250t262 100t268 -109l-71 -86q-87 86 -193 86t-178 -70t-72 -170q0 -101 72 -172t178 -71t193 82l71 -80q-118 -115 -272 -115t-259 102t-105 253zM186 713q0 -238 166 -405t409 -167t411 169t167 407q0 239 -167 405q-168 166 -410 166t-409 -168
t-167 -407zM70 713q0 287 202 493t492 205q292 0 492 -204q200 -205 200 -491t-203 -492t-493 -206t-490 204t-200 491z" />
    <glyph glyph-name="ordfeminine" unicode="&#xaa;" horiz-adv-x="788" 
d="M223 1141q0 -45 33 -72t88 -27q125 0 178 101v86h-166q-133 0 -133 -88zM68 1126q0 88 66 137q67 48 190 50h198v28q0 121 -155 121q-96 0 -220 -61l-41 115q158 76 296 76t210 -62q74 -61 74 -170v-422h-162v102q-78 -109 -235 -108q-102 0 -162 53q-59 53 -59 141z" />
    <glyph glyph-name="guillemotleft" unicode="&#xab;" horiz-adv-x="933" 
d="M416 532l237 357h197l-219 -357l219 -356h-197zM47 532l238 357h196l-219 -357l219 -356h-196z" />
    <glyph glyph-name="logicalnot" unicode="&#xac;" horiz-adv-x="1150" 
d="M72 666v161h923v-530h-172v369h-751z" />
    <glyph glyph-name="softhyphen" unicode="&#xad;" horiz-adv-x="753" 
d="M125 543v162h504v-162h-504z" />
    <glyph glyph-name="registered" unicode="&#xae;" horiz-adv-x="1525" 
d="M616 696h162q80 0 125 38t45 107t-45 105t-125 37h-162v-287zM500 389v692h278q135 0 208 -61t73 -176q0 -166 -146 -223l160 -232h-135l-129 209h-193v-209h-116zM186 713q0 -238 166 -405t409 -167t411 169t167 407q0 239 -167 405q-168 166 -410 166t-409 -168
t-167 -407zM70 713q0 287 202 493t492 205q292 0 492 -204q200 -205 200 -491t-203 -492t-493 -206t-490 204t-200 491z" />
    <glyph glyph-name="macron" unicode="&#xaf;" 
d="M98 1313v170h523v-170h-523z" />
    <glyph glyph-name="degree" unicode="&#xb0;" horiz-adv-x="708" 
d="M266 1423q0 -53 40 -91t97 -38t98 38q40 38 40 91t-40 93q-39 40 -97 38q-58 0 -98 -39t-40 -92zM166 1423q0 96 70 166t168 70t167 -70q70 -70 70 -166t-70 -166q-70 -69 -167 -69q-98 0 -168 70t-70 165z" />
    <glyph glyph-name="plusminus" unicode="&#xb1;" horiz-adv-x="1019" 
d="M72 721v160h362v350h154v-350h360v-160h-360v-350h-154v350h-362zM72 41v164h876v-164h-876z" />
    <glyph glyph-name="twosuperior" unicode="&#xb2;" horiz-adv-x="784" 
d="M391 1440q127 0 206 -58t79 -157q0 -121 -164 -279l-221 -223h422v-135h-637v114l321 330q100 96 101 168q0 96 -125 96t-248 -106l-68 127q162 123 334 123z" />
    <glyph glyph-name="threesuperior" unicode="&#xb3;" horiz-adv-x="727" 
d="M317 711q80 0 125 37t45 100q0 127 -172 127h-127v94l230 234h-355v127h551v-101l-243 -246l45 -4q108 -10 174 -70t66 -169t-90 -185q-90 -75 -252 -75t-291 94l71 135q98 -98 223 -98z" />
    <glyph glyph-name="acute" unicode="&#xb4;" 
d="M127 1245l217 303l242 -102l-250 -201h-209z" />
    <glyph glyph-name="mu" unicode="&#xb5;" horiz-adv-x="1382" 
d="M184 -397v1487h236v-613q0 -123 68 -193t195 -70q128 1 209 96t81 243v537h235v-1090h-235v213q-106 -217 -389 -221q-84 0 -164 26v-415h-236z" />
    <glyph glyph-name="paragraph" unicode="&#xb6;" horiz-adv-x="1259" 
d="M-2 1116q0 170 115 287t346 117h612v-1743h-180v1595h-268v-1595h-179v952h-63q-286 0 -365 261q-18 63 -18 126z" />
    <glyph glyph-name="periodcentered" unicode="&#xb7;" horiz-adv-x="434" 
d="M94 589q0 56 35 92t88 36t88 -36t35 -92t-35 -93t-88 -37t-88 37t-35 93z" />
    <glyph glyph-name="cedilla" unicode="&#xb8;" 
d="M414 -102q143 -26 143 -174q0 -76 -62 -130q-61 -54 -159 -52q-98 0 -176 57l45 110q53 -41 107 -41t80 26t26 58t-26 56q-26 22 -67 22t-77 -10l86 203h139z" />
    <glyph glyph-name="onesuperior" unicode="&#xb9;" horiz-adv-x="536" 
d="M33 1292v142h342v-846h-172v704h-170z" />
    <glyph glyph-name="ordmasculine" unicode="&#xba;" horiz-adv-x="833" 
d="M227 1260q1 -88 53 -142t136 -53q84 0 135 53q51 54 51 142t-51 141t-135 53t-136 -53t-53 -141zM61 1262q1 147 99 237t256 90t257 -90t99 -237q0 -148 -99 -238t-257 -90t-256 90t-99 238z" />
    <glyph glyph-name="guillemotright" unicode="&#xbb;" horiz-adv-x="958" 
d="M524 178l219 357l-219 356h197l237 -356l-237 -357h-197zM156 178l219 357l-219 356h196l238 -356l-238 -357h-196z" />
    <glyph glyph-name="onequarter" unicode="&#xbc;" horiz-adv-x="1673" 
d="M924 199v120l293 527h163l-284 -520h245v209h162v-209h125v-127h-125v-199h-162v199h-417zM102 0l1055 1434h225l-1052 -1434h-228zM33 1292v142h342v-846h-172v704h-170z" />
    <glyph glyph-name="onehalf" unicode="&#xbd;" horiz-adv-x="1718" 
d="M1325 852q127 0 206 -58t79 -157q0 -121 -164 -279l-221 -221h422v-137h-637v117l321 327q100 100 101 170q0 45 -35 71t-99 26q-117 0 -239 -107l-68 125q158 123 334 123zM102 0l1055 1434h225l-1052 -1434h-228zM33 1292v142h342v-846h-172v704h-170z" />
    <glyph glyph-name="threequarters" unicode="&#xbe;" horiz-adv-x="1798" 
d="M1051 199v120l292 527h164l-284 -520h245v209h162v-209h125v-127h-125v-199h-162v199h-417zM229 0l1055 1434h225l-1052 -1434h-228zM317 711q80 0 125 37t45 100q0 127 -172 127h-127v94l230 234h-355v127h551v-101l-243 -246l45 -4q108 -10 174 -70t66 -169t-90 -185
q-90 -75 -252 -75t-291 94l71 135q98 -98 223 -98z" />
    <glyph glyph-name="questiondown" unicode="&#xbf;" horiz-adv-x="907" 
d="M608 970q0 -58 -37 -96t-92 -38t-92 38t-37 96t37 97t92 39t92 -39t37 -97zM63 6q0 164 115 279q47 47 94 92q115 110 115 244h180q0 -167 -100 -277q-41 -45 -83 -85q-103 -98 -101 -216q0 -88 56 -133q55 -45 155 -45t157 53t62 156l184 -2q-6 -192 -119 -300
t-303 -108t-301 89t-111 253z" />
    <glyph glyph-name="Agrave" unicode="&#xc0;" horiz-adv-x="1511" 
d="M481 539h541l-270 637zM424 1792l242 102l217 -303h-209zM2 0l633 1434h248l626 -1434h-258l-137 324h-723l-137 -324h-252z" />
    <glyph glyph-name="Aacute" unicode="&#xc1;" horiz-adv-x="1511" 
d="M618 1589l218 303l241 -102l-250 -201h-209zM481 539h541l-270 637zM2 0l633 1434h248l626 -1434h-258l-137 324h-723l-137 -324h-252z" />
    <glyph glyph-name="Acircumflex" unicode="&#xc2;" horiz-adv-x="1511" 
d="M481 539h541l-270 637zM436 1595l211 289h217l211 -289h-192l-127 181l-127 -181h-193zM2 0l633 1434h248l626 -1434h-258l-137 324h-723l-137 -324h-252z" />
    <glyph glyph-name="Atilde" unicode="&#xc3;" horiz-adv-x="1511" 
d="M481 539h541l-270 637zM426 1628q0 268 188 268q60 0 138 -56t106 -56q78 0 78 100h149q0 -268 -186 -268q-69 0 -143 56t-103 57q-76 0 -75 -101h-152zM2 0l633 1434h248l626 -1434h-258l-137 324h-723l-137 -324h-252z" />
    <glyph glyph-name="Adieresis" unicode="&#xc4;" horiz-adv-x="1511" 
d="M813 1756q0 56 36 93t89 37t88 -37t35 -93t-35 -93t-88 -37t-89 37t-36 93zM481 539h541l-270 637zM451 1756q0 56 35 93q36 37 89 37t89 -37t34 -93q0 -56 -34 -93t-88 -37t-90 37q-35 37 -35 93zM2 0l633 1434h248l626 -1434h-258l-137 324h-723l-137 -324h-252z" />
    <glyph glyph-name="Aring" unicode="&#xc5;" horiz-adv-x="1511" 
d="M618 1585q0 -55 41 -94t101 -39t101 39q42 39 42 94t-42 95t-100 40q-59 0 -101 -40t-42 -95zM481 539h541l-270 637zM510 1572q0 114 74 189q74 74 177 74t177 -74q74 -75 74 -189t-107 -190l604 -1382h-258l-137 324h-723l-137 -324h-252l612 1384q-104 74 -104 188z
" />
    <glyph glyph-name="AE" unicode="&#xc6;" horiz-adv-x="2154" 
d="M999 543v690h-49l-389 -690h438zM2021 1434v-217h-782v-390h703v-215h-703v-395h807v-217h-1047v354h-544l-201 -354h-252l832 1434h1187z" />
    <glyph glyph-name="Ccedilla" unicode="&#xc7;" horiz-adv-x="1427" 
d="M840 -102q143 -26 143 -174q0 -76 -62 -130q-61 -54 -159 -53q-98 0 -176 58l45 110q53 -41 107 -41t80 26t26 58t-26 56q-26 22 -67 22t-77 -10l74 172q-291 25 -485 230q-193 206 -193 504t218 506t535 208q152 0 296 -58t249 -163l-141 -177q-79 84 -185 134t-215 49
q-215 -1 -363 -147t-148 -358t148 -358t367 -147q219 0 396 170l143 -160q-207 -203 -485 -231z" />
    <glyph glyph-name="Egrave" unicode="&#xc8;" horiz-adv-x="1343" 
d="M373 1792l241 102l217 -303h-208zM188 0v1434h1024v-217h-782v-388h700v-217h-700v-395h807v-217h-1049z" />
    <glyph glyph-name="Eacute" unicode="&#xc9;" horiz-adv-x="1343" 
d="M567 1589l217 303l242 -102l-250 -201h-209zM188 0v1434h1024v-217h-782v-388h700v-217h-700v-395h807v-217h-1049z" />
    <glyph glyph-name="Ecircumflex" unicode="&#xca;" horiz-adv-x="1343" 
d="M385 1595l211 289h217l211 -289h-193l-126 181l-127 -181h-193zM188 0v1434h1024v-217h-782v-388h700v-217h-700v-395h807v-217h-1049z" />
    <glyph glyph-name="Edieresis" unicode="&#xcb;" horiz-adv-x="1343" 
d="M762 1756q0 56 36 93t89 37t88 -37t35 -93t-35 -93t-88 -37t-89 37t-36 93zM399 1756q0 56 36 93t89 37t88 -37t35 -93t-35 -93t-88 -37t-89 37t-36 93zM188 0v1434h1024v-217h-782v-388h700v-217h-700v-395h807v-217h-1049z" />
    <glyph glyph-name="Igrave" unicode="&#xcc;" horiz-adv-x="618" 
d="M188 0v1434h242v-1434h-242zM-25 1792l242 102l217 -303h-209z" />
    <glyph glyph-name="Iacute" unicode="&#xcd;" horiz-adv-x="618" 
d="M188 0v1434h242v-1434h-242zM172 1589l217 303l242 -102l-250 -201h-209z" />
    <glyph glyph-name="Icircumflex" unicode="&#xce;" horiz-adv-x="618" 
d="M188 0v1434h242v-1434h-242zM-10 1595l211 289h217l211 -289h-193l-127 181l-127 -181h-192z" />
    <glyph glyph-name="Idieresis" unicode="&#xcf;" horiz-adv-x="618" 
d="M367 1756q0 56 35 93q36 37 90 37t88 -37t34 -93t-34 -93t-88 -37q-53 0 -90 37q-35 37 -35 93zM188 0v1434h242v-1434h-242zM4 1756q0 56 36 93t89 37t88 -37t35 -93t-35 -93t-88 -37t-89 37t-36 93z" />
    <glyph glyph-name="Eth" unicode="&#xd0;" horiz-adv-x="1628" 
d="M469 217h354q211 0 351 140q139 139 139 357q1 218 -143 360t-357 143h-344v-426h408v-142h-408v-432zM0 649v142h229v643h588q322 0 532 -203t210 -514t-212 -514t-538 -203h-580v649h-229z" />
    <glyph glyph-name="Ntilde" unicode="&#xd1;" horiz-adv-x="1622" 
d="M481 1628q0 268 189 268q61 0 138 -56t105 -56q78 0 78 100h150q0 -268 -187 -268q-68 0 -142 56t-103 57q-76 0 -76 -101h-152zM188 0v1434h238l768 -1031v1031h238v-1434h-238l-764 1028v-1028h-242z" />
    <glyph glyph-name="Ograve" unicode="&#xd2;" horiz-adv-x="1658" 
d="M487 1792l242 102l217 -303h-209zM315 717q0 -213 153 -361q154 -148 364 -149q210 0 360 148q150 147 150 361t-150 360t-362 146t-364 -146t-151 -359zM70 717q0 307 219 515t541 208t540 -208q219 -208 219 -515t-219 -517t-541 -210q-323 0 -541 210t-218 517z" />
    <glyph glyph-name="Oacute" unicode="&#xd3;" horiz-adv-x="1658" 
d="M682 1589l217 303l242 -102l-250 -201h-209zM315 717q0 -213 153 -361q154 -148 364 -149q210 0 360 148q150 147 150 361t-150 360t-362 146t-364 -146t-151 -359zM70 717q0 307 219 515t541 208t540 -208q219 -208 219 -515t-219 -517t-541 -210q-323 0 -541 210
t-218 517z" />
    <glyph glyph-name="Ocircumflex" unicode="&#xd4;" horiz-adv-x="1658" 
d="M500 1595l211 289h217l211 -289h-193l-127 181l-127 -181h-192zM315 717q0 -213 153 -361q154 -148 364 -149q210 0 360 148q150 147 150 361t-150 360t-362 146t-364 -146t-151 -359zM70 717q0 307 219 515t541 208t540 -208q219 -208 219 -515t-219 -517t-541 -210
q-323 0 -541 210t-218 517z" />
    <glyph glyph-name="Otilde" unicode="&#xd5;" horiz-adv-x="1658" 
d="M489 1628q0 268 189 268q61 0 138 -56t106 -56q78 0 77 100h150q0 -268 -186 -268q-68 0 -143 56t-103 57q-76 0 -76 -101h-152zM315 717q0 -213 153 -361q154 -148 364 -149q210 0 360 148q150 147 150 361t-150 360t-362 146t-364 -146t-151 -359zM70 717
q0 307 219 515t541 208t540 -208q219 -208 219 -515t-219 -517t-541 -210q-323 0 -541 210t-218 517z" />
    <glyph glyph-name="Odieresis" unicode="&#xd6;" horiz-adv-x="1658" 
d="M877 1756q0 56 35 93q36 37 89 37t89 -37t34 -93q0 -56 -34 -93t-88 -37t-90 37q-35 37 -35 93zM514 1756q0 56 36 93t89 37t88 -37t35 -93t-35 -93t-88 -37t-89 37t-36 93zM315 717q0 -213 153 -361q154 -148 364 -149q210 0 360 148q150 147 150 361t-150 360t-362 146
t-364 -146t-151 -359zM70 717q0 307 219 515t541 208t540 -208q219 -208 219 -515t-219 -517t-541 -210q-323 0 -541 210t-218 517z" />
    <glyph glyph-name="multiply" unicode="&#xd7;" horiz-adv-x="1019" 
d="M147 412l252 254l-252 252l109 114l256 -256l254 256l108 -114l-251 -252l251 -254l-108 -115l-254 256l-256 -256z" />
    <glyph glyph-name="Oslash" unicode="&#xd8;" horiz-adv-x="1658" 
d="M831 207q211 0 361 148t149 362q0 157 -86 283t-227 184l-326 -961q66 -16 129 -16zM315 717q0 -141 72 -259t191 -186l321 947q-45 4 -68 4q-213 -1 -365 -147t-151 -359zM70 717q0 307 219 515t540 208q72 0 142 -13l78 234h143l-90 -266q219 -76 353 -259t134 -419
q0 -307 -219 -517t-541 -210q-100 0 -196 22l-90 -262h-142l105 305q-200 87 -318 265t-118 397z" />
    <glyph glyph-name="Ugrave" unicode="&#xd9;" horiz-adv-x="1564" 
d="M451 1792l241 102l217 -303h-209zM160 594v840h241v-840q-1 -180 103 -284t281 -103q177 0 279 102q101 102 101 285v840h242v-840q0 -280 -166 -442t-457 -162q-292 0 -458 162t-166 442z" />
    <glyph glyph-name="Uacute" unicode="&#xda;" horiz-adv-x="1564" 
d="M645 1589l217 303l242 -102l-250 -201h-209zM160 594v840h241v-840q-1 -180 103 -284t281 -103q177 0 279 102q101 102 101 285v840h242v-840q0 -280 -166 -442t-457 -162q-292 0 -458 162t-166 442z" />
    <glyph glyph-name="Ucircumflex" unicode="&#xdb;" horiz-adv-x="1564" 
d="M463 1595l211 289h217l211 -289h-193l-127 181l-127 -181h-192zM160 594v840h241v-840q-1 -180 103 -284t281 -103q177 0 279 102q101 102 101 285v840h242v-840q0 -280 -166 -442t-457 -162q-292 0 -458 162t-166 442z" />
    <glyph glyph-name="Udieresis" unicode="&#xdc;" horiz-adv-x="1564" 
d="M840 1756q0 56 36 93t89 37t88 -37t35 -93t-36 -93q-34 -37 -87 -37t-89 37t-36 93zM477 1756q0 56 36 93t89 37t88 -37t35 -93t-35 -93t-88 -37t-89 37t-36 93zM160 594v840h241v-840q-1 -180 103 -284t281 -103q177 0 279 102q101 102 101 285v840h242v-840
q0 -280 -166 -442t-457 -162q-292 0 -458 162t-166 442z" />
    <glyph glyph-name="Yacute" unicode="&#xdd;" horiz-adv-x="1304" 
d="M514 1589l217 303l242 -102l-250 -201h-209zM776 0h-239v469l-535 965h244l409 -699l402 699h246l-527 -957v-477z" />
    <glyph glyph-name="Thorn" unicode="&#xde;" horiz-adv-x="1390" 
d="M430 451h291q371 0 371 294q0 285 -371 285h-291v-579zM188 0v1434h242v-203h301q291 0 449 -125q158 -126 158 -360t-158 -365t-449 -131h-301v-250h-242z" />
    <glyph glyph-name="germandbls" unicode="&#xdf;" horiz-adv-x="1339" 
d="M160 0v999q0 244 140 387q140 144 368 144t359 -109q132 -109 132 -286q-1 -121 -65 -217t-172 -138q145 -28 232 -118t87 -232q0 -190 -147 -310t-392 -120h-104v182h123q131 0 211 68t80 178t-92 174q-92 63 -250 64h-27v180q131 0 210 68t79 182q0 112 -70 178
t-192 66t-200 -88q-77 -87 -77 -236v-1016h-233z" />
    <glyph glyph-name="agrave" unicode="&#xe0;" horiz-adv-x="1200" 
d="M530 483q-117 1 -171 -33t-54 -110t56 -120t168 -44t199 58t97 149v100h-295zM262 1448l242 102l217 -303h-209zM825 688q-1 219 -277 219q-144 0 -304 -110l-97 164q125 73 225 105t244 32q209 0 324 -102t117 -281l2 -715h-232v133q-117 -143 -360 -143q-174 0 -279 95
q-104 97 -104 245t109 236t303 89h329v33z" />
    <glyph glyph-name="aacute" unicode="&#xe1;" horiz-adv-x="1200" 
d="M457 1245l217 303l241 -102l-249 -201h-209zM530 483q-117 1 -171 -33t-54 -110t56 -120t168 -44t199 58t97 149v100h-295zM825 688q-1 219 -277 219q-144 0 -304 -110l-97 164q125 73 225 105t244 32q209 0 324 -102t117 -281l2 -715h-232v133q-117 -143 -360 -143
q-174 0 -279 95q-104 97 -104 245t109 236t303 89h329v33z" />
    <glyph glyph-name="acircumflex" unicode="&#xe2;" horiz-adv-x="1200" 
d="M530 483q-117 1 -171 -33t-54 -110t56 -120t168 -44t199 58t97 149v100h-295zM274 1251l211 289h217l211 -289h-192l-127 181l-127 -181h-193zM825 688q-1 219 -277 219q-144 0 -304 -110l-97 164q125 73 225 105t244 32q209 0 324 -102t117 -281l2 -715h-232v133
q-117 -143 -360 -143q-174 0 -279 95q-104 97 -104 245t109 236t303 89h329v33z" />
    <glyph glyph-name="atilde" unicode="&#xe3;" horiz-adv-x="1200" 
d="M530 483q-117 1 -171 -33t-54 -110t56 -120t168 -44t199 58t97 149v100h-295zM264 1284q0 268 189 268q61 0 138 -56t105 -56q78 0 78 100h150q0 -268 -187 -268q-69 0 -143 56t-102 56q-76 0 -76 -100h-152zM825 688q-1 219 -277 219q-144 0 -304 -110l-97 164
q125 73 225 105t244 32q209 0 324 -102t117 -281l2 -715h-232v133q-117 -143 -360 -143q-174 0 -279 95q-104 97 -104 245t109 236t303 89h329v33z" />
    <glyph glyph-name="adieresis" unicode="&#xe4;" horiz-adv-x="1200" 
d="M651 1412q0 56 36 93t89 37t88 -37t35 -93t-35 -93t-88 -37t-89 37t-36 93zM530 483q-117 1 -171 -33t-54 -110t56 -120t168 -44t199 58t97 149v100h-295zM289 1412q0 56 36 93t89 37t88 -37t35 -93t-35 -93t-88 -37t-89 37t-36 93zM825 688q-1 219 -277 219
q-144 0 -304 -110l-97 164q125 73 225 105t244 32q209 0 324 -102t117 -281l2 -715h-232v133q-117 -143 -360 -143q-174 0 -279 95q-104 97 -104 245t109 236t303 89h329v33z" />
    <glyph glyph-name="aring" unicode="&#xe5;" horiz-adv-x="1200" 
d="M455 1403q0 -53 41 -92t98 -39t98 39t41 92t-41 92t-98 39t-98 -39t-41 -92zM352 1402q0 97 71 168q71 70 171 70t171 -70t71 -168q0 -97 -71 -167t-171 -70t-171 70t-71 167zM530 483q-117 1 -171 -33t-54 -110t56 -120t168 -44t199 58t97 149v100h-295zM825 688
q-1 219 -277 219q-144 0 -304 -110l-97 164q125 73 225 105t244 32q209 0 324 -102t117 -281l2 -715h-232v133q-117 -143 -360 -143q-174 0 -279 95q-104 97 -104 245t109 236t303 89h329v33z" />
    <glyph glyph-name="ae" unicode="&#xe6;" horiz-adv-x="1994" 
d="M1391 926q-131 0 -219 -85t-105 -220h625q-4 135 -87 220t-214 85zM543 500q-115 0 -177 -42t-61 -122t59 -130t154 -50q238 0 330 227l45 -39q-6 18 -14 55l-48 11v90h-288zM84 318q0 146 109 226t305 83h331v61q0 104 -67 162q-68 57 -195 57q-174 0 -360 -110l-60 170
q240 131 469 131q270 0 383 -164q145 164 393 164t396 -167t139 -437h-860q17 -144 111 -228t233 -84q184 0 307 127l127 -133q-172 -184 -452 -184q-160 0 -280 68t-183 194q-131 -264 -465 -264q-174 0 -278 91q-103 91 -103 237z" />
    <glyph glyph-name="ccedilla" unicode="&#xe7;" horiz-adv-x="1155" 
d="M647 -102q144 -26 144 -174q-1 -76 -63 -130t-160 -53q-98 0 -175 58l45 110q54 -41 108 -41t80 26t26 58t-26 56q-26 22 -67 22t-78 -10l74 176q-217 20 -350 170t-133 388t152 390q152 154 397 154q295 0 450 -178l-129 -152q-123 125 -311 123q-141 0 -233 -97
t-91 -251q0 -154 91 -251t233 -97q209 0 321 131l131 -131q-135 -178 -389 -199z" />
    <glyph glyph-name="egrave" unicode="&#xe8;" horiz-adv-x="1204" 
d="M305 627h623q-6 131 -88 207t-213 76t-217 -76t-105 -207zM279 1448l241 102l217 -303h-209zM72 543q0 245 154 399t397 156q281 0 407 -169t103 -474h-824q29 -127 119 -200t219 -73q184 0 307 127l125 -133q-168 -184 -435 -184t-420 152q-152 153 -152 399z" />
    <glyph glyph-name="eacute" unicode="&#xe9;" horiz-adv-x="1204" 
d="M473 1245l217 303l242 -102l-250 -201h-209zM305 627h623q-6 131 -88 207t-213 76t-217 -76t-105 -207zM72 543q0 245 154 399t397 156q281 0 407 -169t103 -474h-824q29 -127 119 -200t219 -73q184 0 307 127l125 -133q-168 -184 -435 -184t-420 152q-152 153 -152 399z
" />
    <glyph glyph-name="ecircumflex" unicode="&#xea;" horiz-adv-x="1204" 
d="M305 627h623q-6 131 -88 207t-213 76t-217 -76t-105 -207zM293 1251l211 289h217l211 -289h-193l-127 181l-127 -181h-192zM72 543q0 245 154 399t397 156q281 0 407 -169t103 -474h-824q29 -127 119 -200t219 -73q184 0 307 127l125 -133q-168 -184 -435 -184t-420 152
q-152 153 -152 399z" />
    <glyph glyph-name="edieresis" unicode="&#xeb;" horiz-adv-x="1204" 
d="M670 1412q0 56 36 93t89 37t88 -37t35 -93t-35 -93t-88 -37t-89 37t-36 93zM307 1412q0 56 36 93t89 37t88 -37t35 -93t-35 -93t-88 -37t-89 37t-36 93zM305 627h623q-6 131 -88 207t-213 76t-217 -76t-105 -207zM72 543q0 245 154 399t397 156q281 0 407 -169t103 -474
h-824q29 -127 119 -200t219 -73q184 0 307 127l125 -133q-168 -184 -435 -184t-420 152q-152 153 -152 399z" />
    <glyph glyph-name="igrave" unicode="&#xec;" horiz-adv-x="581" 
d="M174 0v1090h234v-1090h-234zM-41 1448l242 102l217 -303h-209z" />
    <glyph glyph-name="iacute" unicode="&#xed;" horiz-adv-x="581" 
d="M174 0v1090h234v-1090h-234zM154 1245l217 303l241 -102l-250 -201h-208z" />
    <glyph glyph-name="icircumflex" unicode="&#xee;" horiz-adv-x="581" 
d="M174 0v1090h234v-1090h-234zM-29 1251l211 289h217l211 -289h-192l-127 181l-127 -181h-193z" />
    <glyph glyph-name="idieresis" unicode="&#xef;" horiz-adv-x="581" 
d="M348 1412q0 56 36 93t89 37t88 -37t35 -93t-35 -93t-88 -37t-89 37t-36 93zM174 0v1090h234v-1090h-234zM-14 1412q0 56 36 93t89 37t88 -37t35 -93t-36 -93q-34 -37 -87 -37t-89 37t-36 93z" />
    <glyph glyph-name="eth" unicode="&#xf0;" horiz-adv-x="1208" 
d="M299 470q0 -122 80 -197t214 -75t215 72t81 195t-81 197t-215 74t-214 -72t-80 -194zM74 455q0 209 127 331t338 121q117 0 216 -45t148 -121q-68 221 -285 424l-311 -102l-39 123l236 78q-131 100 -252 157l156 109q172 -78 313 -195l272 90l37 -122l-201 -66
q309 -315 310 -694q0 -252 -153 -403q-153 -150 -395 -150t-380 128q-137 128 -137 337z" />
    <glyph glyph-name="ntilde" unicode="&#xf1;" horiz-adv-x="1357" 
d="M379 1284q0 268 188 268q61 0 139 -56t105 -56q78 0 78 100h149q0 -268 -186 -268q-68 0 -142 56t-104 56q-76 0 -76 -100h-151zM174 0v1090h236v-209q111 217 401 217q190 0 298 -112t108 -308v-678h-236v612q0 123 -70 194q-71 71 -197 70t-209 -83t-95 -213v-580h-236
z" />
    <glyph glyph-name="ograve" unicode="&#xf2;" horiz-adv-x="1280" 
d="M307 1448l242 102l217 -303h-209zM640 895q-146 0 -240 -98t-93 -255q0 -157 93 -255q92 -99 240 -99t240 98t93 256q0 157 -93 255q-94 98 -240 98zM72 546q0 248 158 400t410 152q253 0 411 -153q157 -153 157 -399t-158 -401q-158 -153 -410 -153q-253 0 -411 153
q-157 154 -157 401z" />
    <glyph glyph-name="oacute" unicode="&#xf3;" horiz-adv-x="1280" 
d="M502 1245l217 303l242 -102l-250 -201h-209zM640 895q-146 0 -240 -98t-93 -255q0 -157 93 -255q92 -99 240 -99t240 98t93 256q0 157 -93 255q-94 98 -240 98zM72 546q0 248 158 400t410 152q253 0 411 -153q157 -153 157 -399t-158 -401q-158 -153 -410 -153
q-253 0 -411 153q-157 154 -157 401z" />
    <glyph glyph-name="ocircumflex" unicode="&#xf4;" horiz-adv-x="1280" 
d="M322 1251l210 289h218l211 -289h-193l-127 181l-127 -181h-192zM640 895q-146 0 -240 -98t-93 -255q0 -157 93 -255q92 -99 240 -99t240 98t93 256q0 157 -93 255q-94 98 -240 98zM72 546q0 248 158 400t410 152q253 0 411 -153q157 -153 157 -399t-158 -401
q-158 -153 -410 -153q-253 0 -411 153q-157 154 -157 401z" />
    <glyph glyph-name="otilde" unicode="&#xf5;" horiz-adv-x="1280" 
d="M309 1284q0 268 189 268q61 0 138 -56t105 -56q78 0 78 100h150q0 -268 -187 -268q-68 0 -142 56t-103 56q-76 0 -76 -100h-152zM640 895q-146 0 -240 -98t-93 -255q0 -157 93 -255q92 -99 240 -99t240 98t93 256q0 157 -93 255q-94 98 -240 98zM72 546q0 248 158 400
t410 152q253 0 411 -153q157 -153 157 -399t-158 -401q-158 -153 -410 -153q-253 0 -411 153q-157 154 -157 401z" />
    <glyph glyph-name="odieresis" unicode="&#xf6;" horiz-adv-x="1280" 
d="M698 1412q0 56 36 93t89 37t88 -37t35 -93t-35 -93t-88 -37t-89 37t-36 93zM336 1412q0 56 36 93t89 37t88 -37t35 -93t-35 -93t-88 -37t-89 37t-36 93zM640 895q-146 0 -240 -98t-93 -255q0 -157 93 -255q92 -99 240 -99t240 98t93 256q0 157 -93 255q-94 98 -240 98z
M72 546q0 248 158 400t410 152q253 0 411 -153q157 -153 157 -399t-158 -401q-158 -153 -410 -153q-253 0 -411 153q-157 154 -157 401z" />
    <glyph glyph-name="divide" unicode="&#xf7;" horiz-adv-x="1019" 
d="M375 1041q0 55 35 93t88 38t89 -38q36 -36 36 -92t-36 -94q-36 -37 -89 -37t-88 37t-35 93zM375 314q0 56 35 94t88 36q53 0 89 -36t36 -94q0 -56 -36 -93t-89 -37t-88 37t-35 93zM72 584v161h876v-161h-876z" />
    <glyph glyph-name="oslash" unicode="&#xf8;" horiz-adv-x="1280" 
d="M641 170q154 0 250 103t96 270q0 115 -49 203t-135 133l-228 -703q31 -6 66 -6zM295 543q0 -117 49 -205t135 -131l228 702q-31 6 -66 6q-154 0 -250 -103t-96 -269zM72 545q0 249 158 401t411 152q57 0 123 -11l88 275h106l-96 -301q160 -57 253 -193t93 -323
q0 -246 -158 -400t-409 -153q-59 0 -121 10l-98 -301h-107l107 328q-162 57 -256 193t-94 323z" />
    <glyph glyph-name="ugrave" unicode="&#xf9;" horiz-adv-x="1337" 
d="M330 1448l241 102l217 -303h-208zM139 412v678h236v-613q-1 -123 67 -193t196 -70q128 1 209 96t81 243v537h235v-1090h-235v213q-106 -217 -389 -221q-186 0 -293 112t-107 308z" />
    <glyph glyph-name="uacute" unicode="&#xfa;" horiz-adv-x="1337" 
d="M524 1245l217 303l242 -102l-250 -201h-209zM139 412v678h236v-613q-1 -123 67 -193t196 -70q128 1 209 96t81 243v537h235v-1090h-235v213q-106 -217 -389 -221q-186 0 -293 112t-107 308z" />
    <glyph glyph-name="ucircumflex" unicode="&#xfb;" horiz-adv-x="1337" 
d="M342 1251l211 289h217l211 -289h-193l-126 181l-127 -181h-193zM139 412v678h236v-613q-1 -123 67 -193t196 -70q128 1 209 96t81 243v537h235v-1090h-235v213q-106 -217 -389 -221q-186 0 -293 112t-107 308z" />
    <glyph glyph-name="udieresis" unicode="&#xfc;" horiz-adv-x="1337" 
d="M719 1412q0 56 36 93t89 37t88 -37t35 -93t-35 -93t-88 -37t-89 37t-36 93zM356 1412q0 56 36 93t89 37t88 -37t35 -93t-35 -93t-88 -37t-89 37t-36 93zM139 412v678h236v-613q-1 -123 67 -193t196 -70q128 1 209 96t81 243v537h235v-1090h-235v213q-106 -217 -389 -221
q-186 0 -293 112t-107 308z" />
    <glyph glyph-name="yacute" unicode="&#xfd;" horiz-adv-x="1087" 
d="M410 1245l217 303l241 -102l-250 -201h-208zM248 -408q-141 0 -252 93l100 182q74 -53 142 -53q111 0 165 120l37 82l-450 1074h243l326 -826l303 826h236l-496 -1240q-102 -258 -354 -258z" />
    <glyph glyph-name="thorn" unicode="&#xfe;" horiz-adv-x="1392" 
d="M752 901q-144 0 -238 -99t-94 -255t93 -255t239 -99t238 99q93 99 93 255t-93 255t-238 99zM184 -397v1917h236v-619q124 197 368 197t388 -155t145 -401q0 -246 -141 -399q-141 -152 -375 -151q-262 0 -385 196v-585h-236z" />
    <glyph glyph-name="ydieresis" unicode="&#xff;" horiz-adv-x="1087" 
d="M604 1412q0 56 36 93t89 37t88 -37t35 -93t-35 -93t-88 -37t-89 37t-36 93zM242 1412q0 56 36 93t89 37t88 -37t35 -93t-36 -93q-34 -37 -87 -37t-89 37t-36 93zM248 -408q-141 0 -252 93l100 182q74 -53 142 -53q111 0 165 120l37 82l-450 1074h243l326 -826l303 826
h236l-496 -1240q-102 -258 -354 -258z" />
    <glyph glyph-name="Amacron" unicode="&#x100;" horiz-adv-x="1511" 
d="M496 1657v170h522v-170h-522zM481 539h541l-270 637zM2 0l633 1434h248l626 -1434h-258l-137 324h-723l-137 -324h-252z" />
    <glyph glyph-name="amacron" unicode="&#x101;" horiz-adv-x="1200" 
d="M334 1313v170h522v-170h-522zM530 483q-117 1 -171 -33t-54 -110t56 -120t168 -44t199 58t97 149v100h-295zM825 688q-1 219 -277 219q-144 0 -304 -110l-97 164q125 73 225 105t244 32q209 0 324 -102t117 -281l2 -715h-232v133q-117 -143 -360 -143q-174 0 -279 95
q-104 97 -104 245t109 236t303 89h329v33z" />
    <glyph glyph-name="Abreve" unicode="&#x102;" horiz-adv-x="1511" 
d="M481 539h541l-270 637zM756 1743q53 0 89 37t40 96h159q-4 -129 -85 -210t-203 -81t-204 81q-81 81 -85 210h160q4 -59 40 -96t89 -37zM2 0l633 1434h248l626 -1434h-258l-137 324h-723l-137 -324h-252z" />
    <glyph glyph-name="abreve" unicode="&#x103;" horiz-adv-x="1200" 
d="M594 1399q53 0 89 37t40 96h160q-4 -129 -85 -210t-204 -81t-204 81t-85 210h160q4 -59 40 -96t89 -37zM530 483q-117 1 -171 -33t-54 -110t56 -120t168 -44t199 58t97 149v100h-295zM825 688q-1 219 -277 219q-144 0 -304 -110l-97 164q125 73 225 105t244 32
q209 0 324 -102t117 -281l2 -715h-232v133q-117 -143 -360 -143q-174 0 -279 95q-104 97 -104 245t109 236t303 89h329v33z" />
    <glyph glyph-name="Aogonek" unicode="&#x104;" horiz-adv-x="1511" 
d="M479 537h549l-274 639zM1405 -281q49 0 100 66l68 -80q-72 -117 -195 -117q-66 0 -114 41t-47 130q0 89 106 241h-70l-139 324h-721l-139 -324h-252l633 1434h250l626 -1434h-67q-100 -141 -100 -211t61 -70z" />
    <glyph glyph-name="aogonek" unicode="&#x105;" horiz-adv-x="1208" 
d="M530 483q-119 1 -172 -33t-53 -110t56 -120t166 -44t203 62t97 143v102h-297zM84 330q0 148 109 236t301 89h331v33q-4 219 -262 219q-158 0 -319 -110l-97 164q125 73 223 105t246 32q209 0 324 -102t119 -281v-715h-70q-102 -141 -102 -211t61 -70q49 0 101 66l67 -80
q-74 -117 -194 -117q-66 0 -114 40t-48 133t110 239h-43v133q-117 -143 -360 -143q-174 0 -279 95q-104 97 -104 245z" />
    <glyph glyph-name="Cacute" unicode="&#x106;" horiz-adv-x="1427" 
d="M625 1589l217 303l241 -102l-249 -201h-209zM70 717q0 307 218 515t535 208q152 0 296 -58t249 -163l-141 -177q-79 84 -185 134t-215 49q-215 -1 -363 -147t-148 -358t148 -358t367 -147q219 0 396 170l143 -160q-111 -109 -258 -172t-297 -63q-315 0 -530 210t-215 517
z" />
    <glyph glyph-name="cacute" unicode="&#x107;" horiz-adv-x="1155" 
d="M451 1245l217 303l241 -102l-250 -201h-208zM72 544q0 246 152 400t397 154q295 0 450 -178l-129 -152q-123 125 -311 123q-141 0 -233 -97t-91 -251q0 -154 91 -251t233 -97q209 0 321 131l131 -131q-154 -203 -462 -203q-244 0 -397 152q-152 153 -152 400z" />
    <glyph glyph-name="Ccaron" unicode="&#x10c;" horiz-adv-x="1427" 
d="M418 1884h209l129 -190l129 190h209l-222 -307h-233zM70 717q0 307 218 515t535 208q152 0 296 -58t249 -163l-141 -177q-79 84 -185 134t-215 49q-215 -1 -363 -147t-148 -358t148 -358t367 -147q219 0 396 170l143 -160q-111 -109 -258 -172t-297 -63q-315 0 -530 210
t-215 517z" />
    <glyph glyph-name="ccaron" unicode="&#x10d;" horiz-adv-x="1155" 
d="M246 1540h209l129 -190l129 190h209l-222 -307h-233zM72 544q0 246 152 400t397 154q295 0 450 -178l-129 -152q-123 125 -311 123q-141 0 -233 -97t-91 -251q0 -154 91 -251t233 -97q209 0 321 131l131 -131q-154 -203 -462 -203q-244 0 -397 152q-152 153 -152 400z
" />
    <glyph glyph-name="Dcaron" unicode="&#x10e;" horiz-adv-x="1587" 
d="M430 217h352q211 0 352 140q140 139 140 357t-144 360t-358 143h-342v-1000zM403 1884h209l129 -190l129 190h209l-221 -307h-233zM188 0v1434h588q322 0 532 -203t210 -514t-211 -514t-537 -203h-582z" />
    <glyph glyph-name="dcaron" unicode="&#x10f;" horiz-adv-x="1472" 
d="M1460 1403q53 0 90 -36t37 -93t-37 -111l-116 -176h-121l78 178q-55 37 -55 101t35 100q36 37 89 37zM977 542q0 157 -93 257q-92 100 -240 100t-242 -100t-93 -257q0 -157 93 -256q92 -100 240 -100t242 100t93 256zM72 547q0 249 143 401t375 152q262 0 387 -199v619
h235v-1520h-235v186q-121 -197 -383 -196q-233 0 -378 154q-144 155 -144 403z" />
    <glyph glyph-name="Dcroat" unicode="&#x110;" horiz-adv-x="1587" 
d="M487 1657v170h523v-170h-523zM430 217h352q211 0 352 140q140 139 140 357t-144 360t-358 143h-342v-1000zM188 0v1434h588q322 0 532 -203t210 -514t-211 -514t-537 -203h-582z" />
    <glyph glyph-name="dcroat" unicode="&#x111;" horiz-adv-x="1390" 
d="M977 542q0 157 -93 257q-92 100 -240 100t-242 -100t-93 -257q0 -157 93 -256q92 -100 240 -100t242 100t93 256zM72 547q0 249 143 401t375 152q262 0 387 -199v361h-203v135h203v123h235v-123h142v-135h-142v-1262h-235v186q-121 -197 -383 -196q-233 0 -378 154
q-144 155 -144 403z" />
    <glyph glyph-name="Emacron" unicode="&#x112;" horiz-adv-x="1343" 
d="M444 1657v170h523v-170h-523zM188 0v1434h1024v-217h-782v-388h700v-217h-700v-395h807v-217h-1049z" />
    <glyph glyph-name="emacron" unicode="&#x113;" horiz-adv-x="1204" 
d="M350 1313v170h522v-170h-522zM305 627h623q-6 131 -88 207t-213 76t-217 -76t-105 -207zM72 543q0 245 154 399t397 156q281 0 407 -169t103 -474h-824q29 -127 119 -200t219 -73q184 0 307 127l125 -133q-168 -184 -435 -184t-420 152q-152 153 -152 399z" />
    <glyph glyph-name="Edotaccent" unicode="&#x116;" horiz-adv-x="1343" 
d="M567 1746q0 62 39 102q38 40 98 40t99 -40t39 -102t-39 -102t-98 -40t-99 40q-39 40 -39 102zM188 0v1434h1024v-217h-782v-388h700v-217h-700v-395h807v-217h-1049z" />
    <glyph glyph-name="edotaccent" unicode="&#x117;" horiz-adv-x="1204" 
d="M612 1544q58 0 98 -40t40 -102t-39 -102t-99 -40t-98 40q-39 40 -39 102t39 102t98 40zM305 627h623q-6 131 -88 207t-213 76t-217 -76t-105 -207zM72 543q0 245 154 399t397 156q281 0 407 -169t103 -474h-824q29 -127 119 -200t219 -73q184 0 307 127l125 -133
q-168 -184 -435 -184t-420 152q-152 153 -152 399z" />
    <glyph glyph-name="Eogonek" unicode="&#x118;" horiz-adv-x="1361" 
d="M188 0v1434h1043v-201h-801v-406h719v-198h-719v-428h825v-201h-135q-102 -141 -102 -215q0 -31 17 -48t44 -18q51 0 103 66l67 -80q-78 -117 -196 -117q-66 0 -113 41t-47 131t106 240h-811z" />
    <glyph glyph-name="eogonek" unicode="&#x119;" horiz-adv-x="1204" 
d="M627 909q-131 1 -221 -77t-101 -205h623q-6 127 -88 205t-213 77zM72 543q0 243 145 395t409 159t397 -165q132 -172 112 -477h-826q29 -127 116 -201t222 -74q182 0 307 129l125 -133q-213 -252 -213 -387q0 -70 62 -70q49 0 98 66l68 -80q-76 -117 -193 -117
q-68 0 -115 40t-47 122q0 133 129 307q-111 -66 -250 -65q-242 0 -394 154t-152 397z" />
    <glyph glyph-name="Ecaron" unicode="&#x11a;" horiz-adv-x="1343" 
d="M360 1884h209l129 -190l129 190h209l-221 -307h-233zM188 0v1434h1024v-217h-782v-388h700v-217h-700v-395h807v-217h-1049z" />
    <glyph glyph-name="ecaron" unicode="&#x11b;" horiz-adv-x="1204" 
d="M305 627h623q-6 131 -88 207t-213 76t-217 -76t-105 -207zM268 1540h209l129 -190l129 190h209l-221 -307h-234zM72 543q0 245 154 399t397 156q281 0 407 -169t103 -474h-824q29 -127 119 -200t219 -73q184 0 307 127l125 -133q-168 -184 -435 -184t-420 152
q-152 153 -152 399z" />
    <glyph glyph-name="Gbreve" unicode="&#x11e;" horiz-adv-x="1533" 
d="M792 1743q54 0 90 37t40 96h159q-4 -129 -85 -210q-82 -81 -204 -81t-203 81t-85 210h160q4 -59 40 -96q34 -37 88 -37zM70 717q0 307 221 515t547 208q152 0 298 -54t253 -147l-138 -178q-176 164 -404 164q-228 1 -380 -147t-152 -362t153 -362t372 -147q166 0 329 98
v400h211v-529q-112 -84 -262 -135t-295 -51q-317 0 -535 210t-218 517z" />
    <glyph glyph-name="gbreve" unicode="&#x11f;" horiz-adv-x="1310" 
d="M655 1399q53 0 89 37t40 96h160q-4 -129 -85 -210t-204 -81t-203 81t-85 210h159q4 -59 40 -96t89 -37zM608 238q139 0 228 94q88 94 88 241t-87 241t-227 93q-140 1 -227 -93q-88 -94 -88 -241t87 -241t226 -94zM72 578q0 234 133 375q133 142 350 145q250 2 369 -185
v177h233v-984q1 -233 -153 -371t-404 -138t-461 143l101 170q160 -119 329 -119t261 84t94 225v138q-114 -184 -348 -184t-369 144q-135 146 -135 380z" />
    <glyph glyph-name="Gcommaaccent" unicode="&#x122;" horiz-adv-x="1533" 
d="M678 -238q0 64 36 101t89 37t90 -36t37 -92t-37 -110l-117 -176h-121l78 176q-55 36 -55 100zM70 717q0 307 221 515t547 208q152 0 298 -54t253 -147l-138 -178q-176 164 -404 164q-228 1 -380 -147t-152 -362t153 -362t372 -147q166 0 329 98v400h211v-529
q-112 -84 -262 -135t-295 -51q-317 0 -535 210t-218 517z" />
    <glyph glyph-name="gcommaaccent" unicode="&#x123;" horiz-adv-x="1310" 
d="M518 1318q0 56 37 109l117 177h121l-78 -177q55 -37 55 -100t-36 -100t-89 -37t-90 36t-37 92zM608 238q139 0 228 94q88 94 88 241t-87 241t-227 93q-140 1 -227 -93q-88 -94 -88 -241t87 -241t226 -94zM72 578q0 234 133 375q133 142 350 145q250 2 369 -185v177h233
v-984q1 -233 -153 -371t-404 -138t-461 143l101 170q160 -119 329 -119t261 84t94 225v138q-114 -184 -348 -184t-369 144q-135 146 -135 380z" />
    <glyph glyph-name="hbar" unicode="&#x127;" horiz-adv-x="1669" 
d="M12 1206v142h172v172h236v-172h289v-142h-289v-329q113 221 403 221q190 0 298 -112t108 -308v-678h-236v612q0 123 -69 194q-70 71 -203 70q-133 0 -217 -96t-84 -243v-537h-236v1206h-172z" />
    <glyph glyph-name="Itilde" unicode="&#x128;" horiz-adv-x="618" 
d="M188 0v1434h242v-1434h-242zM-20 1628q0 268 188 268q61 0 138 -56t106 -56q78 0 77 100h150q0 -268 -186 -268q-68 0 -143 56t-103 57q-76 0 -76 -101h-151z" />
    <glyph glyph-name="itilde" unicode="&#x129;" horiz-adv-x="581" 
d="M174 0v1090h234v-1090h-234zM-39 1284q0 268 189 268q61 0 138 -56t105 -56q78 0 78 100h150q0 -268 -187 -268q-68 0 -142 56t-104 56q-76 0 -75 -100h-152z" />
    <glyph glyph-name="Imacron" unicode="&#x12a;" horiz-adv-x="618" 
d="M188 0v1434h242v-1434h-242zM49 1657v170h522v-170h-522z" />
    <glyph glyph-name="imacron" unicode="&#x12b;" horiz-adv-x="581" 
d="M174 0v1090h234v-1090h-234zM31 1313v170h522v-170h-522z" />
    <glyph glyph-name="Iogonek" unicode="&#x12e;" horiz-adv-x="618" 
d="M281 -210q0 -69 59 -71q51 0 102 66l68 -80q-74 -117 -195 -117q-65 0 -113 40t-48 130t106 242h-72v1434h242v-1434h-49q-100 -141 -100 -210z" />
    <glyph glyph-name="iogonek" unicode="&#x12f;" horiz-adv-x="546" 
d="M139 1401q0 63 39 103t98 40q58 0 98 -40t40 -103t-39 -103t-99 -41q-60 1 -98 41q-39 40 -39 103zM119 -242q0 90 106 242h-65v1090h235v-1090h-49q-100 -141 -100 -211t61 -70q49 0 101 66l67 -80q-74 -117 -194 -117q-66 0 -114 40t-48 130z" />
    <glyph glyph-name="Idotaccent" unicode="&#x130;" horiz-adv-x="618" 
d="M188 0v1434h242v-1434h-242zM172 1746q0 62 39 102t98 40t99 -40t38 -102q0 -62 -38 -102t-98 -40t-99 40t-39 102z" />
    <glyph glyph-name="dotlessi" unicode="&#x131;" horiz-adv-x="581" 
d="M174 0v1090h234v-1090h-234z" />
    <glyph glyph-name="IJ" unicode="&#x132;" horiz-adv-x="1640" 
d="M1034 223q98 1 152 59t53 169v766h-496v217h740v-992q0 -216 -119 -334t-328 -118q-254 0 -422 207l115 184q145 -158 305 -158zM188 0v1434h242v-1434h-242z" />
    <glyph glyph-name="ij" unicode="&#x133;" horiz-adv-x="1169" 
d="M871 1544q61 0 103 -40t42 -102t-41 -104t-103 -41q-62 -1 -104 41q-41 42 -41 104t41 102t103 40zM618 -201q64 0 100 37t36 111v1143h233v-1121q0 -182 -104 -279q-103 -98 -239 -98t-236 74l77 182q69 -49 133 -49zM174 0v1090h234v-1090h-234zM428 1402
q0 -62 -39 -102t-98 -40t-98 40t-39 102t39 102t98 40t98 -40t39 -102z" />
    <glyph glyph-name="Jcircumflex" unicode="&#x134;" horiz-adv-x="1021" 
d="M168 1595l211 289h217l211 -289h-193l-127 181l-127 -181h-192zM416 223q98 1 151 59t54 169v766h-496v217h739v-992q0 -216 -119 -334t-327 -118q-254 0 -422 207l115 184q145 -158 305 -158z" />
    <glyph glyph-name="jcircumflex" unicode="&#x135;" horiz-adv-x="561" 
d="M-39 1251l211 289h217l211 -289h-192l-127 181l-127 -181h-193zM172 -14v1104h236v-1139q0 -172 -88 -265q-88 -92 -242 -90q-153 2 -264 72l59 172q70 -45 147 -48q152 -6 152 194z" />
    <glyph glyph-name="Kcommaaccent" unicode="&#x136;" horiz-adv-x="1470" 
d="M733 -100q53 0 90 -36t37 -92t-37 -110l-116 -176h-121l78 176q-56 36 -56 100t36 101t89 37zM188 0v1434h242v-742l684 742h285l-555 -613l592 -821h-291l-471 633l-244 -268v-365h-242z" />
    <glyph glyph-name="kcedilla" unicode="&#x137;" horiz-adv-x="1218" 
d="M198 -326q56 0 86 28t28 68t-28 64q-28 24 -58 25q-30 0 -79 -6l70 147h-33v1520h236v-918l481 488h270l-403 -422l434 -668h-278l-320 500l-184 -195v-305h-66l-47 -96q63 -10 103 -54t41 -118t-61 -129t-162 -55t-177 55l47 110q44 -39 100 -39z" />
    <glyph glyph-name="kgreenlandic" unicode="&#x138;" horiz-adv-x="1208" 
d="M174 0v1090h234v-488l483 488h270l-403 -422l434 -668h-279l-317 500l-188 -197v-303h-234z" />
    <glyph glyph-name="Lacute" unicode="&#x139;" horiz-adv-x="1093" 
d="M188 0v1434h242v-1215h621v-219h-863zM176 1589l217 303l242 -102l-250 -201h-209z" />
    <glyph glyph-name="lacute" unicode="&#x13a;" horiz-adv-x="604" 
d="M184 0v1520h236v-1520h-236zM166 1675l217 303l242 -102l-250 -201h-209z" />
    <glyph glyph-name="Lcommaaccent" unicode="&#x13b;" horiz-adv-x="1093" 
d="M604 -100q53 0 90 -36t37 -92t-37 -110l-116 -176h-121l78 176q-55 36 -55 100t35 101q36 37 89 37zM188 0v1434h242v-1215h621v-219h-863z" />
    <glyph glyph-name="lcommaaccent" unicode="&#x13c;" horiz-adv-x="604" 
d="M184 0v1520h236v-1520h-236zM313 -100q53 0 90 -36t37 -92t-37 -110l-116 -176h-121l78 176q-56 36 -56 100t36 101t89 37z" />
    <glyph glyph-name="Lcaron" unicode="&#x13d;" horiz-adv-x="1093" 
d="M770 1233q0 63 36 100t89 37t90 -36t37 -93t-37 -111l-117 -176h-120l77 179q-55 37 -55 100zM188 0v1434h242v-1215h621v-219h-863z" />
    <glyph glyph-name="lcaron" unicode="&#x13e;" horiz-adv-x="655" 
d="M518 1266q0 64 36 100q36 37 89 37t90 -36t37 -93t-37 -111l-117 -176h-120l77 178q-55 37 -55 101zM184 0v1520h236v-1520h-236z" />
    <glyph glyph-name="Ldot" unicode="&#x13f;" horiz-adv-x="1093" 
d="M688 952q0 58 35 94t88 36t88 -36t35 -94t-35 -94q-35 -37 -88 -37t-88 37t-35 94zM188 0v1434h242v-1215h621v-219h-863z" />
    <glyph glyph-name="ldot" unicode="&#x140;" horiz-adv-x="681" 
d="M496 634q0 56 35 94q37 38 91 38t90 -38t36 -94t-36 -93t-90 -37t-91 37q-35 37 -35 93zM184 0v1520h236v-1520h-236z" />
    <glyph glyph-name="Lslash" unicode="&#x141;" horiz-adv-x="1128" 
d="M223 1434h240v-441l328 97l40 -158l-368 -109v-604h622v-219h-862v754l-170 -49l-41 155l211 62v512z" />
    <glyph glyph-name="lslash" unicode="&#x142;" horiz-adv-x="634" 
d="M219 1520h236v-488l194 58l41 -158l-235 -70v-862h-236v795l-221 -66l-41 156l262 78v557z" />
    <glyph glyph-name="Nacute" unicode="&#x143;" horiz-adv-x="1622" 
d="M674 1589l217 303l242 -102l-250 -201h-209zM188 0v1434h238l768 -1031v1031h238v-1434h-238l-764 1028v-1028h-242z" />
    <glyph glyph-name="nacute" unicode="&#x144;" horiz-adv-x="1357" 
d="M571 1245l217 303l242 -102l-250 -201h-209zM174 0v1090h236v-209q111 217 401 217q190 0 298 -112t108 -308v-678h-236v612q0 123 -70 194q-71 71 -197 70t-209 -83t-95 -213v-580h-236z" />
    <glyph glyph-name="Ncommaaccent" unicode="&#x145;" horiz-adv-x="1622" 
d="M821 -100q53 0 90 -36t37 -92t-37 -110l-116 -176h-121l78 176q-56 36 -56 100t36 101t89 37zM188 0v1434h238l768 -1031v1031h238v-1434h-238l-764 1028v-1028h-242z" />
    <glyph glyph-name="ncommaaccent" unicode="&#x146;" horiz-adv-x="1357" 
d="M698 -100q53 0 90 -36t37 -92t-37 -110l-116 -176h-121l78 176q-55 36 -55 100t35 101q36 37 89 37zM174 0v1090h236v-209q111 217 401 217q190 0 298 -112t108 -308v-678h-236v612q0 123 -70 194q-71 71 -197 70t-209 -83t-95 -213v-580h-236z" />
    <glyph glyph-name="Ncaron" unicode="&#x147;" horiz-adv-x="1622" 
d="M467 1884h209l129 -190l129 190h209l-221 -307h-234zM188 0v1434h238l768 -1031v1031h238v-1434h-238l-764 1028v-1028h-242z" />
    <glyph glyph-name="ncaron" unicode="&#x148;" horiz-adv-x="1357" 
d="M365 1540h208l129 -190l129 190h209l-221 -307h-233zM174 0v1090h236v-209q111 217 401 217q190 0 298 -112t108 -308v-678h-236v612q0 123 -70 194q-71 71 -197 70t-209 -83t-95 -213v-580h-236z" />
    <glyph glyph-name="Omacron" unicode="&#x14c;" horiz-adv-x="1658" 
d="M559 1657v170h522v-170h-522zM315 717q0 -213 153 -361q154 -148 364 -149q210 0 360 148q150 147 150 361t-150 360t-362 146t-364 -146t-151 -359zM70 717q0 307 219 515t541 208t540 -208q219 -208 219 -515t-219 -517t-541 -210q-323 0 -541 210t-218 517z" />
    <glyph glyph-name="omacron" unicode="&#x14d;" horiz-adv-x="1280" 
d="M379 1313v170h522v-170h-522zM640 895q-146 0 -240 -98t-93 -255q0 -157 93 -255q92 -99 240 -99t240 98t93 256q0 157 -93 255q-94 98 -240 98zM72 546q0 248 158 400t410 152q253 0 411 -153q157 -153 157 -399t-158 -401q-158 -153 -410 -153q-253 0 -411 153
q-157 154 -157 401z" />
    <glyph glyph-name="Ohungarumlaut" unicode="&#x150;" horiz-adv-x="1658" 
d="M858 1585l170 316l201 -91l-189 -225h-182zM520 1585l170 316l201 -91l-189 -225h-182zM315 717q0 -213 153 -361q154 -148 364 -149q210 0 360 148q150 147 150 361t-150 360t-362 146t-364 -146t-151 -359zM70 717q0 307 219 515t541 208t540 -208q219 -208 219 -515
t-219 -517t-541 -210q-323 0 -541 210t-218 517z" />
    <glyph glyph-name="ohungarumlaut" unicode="&#x151;" horiz-adv-x="1280" 
d="M680 1241l170 315l201 -90l-189 -225h-182zM342 1241l170 315l201 -90l-189 -225h-182zM640 895q-146 0 -240 -98t-93 -255q0 -157 93 -255q92 -99 240 -99t240 98t93 256q0 157 -93 255q-94 98 -240 98zM72 546q0 248 158 400t410 152q253 0 411 -153q157 -153 157 -399
t-158 -401q-158 -153 -410 -153q-253 0 -411 153q-157 154 -157 401z" />
    <glyph glyph-name="OE" unicode="&#x152;" horiz-adv-x="2246" 
d="M315 715q1 -213 149 -355t365 -143h263v997h-263q-217 0 -365 -143t-149 -356zM70 716q0 302 219 510t538 208h1289v-217h-783v-390h701v-215h-701v-395h807v-217h-1313q-319 0 -538 207t-219 509z" />
    <glyph glyph-name="oe" unicode="&#x153;" horiz-adv-x="2129" 
d="M1523 924q-133 0 -221 -83t-106 -220h631q-4 135 -88 219t-216 84zM640 895q-146 0 -240 -98t-93 -255q0 -157 93 -255q92 -99 240 -99t240 98t93 256q0 157 -93 255q-94 98 -240 98zM72 546q0 248 158 400t411 152q153 0 267 -64t177 -178q139 242 435 242
q254 0 402 -166t140 -438h-866q18 -144 112 -228t236 -84q182 0 309 127l125 -133q-172 -184 -466 -184t-427 241q-137 -242 -444 -241q-254 0 -412 153q-157 154 -157 401z" />
    <glyph glyph-name="Racute" unicode="&#x154;" horiz-adv-x="1480" 
d="M590 1589l217 303l242 -102l-250 -201h-209zM430 649h340q348 0 348 289q0 279 -348 279h-340v-568zM188 0v1434h582q274 0 426 -128t152 -362q0 -172 -77 -291t-220 -174l321 -479h-274l-262 434q-20 -2 -66 -2h-340v-432h-242z" />
    <glyph glyph-name="racute" unicode="&#x155;" horiz-adv-x="806" 
d="M279 1245l217 303l241 -102l-250 -201h-208zM174 0v1090h236v-218q113 225 376 226v-226q-162 8 -262 -76t-114 -227v-569h-236z" />
    <glyph glyph-name="Rcommaaccent" unicode="&#x156;" horiz-adv-x="1480" 
d="M623 -238q0 64 35 101q36 37 90 37t90 -36t36 -92t-36 -110l-117 -176h-121l78 176q-55 36 -55 100zM430 649h340q348 0 348 289q0 279 -348 279h-340v-568zM188 0v1434h582q274 0 426 -128t152 -362q0 -172 -77 -291t-220 -174l321 -479h-274l-262 434q-20 -2 -66 -2
h-340v-432h-242z" />
    <glyph glyph-name="rcommaaccent" unicode="&#x157;" horiz-adv-x="806" 
d="M174 0v1090h236v-218q113 225 376 226v-226q-162 8 -262 -76t-114 -227v-569h-236zM172 -238q0 64 36 101t89 37t90 -36t37 -92t-37 -110l-117 -176h-120l77 176q-55 36 -55 100z" />
    <glyph glyph-name="Rcaron" unicode="&#x158;" horiz-adv-x="1480" 
d="M430 649h340q348 0 348 289q0 279 -348 279h-340v-568zM383 1884h209l129 -190l129 190h209l-221 -307h-234zM188 0v1434h582q274 0 426 -128t152 -362q0 -172 -77 -291t-220 -174l321 -479h-274l-262 434q-20 -2 -66 -2h-340v-432h-242z" />
    <glyph glyph-name="rcaron" unicode="&#x159;" horiz-adv-x="806" 
d="M174 0v1090h236v-218q113 225 376 226v-226q-162 8 -262 -76t-114 -227v-569h-236zM72 1540h209l129 -190l129 190h209l-222 -307h-233z" />
    <glyph glyph-name="Sacute" unicode="&#x15a;" horiz-adv-x="1273" 
d="M516 1589l217 303l242 -102l-250 -201h-209zM648 219q122 0 193 46t71 124t-58 128q-57 50 -143 74q-87 23 -187 57t-186 72t-143 122t-58 202q-1 182 143 291t401 109t480 -148l-100 -213q-219 133 -420 134q-109 0 -171 -39t-62 -111t57 -122t143 -74q86 -23 186 -59
t187 -76q86 -40 142 -125t57 -205q0 -188 -151 -302t-390 -112q-163 0 -317 62t-269 165l105 209q108 -100 238 -154t252 -55z" />
    <glyph glyph-name="sacute" unicode="&#x15b;" horiz-adv-x="962" 
d="M356 1245l217 303l242 -102l-250 -201h-209zM486 176q184 0 184 117q0 61 -60 98t-143 60q-84 23 -168 53t-142 102q-58 70 -59 178q0 156 116 236t286 80q225 0 381 -111l-86 -174q-156 96 -315 96t-158 -108q0 -53 59 -88t144 -59t170 -56t145 -102q59 -72 59 -183
q0 -159 -120 -241t-298 -82q-123 0 -241 40t-197 111l84 168q70 -61 171 -98q102 -37 188 -37z" />
    <glyph glyph-name="Scedilla" unicode="&#x15e;" horiz-adv-x="1273" 
d="M702 -102q144 -26 144 -174q0 -76 -62 -130t-160 -53q-97 0 -175 58l45 110q53 -41 107 -41t80 26t26 58t-26 56q-26 22 -67 22t-77 -10l73 172q-321 12 -557 227l105 209q108 -100 238 -154t252 -55q122 0 193 46t71 124t-58 128q-57 50 -143 74q-87 23 -187 57t-186 72
t-143 122t-58 202q-1 182 143 291t401 109t480 -148l-100 -213q-219 133 -420 134q-109 0 -171 -39t-62 -111t57 -122t143 -74q86 -23 186 -59t187 -76q86 -40 142 -125t57 -205q0 -166 -117 -274t-313 -134z" />
    <glyph glyph-name="scedilla" unicode="&#x15f;" horiz-adv-x="962" 
d="M535 -102q143 -26 143 -174q0 -76 -62 -130t-160 -53q-97 0 -175 58l45 110q53 -41 107 -41t80 26t26 58t-26 56q-26 22 -67 22t-77 -10l73 174q-243 10 -399 149l84 168q70 -61 171 -98q102 -37 188 -37q184 0 184 117q0 61 -60 98t-143 60q-84 23 -168 53t-142 102
q-58 70 -59 178q0 156 116 236t286 80q225 0 381 -111l-86 -174q-156 96 -315 96t-158 -108q0 -53 59 -88t144 -59t170 -56t145 -102q59 -72 59 -195t-88 -203t-227 -100z" />
    <glyph glyph-name="Scaron" unicode="&#x160;" horiz-adv-x="1273" 
d="M309 1884h209l129 -190l129 190h209l-221 -307h-234zM648 219q122 0 193 46t71 124t-58 128q-57 50 -143 74q-87 23 -187 57t-186 72t-143 122t-58 202q-1 182 143 291t401 109t480 -148l-100 -213q-219 133 -420 134q-109 0 -171 -39t-62 -111t57 -122t143 -74
q86 -23 186 -59t187 -76q86 -40 142 -125t57 -205q0 -188 -151 -302t-390 -112q-163 0 -317 62t-269 165l105 209q108 -100 238 -154t252 -55z" />
    <glyph glyph-name="scaron" unicode="&#x161;" horiz-adv-x="962" 
d="M150 1540h208l129 -190l129 190h209l-221 -307h-233zM486 176q184 0 184 117q0 61 -60 98t-143 60q-84 23 -168 53t-142 102q-58 70 -59 178q0 156 116 236t286 80q225 0 381 -111l-86 -174q-156 96 -315 96t-158 -108q0 -53 59 -88t144 -59t170 -56t145 -102
q59 -72 59 -183q0 -159 -120 -241t-298 -82q-123 0 -241 40t-197 111l84 168q70 -61 171 -98q102 -37 188 -37z" />
    <glyph glyph-name="Tcedilla" unicode="&#x162;" horiz-adv-x="1185" 
d="M621 -102q143 -26 143 -174q0 -76 -62 -130t-160 -53q-97 0 -175 58l45 110q53 -41 107 -41t80 26t26 58t-26 56q-26 22 -67 22t-77 -10l75 180h-59v1217h-453v217h1149v-217h-454v-1217h-43z" />
    <glyph glyph-name="tcedilla" unicode="&#x163;" horiz-adv-x="833" 
d="M63 872v177h154v299h234v-299h321v-177h-321v-522q1 -82 29 -114t90 -33q62 0 161 47l60 -180q-90 -55 -187 -72l-47 -100q66 -12 105 -54q38 -42 38 -120q0 -76 -62 -130t-160 -53q-98 0 -175 58l45 110q54 -41 108 -41t80 26t26 58t-26 56q-26 22 -67 22t-78 -10
l74 174q-111 16 -179 95t-69 218v565h-154z" />
    <glyph glyph-name="Tcaron" unicode="&#x164;" horiz-adv-x="1185" 
d="M264 1884h209l129 -190l129 190h209l-221 -307h-234zM18 1217v217h1149v-217h-454v-1217h-242v1217h-453z" />
    <glyph glyph-name="tcaron" unicode="&#x165;" horiz-adv-x="782" 
d="M590 1478q0 64 36 101t89 37t90 -36t37 -93t-37 -111l-117 -176h-121l78 178q-55 36 -55 100zM63 872v177h154v299h234v-299h321v-177h-321v-522q1 -82 29 -114t90 -33q62 0 161 47l60 -180q-135 -80 -269 -80t-219 80q-86 80 -86 237v565h-154z" />
    <glyph glyph-name="Umacron" unicode="&#x16a;" horiz-adv-x="1564" 
d="M522 1657v170h522v-170h-522zM160 594v840h241v-840q-1 -180 103 -284t281 -103q177 0 279 102q101 102 101 285v840h242v-840q0 -280 -166 -442t-457 -162q-292 0 -458 162t-166 442z" />
    <glyph glyph-name="umacron" unicode="&#x16b;" horiz-adv-x="1337" 
d="M401 1313v170h523v-170h-523zM139 412v678h236v-613q-1 -123 67 -193t196 -70q128 1 209 96t81 243v537h235v-1090h-235v213q-106 -217 -389 -221q-186 0 -293 112t-107 308z" />
    <glyph glyph-name="Uring" unicode="&#x16e;" horiz-adv-x="1564" 
d="M643 1747q0 -53 41 -92t98 -39t99 39q41 39 41 92t-41 92t-99 39t-98 -39q-41 -39 -41 -92zM541 1746q0 97 70 168q71 71 171 71t171 -71t71 -168t-71 -167t-171 -70t-171 70q-70 70 -70 167zM160 594v840h241v-840q-1 -180 103 -284t281 -103q177 0 279 102
q101 102 101 285v840h242v-840q0 -280 -166 -442t-457 -162q-292 0 -458 162t-166 442z" />
    <glyph glyph-name="uring" unicode="&#x16f;" horiz-adv-x="1337" 
d="M522 1403q0 -53 41 -92t99 -39t98 39q41 39 41 92t-41 92t-98 39q-56 0 -98 -39t-42 -92zM420 1402q0 97 70 168q72 70 172 70t171 -70t71 -168q0 -97 -72 -167q-70 -70 -170 -70t-172 70q-70 70 -70 167zM139 412v678h236v-613q-1 -123 67 -193t196 -70q128 1 209 96
t81 243v537h235v-1090h-235v213q-106 -217 -389 -221q-186 0 -293 112t-107 308z" />
    <glyph glyph-name="Uhungarumlaut" unicode="&#x170;" horiz-adv-x="1564" 
d="M821 1585l170 316l201 -91l-188 -225h-183zM483 1585l170 316l201 -91l-188 -225h-183zM160 594v840h241v-840q-1 -180 103 -284t281 -103q177 0 279 102q101 102 101 285v840h242v-840q0 -280 -166 -442t-457 -162q-292 0 -458 162t-166 442z" />
    <glyph glyph-name="uhungarumlaut" unicode="&#x171;" horiz-adv-x="1337" 
d="M700 1241l170 315l201 -90l-188 -225h-183zM362 1241l170 315l201 -90l-188 -225h-183zM139 412v678h236v-613q-1 -123 67 -193t196 -70q128 1 209 96t81 243v537h235v-1090h-235v213q-106 -217 -389 -221q-186 0 -293 112t-107 308z" />
    <glyph glyph-name="Uogonek" unicode="&#x172;" horiz-adv-x="1566" 
d="M918 -412q-66 0 -114 40t-48 130t98 234q-23 -2 -70 -2q-292 0 -458 162t-166 442v840h239v-840q1 -180 105 -284t281 -103q177 0 279 102q101 102 101 285v840h242v-840q0 -225 -110 -376t-306 -204q-109 -158 -109 -225t60 -70q51 0 102 66l68 -80q-74 -117 -194 -117z
" />
    <glyph glyph-name="uogonek" unicode="&#x173;" horiz-adv-x="1327" 
d="M141 412v678h234v-613q1 -123 69 -193t191 -70q123 1 202 84t91 212v580h233v-1090h-51q-102 -137 -102 -209t61 -72q49 0 100 66l68 -80q-74 -117 -195 -117q-66 0 -114 41t-47 130q0 89 106 241h-59v203q-111 -207 -389 -211q-186 0 -292 112t-106 308z" />
    <glyph glyph-name="Wcircumflex" unicode="&#x174;" horiz-adv-x="2121" 
d="M752 1595l211 289h217l211 -289h-193l-127 181l-127 -181h-192zM6 1434h260l348 -1166l347 1164l237 2l348 -1166l346 1166h250l-479 -1434h-248l-340 1118l-344 -1118h-250z" />
    <glyph glyph-name="wcircumflex" unicode="&#x175;" horiz-adv-x="1828" 
d="M596 1251l211 289h217l211 -289h-193l-127 181l-127 -181h-192zM2 1090h242l282 -857l275 857h243l277 -857l278 857h240l-397 -1090h-244l-276 807l-277 -807h-242z" />
    <glyph glyph-name="Ycircumflex" unicode="&#x176;" horiz-adv-x="1304" 
d="M332 1595l211 289h217l211 -289h-193l-127 181l-127 -181h-192zM776 0h-239v469l-535 965h244l409 -699l402 699h246l-527 -957v-477z" />
    <glyph glyph-name="ycircumflex" unicode="&#x177;" horiz-adv-x="1087" 
d="M227 1251l211 289h217l211 -289h-192l-127 181l-127 -181h-193zM248 -408q-141 0 -252 93l100 182q74 -53 142 -53q111 0 165 120l37 82l-450 1074h243l326 -826l303 826h236l-496 -1240q-102 -258 -354 -258z" />
    <glyph glyph-name="Ydieresis" unicode="&#x178;" horiz-adv-x="1304" 
d="M709 1756q0 56 35 93q36 37 90 37t88 -37t34 -93t-34 -93t-88 -37q-53 0 -90 37q-35 37 -35 93zM346 1756q0 56 36 93t89 37t88 -37t35 -93t-35 -93t-88 -37t-89 37t-36 93zM776 0h-239v469l-535 965h244l409 -699l402 699h246l-527 -957v-477z" />
    <glyph glyph-name="Zacute" unicode="&#x179;" horiz-adv-x="1363" 
d="M563 1589l217 303l242 -102l-250 -201h-209zM76 0v174l874 1043h-848v217h1174v-174l-873 -1043h883v-217h-1210z" />
    <glyph glyph-name="zacute" unicode="&#x17a;" horiz-adv-x="1099" 
d="M412 1245l217 303l241 -102l-249 -201h-209zM111 897v193l895 -3v-157l-623 -737l641 -3v-192l-932 2v160l623 737h-604z" />
    <glyph glyph-name="Zdotaccent" unicode="&#x17b;" horiz-adv-x="1363" 
d="M563 1746q0 62 39 102t98 40q58 0 98 -40t40 -102t-39 -102t-99 -40t-98 40q-39 40 -39 102zM76 0v174l874 1043h-848v217h1174v-174l-873 -1043h883v-217h-1210z" />
    <glyph glyph-name="zdotaccent" unicode="&#x17c;" horiz-adv-x="1099" 
d="M686 1402q0 -62 -39 -102t-98 -40t-98 40t-39 102t39 102t98 40t98 -40t39 -102zM111 897v193l895 -3v-157l-623 -737l641 -3v-192l-932 2v160l623 737h-604z" />
    <glyph glyph-name="Zcaron" unicode="&#x17d;" horiz-adv-x="1363" 
d="M356 1884h209l129 -190l129 190h209l-221 -307h-233zM76 0v174l874 1043h-848v217h1174v-174l-873 -1043h883v-217h-1210z" />
    <glyph glyph-name="zcaron" unicode="&#x17e;" horiz-adv-x="1099" 
d="M205 1540h209l129 -190l129 190h209l-222 -307h-233zM111 897v193l895 -3v-157l-623 -737l641 -3v-192l-932 2v160l623 737h-604z" />
    <glyph glyph-name="florin" unicode="&#x192;" horiz-adv-x="761" 
d="M-244 -330l66 174q57 -51 130 -54q142 -6 163 183l100 813h-141l18 164h141l31 244q20 160 124 254t261 91q156 -3 264 -77l-84 -174q-69 53 -145 54t-128 -48t-62 -133l-27 -211h287l-19 -164h-286l-105 -847q-20 -162 -116 -255q-96 -92 -238 -90t-234 76z" />
    <glyph glyph-name="Scommaaccent" unicode="&#x218;" horiz-adv-x="1273" 
d="M657 -100q53 0 91 -36t36 -92q0 -56 -36 -110l-117 -176h-121l78 176q-56 36 -56 100t36 101t89 37zM648 219q122 0 193 46t71 124t-58 128q-57 50 -143 74q-87 23 -187 57t-186 72t-143 122t-58 202q-1 182 143 291t401 109t480 -148l-100 -213q-219 133 -420 134
q-109 0 -171 -39t-62 -111t57 -122t143 -74q86 -23 186 -59t187 -76q86 -40 142 -125t57 -205q0 -188 -151 -302t-390 -112q-163 0 -317 62t-269 165l105 209q108 -100 238 -154t252 -55z" />
    <glyph glyph-name="scommaaccent" unicode="&#x219;" horiz-adv-x="962" 
d="M365 -238q0 64 35 101q36 37 90 37t90 -36t36 -92t-36 -110l-117 -176h-121l78 176q-55 36 -55 100zM486 176q184 0 184 117q0 61 -60 98t-143 60q-84 23 -168 53t-142 102q-58 70 -59 178q0 156 116 236t286 80q225 0 381 -111l-86 -174q-156 96 -315 96t-158 -108
q0 -53 59 -88t144 -59t170 -56t145 -102q59 -72 59 -183q0 -159 -120 -241t-298 -82q-123 0 -241 40t-197 111l84 168q70 -61 171 -98q102 -37 188 -37z" />
    <glyph glyph-name="Tcommaaccent" unicode="&#x21a;" horiz-adv-x="1185" 
d="M451 -238q0 64 35 101q36 37 90 37t90 -36t36 -92t-36 -110l-117 -176h-121l78 176q-55 36 -55 100zM18 1217v217h1149v-217h-454v-1217h-242v1217h-453z" />
    <glyph glyph-name="tcommaaccent" unicode="&#x21b;" horiz-adv-x="833" 
d="M387 -238q0 64 36 101t89 37t90 -36t37 -92t-37 -110l-117 -176h-120l77 176q-55 36 -55 100zM63 872v177h154v299h234v-299h321v-177h-321v-522q1 -82 29 -114t90 -33q62 0 161 47l60 -180q-135 -80 -269 -80t-219 80q-86 80 -86 237v565h-154z" />
    <glyph glyph-name="dotlessj" unicode="&#x237;" horiz-adv-x="561" 
d="M172 -14v1104h236v-1139q0 -172 -88 -265q-88 -92 -242 -90q-153 2 -264 72l59 172q70 -45 147 -48q152 -6 152 194z" />
    <glyph glyph-name="circumflex" unicode="&#x2c6;" 
d="M39 1257l211 289h217l211 -289h-193l-127 181l-127 -181h-192z" />
    <glyph glyph-name="caron" unicode="&#x2c7;" 
d="M20 1546h209l129 -190l129 190h209l-221 -307h-233z" />
    <glyph glyph-name="firsttonechinese" unicode="&#x2c9;" 
d="M98 1313v170h523v-170h-523z" />
    <glyph glyph-name="breve" unicode="&#x2d8;" 
d="M358 1401q53 0 89 37t40 96h160q-4 -129 -85 -210t-204 -81q-124 0 -204 81t-84 210h159q4 -59 40 -96t89 -37z" />
    <glyph glyph-name="dotaccent" unicode="&#x2d9;" 
d="M358 1544q58 0 98 -40t40 -102t-39 -102t-99 -40t-98 40q-39 40 -39 102t39 102t98 40z" />
    <glyph glyph-name="ring" unicode="&#x2da;" 
d="M219 1403q0 -53 41 -92t98 -39t99 39q41 39 41 92t-41 92t-99 39t-98 -39q-41 -39 -41 -92zM117 1402q0 97 70 168q71 70 171 70t171 -70t71 -168q0 -97 -71 -167t-171 -70t-171 70q-70 70 -70 167z" />
    <glyph glyph-name="ogonek" unicode="&#x2db;" 
d="M182 -252q0 111 123 277h121q-119 -160 -119 -240q0 -65 74 -65q39 0 90 65l68 -80q-74 -117 -195 -117q-66 0 -114 40t-48 120z" />
    <glyph glyph-name="tilde" unicode="&#x2dc;" 
d="M29 1284q0 268 188 268q61 0 138 -56t106 -56q78 0 78 100h149q0 -268 -186 -268q-68 0 -143 56t-103 56q-76 0 -76 -100h-151z" />
    <glyph glyph-name="hungarumlaut" unicode="&#x2dd;" 
d="M342 1247l170 316l201 -90l-189 -226h-182zM4 1247l170 316l201 -90l-189 -226h-182z" />
    <glyph glyph-name="commaaccent" unicode="&#x326;" horiz-adv-x="0" 
d="M221 -100q53 0 90 -36t37 -92t-37 -110l-116 -176h-121l78 176q-56 36 -56 100t36 101t89 37z" />
    <glyph glyph-name="Delta" unicode="&#x394;" horiz-adv-x="1511" 
d="M334 190h835l-417 986zM2 0l633 1434h248l626 -1434h-1507z" />
    <glyph glyph-name="pi" unicode="&#x3c0;" horiz-adv-x="1484" 
d="M1464 1090v-181h-301v-909h-196v909h-301l-103 -909h-196l100 909h-105q-86 0 -142 -48t-55 -124t54 -155l-164 -64q-71 119 -74 256t98 226t255 90h1130z" />
    <glyph glyph-name="Wgrave" unicode="&#x1e80;" horiz-adv-x="2121" 
d="M739 1792l242 102l217 -303h-209zM6 1434h260l348 -1166l347 1164l237 2l348 -1166l346 1166h250l-479 -1434h-248l-340 1118l-344 -1118h-250z" />
    <glyph glyph-name="wgrave" unicode="&#x1e81;" horiz-adv-x="1828" 
d="M584 1448l241 102l217 -303h-208zM2 1090h242l282 -857l275 857h243l277 -857l278 857h240l-397 -1090h-244l-276 807l-277 -807h-242z" />
    <glyph glyph-name="Wacute" unicode="&#x1e82;" horiz-adv-x="2121" 
d="M934 1589l217 303l242 -102l-250 -201h-209zM6 1434h260l348 -1166l347 1164l237 2l348 -1166l346 1166h250l-479 -1434h-248l-340 1118l-344 -1118h-250z" />
    <glyph glyph-name="wacute" unicode="&#x1e83;" horiz-adv-x="1828" 
d="M778 1245l217 303l242 -102l-250 -201h-209zM2 1090h242l282 -857l275 857h243l277 -857l278 857h240l-397 -1090h-244l-276 807l-277 -807h-242z" />
    <glyph glyph-name="Wdieresis" unicode="&#x1e84;" horiz-adv-x="2121" 
d="M1128 1756q0 56 36 93t89 37t88 -37t35 -93t-35 -93t-88 -37t-89 37t-36 93zM766 1756q0 56 36 93t89 37t88 -37t35 -93t-35 -93t-88 -37t-89 37t-36 93zM6 1434h260l348 -1166l347 1164l237 2l348 -1166l346 1166h250l-479 -1434h-248l-340 1118l-344 -1118h-250z" />
    <glyph glyph-name="wdieresis" unicode="&#x1e85;" horiz-adv-x="1828" 
d="M973 1412q0 56 36 93t89 37t88 -37t35 -93t-35 -93t-88 -37t-89 37t-36 93zM610 1412q0 56 36 93t89 37t88 -37t35 -93t-35 -93t-88 -37t-89 37t-36 93zM2 1090h242l282 -857l275 857h243l277 -857l278 857h240l-397 -1090h-244l-276 807l-277 -807h-242z" />
    <glyph glyph-name="Ygrave" unicode="&#x1ef2;" horiz-adv-x="1304" 
d="M319 1792l242 102l217 -303h-209zM776 0h-239v469l-535 965h244l409 -699l402 699h246l-527 -957v-477z" />
    <glyph glyph-name="ygrave" unicode="&#x1ef3;" horiz-adv-x="1087" 
d="M215 1448l242 102l217 -303h-209zM248 -408q-141 0 -252 93l100 182q74 -53 142 -53q111 0 165 120l37 82l-450 1074h243l326 -826l303 826h236l-496 -1240q-102 -258 -354 -258z" />
    <glyph glyph-name="endash" unicode="&#x2013;" horiz-adv-x="829" 
d="M0 461v162h829v-162h-829z" />
    <glyph glyph-name="emdash" unicode="&#x2014;" horiz-adv-x="1415" 
d="M0 461v162h1415v-162h-1415z" />
    <glyph glyph-name="quoteleft" unicode="&#x2018;" horiz-adv-x="438" 
d="M74 1158q0 56 37 110l116 178h121l-78 -178q56 -36 56 -100t-36 -101t-89 -37t-90 36t-37 92z" />
    <glyph glyph-name="quoteright" unicode="&#x2019;" horiz-adv-x="438" 
d="M221 1434q53 0 90 -36t37 -92t-37 -110l-116 -176h-121l78 176q-56 36 -56 100t36 101t89 37z" />
    <glyph glyph-name="quotesinglbase" unicode="&#x201a;" horiz-adv-x="438" 
d="M221 248q53 0 90 -36t37 -93t-37 -111l-116 -176h-121l78 178q-56 36 -56 100t36 101t89 37z" />
    <glyph glyph-name="quotedblleft" unicode="&#x201c;" horiz-adv-x="606" 
d="M379 1159q0 57 37 111l116 176h121l-78 -178q55 -36 55 -100t-35 -101q-36 -37 -89 -37t-90 36t-37 93zM74 1159q0 57 37 111l116 176h121l-78 -178q56 -36 56 -100t-36 -101t-89 -37t-90 36t-37 93z" />
    <glyph glyph-name="quotedblright" unicode="&#x201d;" horiz-adv-x="681" 
d="M526 1436q53 0 90 -36t37 -93t-37 -111l-116 -176h-121l78 178q-55 36 -55 100t35 101q36 37 89 37zM221 1436q53 0 90 -36t37 -93t-37 -111l-116 -176h-121l78 178q-56 36 -56 100t36 101t89 37z" />
    <glyph glyph-name="quotedblbase" unicode="&#x201e;" horiz-adv-x="743" 
d="M526 248q53 0 90 -36t37 -93t-37 -111l-116 -176h-121l78 178q-55 36 -55 100t35 101q36 37 89 37zM221 248q53 0 90 -36t37 -93t-37 -111l-116 -176h-121l78 178q-56 36 -56 100t36 101t89 37z" />
    <glyph glyph-name="dagger" unicode="&#x2020;" horiz-adv-x="1097" 
d="M31 778v217h403v437h223v-437h410v-217h-410v-1167h-223v1167h-403z" />
    <glyph glyph-name="daggerdbl" unicode="&#x2021;" horiz-adv-x="1097" 
d="M31 90v215h403v473h-403v217h403v437h223v-437h410v-217h-410v-473h410v-215h-410v-479h-223v479h-403z" />
    <glyph glyph-name="bullet" unicode="&#x2022;" horiz-adv-x="575" 
d="M94 549q0 88 54 144q54 57 138 57t140 -56q55 -56 55 -145t-55 -147t-138 -58q-82 0 -138 58t-56 147z" />
    <glyph glyph-name="ellipsis" unicode="&#x2026;" horiz-adv-x="1245" 
d="M905 113q0 57 35 93t88 36t88 -36t35 -93t-35 -95t-88 -36q-53 0 -88 37t-35 94zM500 113q0 57 35 93t88 36t88 -36t35 -93t-35 -95q-35 -36 -88 -36t-88 37t-35 94zM94 113q0 57 35 93t88 36t88 -36t35 -93t-35 -95t-88 -36q-53 0 -88 37t-35 94z" />
    <glyph glyph-name="perthousand" unicode="&#x2030;" horiz-adv-x="2908" 
d="M2450 713q-106 0 -164 -76t-58 -214t58 -213t163 -75q106 0 165 76q58 76 59 213q-1 137 -59 213t-164 76zM2449 850q175 0 277 -114t102 -314t-101 -312q-101 -114 -277 -114t-278 114q-101 114 -101 313t101 313t277 114zM1536 713q-106 0 -164 -76t-57 -214
q0 -138 57 -213q58 -75 164 -75t165 76q58 76 58 213t-58 213q-59 76 -165 76zM1157 423q0 199 101 313q102 114 278 114t278 -114t101 -314q0 -200 -101 -312q-102 -114 -278 -114t-278 114t-101 313zM348 0l1055 1434h225l-1053 -1434h-227zM236 1011q0 -138 57 -214
t163 -76t166 77q58 77 58 214t-58 212q-58 74 -164 74t-165 -74q-57 -75 -57 -213zM78 1011q0 199 101 313t277 114t278 -114t102 -314t-102 -314t-277 -114q-176 0 -278 114q-101 115 -101 315z" />
    <glyph glyph-name="guilsinglleft" unicode="&#x2039;" horiz-adv-x="565" 
d="M47 532l238 357h196l-219 -357l219 -356h-196z" />
    <glyph glyph-name="guilsinglright" unicode="&#x203a;" horiz-adv-x="589" 
d="M156 176l219 359l-219 356h196l238 -356l-238 -359h-196z" />
    <glyph glyph-name="fraction" unicode="&#x2044;" horiz-adv-x="163" 
d="M-567 0l1054 1434h226l-1053 -1434h-227z" />
    <glyph glyph-name="Euro" unicode="&#x20ac;" horiz-adv-x="1617" 
d="M76 481v131h192q-8 48 -8 108t8 107h-192v131h225q76 215 270 349q195 133 445 133q152 0 296 -60t247 -161l-140 -177q-172 182 -401 183q-145 0 -266 -73t-187 -194h514v-131h-563q-10 -57 -10 -109t12 -106h561v-131h-514q66 -121 187 -193t266 -73q221 0 401 170
l142 -160q-109 -109 -256 -172t-299 -63q-248 0 -441 135t-266 356h-223z" />
    <glyph glyph-name="literSign" unicode="&#x2113;" horiz-adv-x="956" 
d="M739 1184q0 57 -22 88q-23 31 -62 31q-119 0 -163 -254l-68 -400q139 123 227 267t88 268zM516 172q131 0 275 174l81 -98q-170 -256 -409 -256q-264 0 -264 336l-105 -72l-41 115l166 121l86 536q39 209 133 313q94 105 210 105t176 -68t61 -190q0 -334 -492 -739
q-23 -141 6 -209t117 -68z" />
    <glyph glyph-name="trademark" unicode="&#x2122;" horiz-adv-x="1814" 
d="M782 573v861h201l262 -547l262 547h201v-861h-158v609l-247 -520h-115l-246 520v-609h-160zM-10 1282v152h676v-152h-252v-709h-174v709h-250z" />
    <glyph glyph-name="Omega" unicode="&#x2126;" horiz-adv-x="1806" 
d="M18 0v205h431q-123 92 -202 248t-79 309q0 296 209 490t526 194t527 -195t210 -489q0 -154 -78 -310t-202 -247h428v-205h-680v190q137 82 227 238t90 313q0 213 -148 351q-147 138 -373 139q-226 0 -374 -138t-147 -352q0 -157 89 -313t228 -240v-188h-682z" />
    <glyph glyph-name="estimated" unicode="&#x212e;" horiz-adv-x="1656" 
d="M393 682q0 -10 10 -10h852q10 0 11 10v338q0 23 -19 41q-174 174 -418 174t-417 -180q-18 -18 -19 -41v-332zM143 653q0 255 201 437q202 182 486 182t485 -181t201 -438v-14h-1113q-10 0 -10 -8v-336q0 -18 17 -39q170 -182 421 -182q129 0 245 54t196 148h100
q-94 -112 -237 -176t-306 -63q-285 0 -485 180t-201 436z" />
    <glyph glyph-name="oneeighth" unicode="&#x215b;" horiz-adv-x="1708" 
d="M1135 623q1 -115 157 -115t156 115q0 53 -41 84t-116 31t-115 -32q-40 -30 -41 -83zM1108 252q0 -61 48 -96t135 -35t135 34t48 96t-48 96t-135 34t-135 -34t-48 -95zM946 236q0 74 47 131t129 86q-131 59 -131 184q0 99 81 157t219 58t220 -59t82 -171t-125 -169
q80 -29 124 -85t44 -130q0 -113 -92 -179q-92 -65 -252 -65t-253 64t-93 178zM102 0l1055 1434h225l-1052 -1434h-228zM33 1292v142h342v-846h-172v704h-170z" />
    <glyph glyph-name="threeeighths" unicode="&#x215c;" horiz-adv-x="1835" 
d="M1262 623q0 -115 156 -115t157 115q0 53 -41 84t-116 31q-76 0 -116 -32q-40 -30 -40 -83zM1235 252q0 -61 48 -96t135 -35t135 34q49 34 49 96t-48 96t-136 34q-87 0 -135 -34t-48 -95zM1073 236q0 74 47 131t129 86q-131 59 -131 184q0 99 81 157t219 58t220 -59
t82 -171t-125 -169q80 -29 124 -85t44 -130q0 -113 -92 -179q-92 -65 -252 -65t-253 64t-93 178zM229 0l1055 1434h225l-1052 -1434h-228zM317 711q80 0 125 37t45 100q0 127 -172 127h-127v94l230 234h-355v127h551v-101l-243 -246l45 -4q108 -10 174 -70t66 -169t-90 -185
q-90 -75 -252 -75t-291 94l71 135q98 -98 223 -98z" />
    <glyph glyph-name="fiveeighths" unicode="&#x215d;" horiz-adv-x="1871" 
d="M1298 623q0 -115 157 -115t157 115q0 53 -41 84t-116 31t-116 -32q-41 -30 -41 -83zM1272 252q0 -61 48 -96t135 -35t135 34t48 96t-48 96t-135 34t-135 -34t-48 -95zM1110 236q0 74 47 131t129 86q-131 59 -131 184q0 99 81 157t219 58t220 -59t82 -171t-125 -169
q80 -29 124 -85t44 -130q0 -113 -92 -179q-92 -65 -252 -65t-253 64t-93 178zM266 0l1055 1434h225l-1052 -1434h-228zM350 713q80 0 125 38t45 102t-45 97t-155 33t-203 -16v467h549v-138h-392v-196q47 12 109 12q145 0 232 -66t87 -187q0 -122 -91 -200q-91 -77 -255 -77
t-309 98l70 135q106 -102 233 -102z" />
    <glyph glyph-name="seveneighths" unicode="&#x215e;" horiz-adv-x="1804" 
d="M1231 623q0 -115 157 -115t156 115q0 53 -41 84t-115 31t-116 -32q-41 -30 -41 -83zM1204 252q0 -61 48 -96t136 -35t135 34q48 34 48 96t-48 96q-47 34 -135 34t-136 -34t-48 -95zM1042 236q0 74 48 131t129 86q-131 59 -132 184q0 99 81 157t219 58q139 0 221 -59
t82 -171t-125 -169q80 -29 124 -85t44 -130q-1 -113 -93 -179q-92 -65 -252 -65t-252 64q-94 64 -94 178zM199 0l1054 1434h226l-1053 -1434h-227zM66 1171v263h653v-123l-342 -723h-182l337 708h-315v-125h-151z" />
    <glyph glyph-name="partialdiff" unicode="&#x2202;" horiz-adv-x="1259" 
d="M887 470q0 110 -83 188t-219 77q-136 1 -211 -69t-75 -196t79 -199t217 -73t215 81t77 191zM74 464q0 214 126 339t337 125q147 0 248 -67t141 -181q18 266 -84 414t-294 147q-192 0 -339 -111l-94 185q203 129 438 129q279 0 443 -203t165 -540q-1 -337 -155 -524
t-428 -187q-229 0 -367 130q-137 130 -137 344z" />
    <glyph glyph-name="product" unicode="&#x220f;" horiz-adv-x="1536" 
d="M188 -397v1917h1160v-1917h-236v1716h-688v-1716h-236z" />
    <glyph glyph-name="summation" unicode="&#x2211;" horiz-adv-x="1251" 
d="M82 1522h1143v-217h-865l568 -676l-572 -695h889v-217h-1179v187l602 723l-586 706v189z" />
    <glyph glyph-name="minus" unicode="&#x2212;" horiz-adv-x="1019" 
d="M72 584v161h876v-161h-876z" />
    <glyph glyph-name="divisionslash" unicode="&#x2215;" horiz-adv-x="677" 
d="M-43 -240l649 1911h201l-649 -1911h-201z" />
    <glyph glyph-name="bulletoperator" unicode="&#x2219;" horiz-adv-x="575" 
d="M94 549q0 88 54 144q54 57 138 57t140 -56q55 -56 55 -145t-55 -147t-138 -58q-82 0 -138 58t-56 147z" />
    <glyph glyph-name="radical" unicode="&#x221a;" horiz-adv-x="1411" 
d="M23 618v199h413l275 -876l469 1595h225l-569 -1851h-252l-310 933h-251z" />
    <glyph glyph-name="infinity" unicode="&#x221e;" horiz-adv-x="1792" 
d="M1316 379q110 -1 175 67q66 68 65 172q0 104 -65 173q-67 67 -177 67t-187 -62q-76 -63 -148 -180q75 -115 151 -176t186 -61zM236 616q0 -104 66 -172t174 -68q110 0 187 63q77 62 150 179q-74 115 -150 177q-77 61 -187 61t-174 -68q-66 -68 -66 -172zM72 617
q0 177 112 295q113 118 275 118t257 -72t179 -202q82 130 178 202t259 72t276 -118q112 -118 112 -295t-112 -295t-275 -117q-162 -1 -257 71t-179 203q-82 -131 -178 -203t-259 -72q-164 0 -276 118t-112 295z" />
    <glyph glyph-name="integral" unicode="&#x222b;" horiz-adv-x="700" 
d="M131 -88q86 0 123 59t37 195t-24 564q-24 427 -23 548q0 242 70 344q71 102 237 102q72 0 158 -38l-29 -164q-51 23 -102 22q-84 0 -120 -55t-36 -183t22 -556q22 -430 23 -566q0 -242 -71 -344t-238 -102q-100 0 -174 43l30 164q66 -33 117 -33z" />
    <glyph glyph-name="approxequal" unicode="&#x2248;" horiz-adv-x="1019" 
d="M135 760q0 287 199 287q72 -1 173 -59t138 -58q80 0 80 104h162q0 -287 -199 -286q-76 0 -175 58t-134 58q-80 0 -80 -104h-164zM135 309q0 287 199 287q72 0 173 -58t138 -59q80 0 80 103h162q0 -287 -199 -287q-76 0 -175 58t-134 59q-80 0 -80 -103h-164z" />
    <glyph glyph-name="notequal" unicode="&#x2260;" horiz-adv-x="1019" 
d="M72 369v161h295l84 269h-379v162h430l94 294h180l-94 -294h266v-162h-317l-84 -269h401v-161h-452l-97 -306h-180l96 306h-243z" />
    <glyph glyph-name="lessequal" unicode="&#x2264;" horiz-adv-x="1019" 
d="M72 700v203l876 373v-178l-719 -295l719 -295v-178zM72 41v164h876v-164h-876z" />
    <glyph glyph-name="greaterequal" unicode="&#x2265;" horiz-adv-x="1019" 
d="M72 340v176l719 297l-719 295v178l876 -373v-202zM72 41v164h876v-164h-876z" />
    <glyph glyph-name="lozenge" unicode="&#x25ca;" horiz-adv-x="1097" 
d="M289 676l258 -379l262 379l-260 379zM72 676l477 708l477 -708l-479 -713z" />
    <glyph glyph-name="zero.dnom" horiz-adv-x="915" 
d="M458 713q-106 0 -164 -76t-58 -214t57 -213t163 -75t166 76q58 76 58 213t-58 213t-164 76zM457 -4q-175 0 -277 114t-102 313t101 313t277 114t278 -114t102 -314t-102 -312q-102 -114 -277 -114z" />
    <glyph glyph-name="one.dnom" horiz-adv-x="536" 
d="M33 707v139h342v-846h-172v707h-170z" />
    <glyph glyph-name="two.dnom" horiz-adv-x="784" 
d="M391 852q127 0 206 -58t79 -157q0 -121 -164 -279l-221 -221h422v-137h-637v117l321 327q100 100 101 170q0 45 -35 71t-98 26q-117 0 -240 -107l-68 125q158 123 334 123z" />
    <glyph glyph-name="three.dnom" horiz-adv-x="727" 
d="M317 125q80 0 125 37t45 98q0 127 -172 127h-127v94l230 234h-355v129h551v-101l-243 -245l45 -6q108 -10 174 -70t66 -170t-90 -184t-254 -74t-289 94l71 133q96 -96 223 -96z" />
    <glyph glyph-name="four.dnom" horiz-adv-x="806" 
d="M57 199v120l293 527h164l-285 -520h246v209h162v-209h125v-127h-125v-199h-162v199h-418z" />
    <glyph glyph-name="five.dnom" horiz-adv-x="772" 
d="M350 125q80 0 125 38t45 102q0 65 -45 99t-157 34t-201 -19v467h549v-135h-392v-199q53 14 109 14q145 0 232 -66t87 -188t-91 -200t-251 -78t-313 98l70 135q109 -102 233 -102z" />
    <glyph glyph-name="six.dnom" horiz-adv-x="821" 
d="M268 278q0 -62 43 -103q43 -42 121 -42t122 39t44 108q0 70 -42 106t-119 36t-123 -41t-46 -103zM429 -6q-157 0 -254 110t-97 308q0 200 105 320t269 120t283 -66l-65 -122q-84 53 -199 53t-175 -78t-50 -219q51 129 233 129q127 0 203 -74q76 -75 76 -201t-86 -203
t-243 -77z" />
    <glyph glyph-name="seven.dnom" horiz-adv-x="765" 
d="M66 586v260h653v-123l-342 -723h-182l337 711h-315v-125h-151z" />
    <glyph glyph-name="eight.dnom" horiz-adv-x="833" 
d="M260 623q0 -115 157 -115t156 115q0 53 -41 84q-42 31 -116 31t-115 -32q-41 -30 -41 -83zM417 381q-87 0 -135 -34t-49 -95q1 -61 49 -96t135 -35t135 34t48 96t-48 96t-135 34zM72 236q0 74 47 131t129 86q-131 59 -131 184q0 99 81 157t219 58t220 -59t82 -171
t-125 -169q80 -29 124 -85t44 -130q0 -113 -92 -179q-92 -65 -252 -65t-253 64t-93 178z" />
    <glyph glyph-name="nine.dnom" horiz-adv-x="825" 
d="M229 567q0 -67 41 -105t118 -38t123 41t46 101t-42 104t-121 43q-79 0 -122 -39t-43 -107zM348 295q-128 1 -204 75t-76 201t86 204t242 77t254 -111t98 -309t-106 -318t-268 -120q-164 0 -284 65l68 123q82 -53 198 -53t175 78q60 78 51 219q-55 -131 -234 -131z" />
    <glyph glyph-name="zero.numr" horiz-adv-x="915" 
d="M236 1011q0 -138 57 -214t163 -76t166 77q58 77 58 214t-58 212q-58 74 -164 74t-165 -74q-57 -75 -57 -213zM78 1011q0 199 101 313t277 114t278 -114t102 -314t-102 -314t-277 -114q-176 0 -278 114q-101 115 -101 315z" />
    <glyph glyph-name="one.numr" horiz-adv-x="536" 
d="M33 1292v142h342v-846h-172v704h-170z" />
    <glyph glyph-name="two.numr" horiz-adv-x="784" 
d="M391 1440q127 0 206 -58t79 -157q0 -121 -164 -279l-221 -223h422v-135h-637v114l321 330q100 96 101 168q0 96 -125 96t-248 -106l-68 127q162 123 334 123z" />
    <glyph glyph-name="three.numr" horiz-adv-x="727" 
d="M317 711q80 0 125 37t45 100q0 127 -172 127h-127v94l230 234h-355v127h551v-101l-243 -246l45 -4q108 -10 174 -70t66 -169t-90 -185q-90 -75 -252 -75t-291 94l71 135q98 -98 223 -98z" />
    <glyph glyph-name="four.numr" horiz-adv-x="806" 
d="M57 786v121l293 527h164l-285 -521h246v207h162v-207h125v-127h-125v-198h-162v198h-418z" />
    <glyph glyph-name="five.numr" horiz-adv-x="772" 
d="M350 713q80 0 125 38t45 102t-45 97t-155 33t-203 -16v467h549v-138h-392v-196q47 12 109 12q145 0 232 -66t87 -187q0 -122 -91 -200q-91 -77 -255 -77t-309 98l70 135q106 -102 233 -102z" />
    <glyph glyph-name="six.numr" horiz-adv-x="821" 
d="M437 1008q-77 0 -123 -42t-46 -101q0 -60 43 -102t121 -42t122 39q44 38 44 106t-42 105t-119 37zM78 999q0 199 105 320t284 121q143 0 268 -66l-65 -125q-84 53 -199 53t-175 -77q-60 -78 -50 -219q51 131 233 131q127 0 203 -74t76 -202t-86 -205q-86 -76 -243 -76
t-254 110t-97 309z" />
    <glyph glyph-name="seven.numr" horiz-adv-x="765" 
d="M66 1171v263h653v-123l-342 -723h-182l337 708h-315v-125h-151z" />
    <glyph glyph-name="eight.numr" horiz-adv-x="833" 
d="M573 1208q-1 115 -157 115t-156 -114t158 -113q74 0 114 30t41 82zM417 969q-87 0 -135 -34t-49 -96q1 -63 49 -97t136 -33q182 0 182 131q0 61 -48 95t-135 34zM72 823q0 74 47 131t129 86q-131 59 -131 185q0 100 81 157q81 58 219 58t220 -60t82 -170
q0 -112 -125 -170q78 -29 123 -85t45 -130q0 -113 -93 -179t-252 -66t-252 65t-93 178z" />
    <glyph glyph-name="nine.numr" horiz-adv-x="825" 
d="M394 1298q-79 0 -122 -38t-43 -106q0 -70 41 -106t118 -36t123 41t46 101t-42 102t-121 42zM68 1158q0 128 86 205t242 77t254 -111t98 -309t-106 -319q-106 -122 -282 -121q-145 0 -270 67l68 123q82 -53 198 -53t175 78q60 78 51 219q-55 -131 -234 -131
q-127 0 -204 73q-76 74 -76 202z" />
    </font>
</defs>
</svg>
