<svg xmlns="http://www.w3.org/2000/svg" width="46" height="46" viewBox="0 0 46 46">
  <path d="M23.9999999,47 C11.2974507,47 0.99999995,36.7025492 0.99999995,23.9999999 C0.99999995,11.2974507 11.2974507,0.99999995 23.9999999,0.99999995 C36.7025492,0.99999995 47,11.2974507 47,23.9999999 C47,36.7025492 36.7025492,47 23.9999999,47 Z M36.52,17.564 C35.6220095,17.9645703 34.6682937,18.2261644 33.6916,18.3398 C34.7189469,17.7252729 35.4883468,16.7587704 35.8569,15.6198 C34.8909466,16.1938084 33.833092,16.5966315 32.73,16.8105 C31.2030282,15.1903724 28.7797152,14.7946588 26.8166888,15.8448891 C24.8536623,16.8951193 23.8380846,19.1306589 24.3385,21.3 C20.3796659,21.1059066 16.6903751,19.2366625 14.1924,16.1593 C12.8813136,18.4077996 13.5483402,21.2884304 15.7143,22.7318 C14.9330508,22.708789 14.1689728,22.4970636 13.4873,22.1147 L13.4873,22.1778 C13.4858835,24.5214319 15.1360246,26.5415006 17.4328,27.0078 C17.009667,27.1208105 16.5735644,27.1779624 16.1356,27.1778 C15.8247089,27.1789939 15.5144737,27.1491797 15.2095,27.0888 C15.8535986,29.0957365 17.7026095,30.4709698 19.81,30.5105 C17.7440943,32.1251515 15.1237948,32.8579368 12.52,32.5492 C16.8301207,35.3159496 22.3072224,35.5076433 26.8002275,33.0489954 C31.2932325,30.5903475 34.0845816,25.8740185 34.078,20.7523 C34.078,20.5389 34.0724,20.3274 34.0631,20.1163 C35.0289358,19.420259 35.8612391,18.5556379 36.52,17.564 Z" transform="translate(-1 -1)"/>
</svg>
