<svg xmlns="http://www.w3.org/2000/svg" width="48" height="48" viewBox="0 0 48 48">
  <g fill="none" fill-rule="evenodd">
    <path fill="#000" d="M47,24 C47,36.7027083 36.7027083,47 24,47 C11.2972917,47 1,36.7027083 1,24 C1,11.2972917 11.2972917,1 24,1 C36.7027083,1 47,11.2972917 47,24 M17.0079,29.0022 L26.0079,29.0022 L26.0079,28.0022 L17.0079,28.0022 L17.0079,29.0022 Z M17.0079,25.9962 L28.0079,25.9962 L28.0079,24.9962 L17.0079,24.9962 L17.0079,25.9962 Z M17.0079,23.0022 L26.0079,23.0022 L26.0079,22.0022 L17.0079,22.0022 L17.0079,23.0022 Z M17.0079,19.9962 L28.0079,19.9962 L28.0079,18.9962 L17.0079,18.9962 L17.0079,19.9962 Z M31.9956,38.9864 C29.2386,38.9864 26.9956,36.7434 26.9956,33.9864 C26.9956,31.2294 29.2386,28.9864 31.9956,28.9864 C34.7526,28.9864 36.9956,31.2294 36.9956,33.9864 C36.9956,36.7434 34.7526,38.9864 31.9956,38.9864 L31.9956,38.9864 Z M13.9996,36.0024 L13.9996,10.0024 L26.6106,10.0024 C26.7076,10.0024 26.7936,10.0434 26.8626,10.1054 L26.9086,10.1554 C26.9656,10.2274 27.0036,10.3174 27.0036,10.4184 L27.0036,16.0024 L32.1056,16.0024 C32.3226,16.0024 32.4996,16.1884 32.4996,16.4184 L32.4996,28.0114 C32.3326,27.9984 32.1656,27.9864 31.9956,27.9864 C28.6866,27.9864 25.9956,30.6774 25.9956,33.9864 C25.9956,34.6944 26.1246,35.3714 26.3516,36.0024 L13.9996,36.0024 Z M28.0036,11.3484 L31.3576,15.0024 L28.0036,15.0024 L28.0036,11.3484 Z M33.4996,28.1844 L33.4996,16.4184 C33.4996,16.0304 33.3446,15.6784 33.0956,15.4234 L33.0986,15.4204 L27.6566,9.4924 C27.4016,9.1944 27.0296,9.0024 26.6106,9.0024 L12.9996,9.0024 L12.9996,37.0024 L26.8166,37.0024 C27.8586,38.7834 29.7876,39.9864 31.9956,39.9864 C35.3046,39.9864 37.9956,37.2954 37.9956,33.9864 C37.9956,31.1984 36.0806,28.8544 33.4996,28.1844 L33.4996,28.1844 Z M32.4956,30.9561 L31.4956,30.9561 L31.4956,33.4861 L28.9656,33.4861 L28.9656,34.4861 L31.4956,34.4861 L31.4956,37.0161 L32.4956,37.0161 L32.4956,34.4861 L35.0246,34.4861 L35.0246,33.4861 L32.4956,33.4861 L32.4956,30.9561 Z"/>
    <path fill="#000" d="M47,24 C47,36.7027083 36.7027083,47 24,47 C11.2972917,47 1,36.7027083 1,24 C1,11.2972917 11.2972917,1 24,1 C36.7027083,1 47,11.2972917 47,24 M17.0079,29.0022 L26.0079,29.0022 L26.0079,28.0022 L17.0079,28.0022 L17.0079,29.0022 Z M17.0079,25.9962 L28.0079,25.9962 L28.0079,24.9962 L17.0079,24.9962 L17.0079,25.9962 Z M17.0079,23.0022 L26.0079,23.0022 L26.0079,22.0022 L17.0079,22.0022 L17.0079,23.0022 Z M17.0079,19.9962 L28.0079,19.9962 L28.0079,18.9962 L17.0079,18.9962 L17.0079,19.9962 Z M31.9956,38.9864 C29.2386,38.9864 26.9956,36.7434 26.9956,33.9864 C26.9956,31.2294 29.2386,28.9864 31.9956,28.9864 C34.7526,28.9864 36.9956,31.2294 36.9956,33.9864 C36.9956,36.7434 34.7526,38.9864 31.9956,38.9864 L31.9956,38.9864 Z M13.9996,36.0024 L13.9996,10.0024 L26.6106,10.0024 C26.7076,10.0024 26.7936,10.0434 26.8626,10.1054 L26.9086,10.1554 C26.9656,10.2274 27.0036,10.3174 27.0036,10.4184 L27.0036,16.0024 L32.1056,16.0024 C32.3226,16.0024 32.4996,16.1884 32.4996,16.4184 L32.4996,28.0114 C32.3326,27.9984 32.1656,27.9864 31.9956,27.9864 C28.6866,27.9864 25.9956,30.6774 25.9956,33.9864 C25.9956,34.6944 26.1246,35.3714 26.3516,36.0024 L13.9996,36.0024 Z M28.0036,11.3484 L31.3576,15.0024 L28.0036,15.0024 L28.0036,11.3484 Z M33.4996,28.1844 L33.4996,16.4184 C33.4996,16.0304 33.3446,15.6784 33.0956,15.4234 L33.0986,15.4204 L27.6566,9.4924 C27.4016,9.1944 27.0296,9.0024 26.6106,9.0024 L12.9996,9.0024 L12.9996,37.0024 L26.8166,37.0024 C27.8586,38.7834 29.7876,39.9864 31.9956,39.9864 C35.3046,39.9864 37.9956,37.2954 37.9956,33.9864 C37.9956,31.1984 36.0806,28.8544 33.4996,28.1844 L33.4996,28.1844 Z M32.4956,30.9561 L31.4956,30.9561 L31.4956,33.4861 L28.9656,33.4861 L28.9656,34.4861 L31.4956,34.4861 L31.4956,37.0161 L32.4956,37.0161 L32.4956,34.4861 L35.0246,34.4861 L35.0246,33.4861 L32.4956,33.4861 L32.4956,30.9561 Z"/>
  </g>
</svg>
