<svg xmlns="http://www.w3.org/2000/svg" width="32" height="32" viewBox="0 0 32 32">
  <g fill="none" fill-rule="evenodd">
    <path fill="#000" fill-rule="nonzero" d="M9.5,22.9824561 L4,22.9824561 L4,4 L28,4 L28,22.9824561 L16.0161821,22.9824561 L9.5,29.3843192 L9.5,22.9824561 Z M27,21.9824561 L27,5 L5,5 L5,21.9824561 L10.5,21.9824561 L10.5,27 L15.6071429,21.9824561 L27,21.9824561 Z M23,9 L23,10 L9,10 L9,9 L23,9 Z M23,13 L23,14 L9,14 L9,13 L23,13 Z M23,17 L23,18 L9,18 L9,17 L23,17 Z"/>
    <path fill="#000" fill-rule="nonzero" d="M9.5,22.9824561 L4,22.9824561 L4,4 L28,4 L28,22.9824561 L16.0161821,22.9824561 L9.5,29.3843192 L9.5,22.9824561 Z M27,21.9824561 L27,5 L5,5 L5,21.9824561 L10.5,21.9824561 L10.5,27 L15.6071429,21.9824561 L27,21.9824561 Z M23,9 L23,10 L9,10 L9,9 L23,9 Z M23,13 L23,14 L9,14 L9,13 L23,13 Z M23,17 L23,18 L9,18 L9,17 L23,17 Z"/>
  </g>
</svg>
