<svg xmlns="http://www.w3.org/2000/svg" width="24" height="24" viewBox="0 0 24 24">
  <g fill="none" fill-rule="evenodd">
    <path fill="#000" d="M3.99999997,16.9932801 L3.99999997,7.87106258 L11.4287306,11.8777824 L11.4287306,21 L3.99999997,16.9932801 Z M12.5712694,11.8774225 L20,7.87070259 L20,16.9929201 L12.5712694,20.99964 L12.5712694,11.8774225 Z M12.0004,3 L19.319414,6.92272155 L12.0004,10.8694426 L4.681386,6.92272155 L12.0004,3 Z"/>
    <path fill="#000" d="M3.99999997,16.9932801 L3.99999997,7.87106258 L11.4287306,11.8777824 L11.4287306,21 L3.99999997,16.9932801 Z M12.5712694,11.8774225 L20,7.87070259 L20,16.9929201 L12.5712694,20.99964 L12.5712694,11.8774225 Z M12.0004,3 L19.319414,6.92272155 L12.0004,10.8694426 L4.681386,6.92272155 L12.0004,3 Z"/>
  </g>
</svg>
