<svg xmlns="http://www.w3.org/2000/svg" width="24" height="24" viewBox="0 0 24 24">
  <path d="M15.5798983,14.8766915 L19.3507534,18.6475466 L18.6436466,19.3546534 L14.8724673,15.5834741 C13.8274558,16.4672326 12.4760412,17 11,17 C7.68652629,17 5,14.3138111 5,11 C5,7.68685763 7.68685763,5 11,5 C14.3138111,5 17,7.68652629 17,11 C17,12.4780309 16.4657953,13.8310989 15.5798983,14.8766915 Z M16,11 C16,8.23878293 13.7614982,6 11,6 C8.23914237,6 6,8.23914237 6,11 C6,13.7614982 8.23878293,16 11,16 C13.7618576,16 16,13.7618576 16,11 Z"/>
</svg>
