<?xml version="1.0" encoding="utf-8"?>
<!-- Generator: Adobe Illustrator 19.0.1, SVG Export Plug-In . SVG Version: 6.00 Build 0)  -->
<!DOCTYPE svg PUBLIC "-//W3C//DTD SVG 1.1//EN" "http://www.w3.org/Graphics/SVG/1.1/DTD/svg11.dtd">
<svg version="1.1" id="Layer_1" xmlns="http://www.w3.org/2000/svg" xmlns:xlink="http://www.w3.org/1999/xlink" x="0px" y="0px"
	 width="101px" height="64px" viewBox="0 0 101 64" style="enable-background:new 0 0 101 64;" xml:space="preserve">
<g>
	<path d="M15.4,47.1l-6.1,16H0.2L24.2,0h9.2l23.9,63.1h-9l-6.1-16H15.4z M39.2,39.4l-10.4-28l-10.4,28H39.2z"/>
	<path d="M63.5,27.5c4.6-6.5,12.2-8.1,17.8-8.1c12.2,0,19.5,6.1,19.5,17.9v5.5v20.2h-8.2v-5.5c-3.1,4.4-9.7,6.4-15,6.4
		c-9.7,0-16.1-4.9-16.1-13.3c0-7.3,4.9-13.5,18.3-13.5c3.9,0,7.9,0.7,12.8,2.3v-2.2c0-6.2-4.3-10.4-11.9-10.4c-4.1,0-9,2-12,5.5
		L63.5,27.5z M92.5,49.4v-3.1C88,44.7,82.4,44,79.8,44c-8.8,0-10.4,3.8-10.4,6.7c0,3.2,2.7,5.9,8.4,5.9
		C82.1,56.6,89.5,54.3,92.5,49.4z"/>
</g>
</svg>
