<?xml version="1.0" encoding="utf-8"?>
<!-- Generator: Adobe Illustrator 19.0.1, SVG Export Plug-In . SVG Version: 6.00 Build 0)  -->
<!DOCTYPE svg PUBLIC "-//W3C//DTD SVG 1.1//EN" "http://www.w3.org/Graphics/SVG/1.1/DTD/svg11.dtd">
<svg version="1.1" id="Layer_1" xmlns="http://www.w3.org/2000/svg" xmlns:xlink="http://www.w3.org/1999/xlink" x="0px" y="0px"
	 width="69px" height="69px" viewBox="0 0 69 69" style="enable-background:new 0 0 69 69;" xml:space="preserve">
<g>
	<polygon points="37.3,17.9 35.3,15.6 12.8,34.5 35.3,53.4 37.3,51.1 19.3,36 52.4,36 52.4,33 19.3,33 	"/>
	<path d="M34.5,0.2C15.6,0.2,0.2,15.6,0.2,34.5c0,18.9,15.4,34.3,34.3,34.3c18.9,0,34.3-15.4,34.3-34.3C68.8,15.6,53.4,0.2,34.5,0.2
		z M34.5,65.8c-17.3,0-31.3-14-31.3-31.3c0-17.3,14-31.3,31.3-31.3c17.3,0,31.3,14,31.3,31.3C65.8,51.8,51.8,65.8,34.5,65.8z"/>
</g>
</svg>
