<?xml version="1.0" encoding="utf-8"?>
<!-- Generator: Adobe Illustrator 19.0.1, SVG Export Plug-In . SVG Version: 6.00 Build 0)  -->
<!DOCTYPE svg PUBLIC "-//W3C//DTD SVG 1.1//EN" "http://www.w3.org/Graphics/SVG/1.1/DTD/svg11.dtd">
<svg version="1.1" id="Layer_1" xmlns="http://www.w3.org/2000/svg" xmlns:xlink="http://www.w3.org/1999/xlink" x="0px" y="0px"
	 width="69px" height="69px" viewBox="0 0 69 69" style="enable-background:new 0 0 69 69;" xml:space="preserve">
<g>
	<polygon points="31.7,51.1 33.7,53.4 56.2,34.5 33.7,15.6 31.7,17.9 49.7,33 16.6,33 16.6,36 49.7,36 	"/>
	<path d="M34.5,68.8c18.9,0,34.3-15.4,34.3-34.3c0-18.9-15.4-34.3-34.3-34.3C15.6,0.2,0.2,15.6,0.2,34.5
		C0.2,53.4,15.6,68.8,34.5,68.8z M34.5,3.2c17.3,0,31.3,14,31.3,31.3c0,17.3-14,31.3-31.3,31.3c-17.3,0-31.3-14-31.3-31.3
		C3.2,17.2,17.2,3.2,34.5,3.2z"/>
</g>
</svg>
