<?xml version="1.0" encoding="utf-8"?>
<!-- Generator: Adobe Illustrator 19.0.1, SVG Export Plug-In . SVG Version: 6.00 Build 0)  -->
<!DOCTYPE svg PUBLIC "-//W3C//DTD SVG 1.1//EN" "http://www.w3.org/Graphics/SVG/1.1/DTD/svg11.dtd">
<svg version="1.1" id="Layer_1" xmlns="http://www.w3.org/2000/svg" xmlns:xlink="http://www.w3.org/1999/xlink" x="0px" y="0px"
	 width="44px" height="64px" viewBox="0 0 44 64" style="enable-background:new 0 0 44 64;" xml:space="preserve">
<g>
	<g>
		<path d="M41.9,64H2.1c-1,0-1.8-0.8-1.8-1.8V9.9c0-1,0.8-1.8,1.8-1.8s1.8,0.8,1.8,1.8v50.6h36.2V11.7H25.7c-1,0-1.8-0.8-1.8-1.8
			s0.8-1.8,1.8-1.8h16.1c1,0,1.8,0.8,1.8,1.8v52.3C43.6,63.2,42.8,64,41.9,64z"/>
	</g>
	<g>
		<g>
			<path d="M25.6,41.3h5.7c1,0,1.8,0.8,1.8,1.8s-0.8,1.8-1.8,1.8h-5.7"/>
		</g>
		<g>
			<path d="M25.5,35.1h5.8c1,0,1.8,0.8,1.8,1.8c0,1-0.8,1.8-1.8,1.8h-5.6"/>
		</g>
		<g>
			<path d="M25.6,29h5.7c1,0,1.8,0.8,1.8,1.8c0,1-0.8,1.8-1.8,1.8h-5.5"/>
		</g>
		<g>
			<path d="M25.8,22.8h5.5c1,0,1.8,0.8,1.8,1.8s-0.8,1.8-1.8,1.8h-5.5"/>
		</g>
	</g>
	<g>
		<path d="M2.1,64c-0.4,0-0.7-0.1-1-0.3c-0.5-0.3-0.7-0.9-0.7-1.4V9.9c0-0.8,0.5-1.4,1.2-1.7l23.3-8.1C25.4-0.1,26,0,26.5,0.3
			c0.5,0.3,0.7,0.9,0.7,1.4v52.3c0,0.8-0.5,1.4-1.2,1.7L2.7,63.9C2.5,64,2.3,64,2.1,64z M3.9,11.1v48.6l19.8-6.9V4.3L3.9,11.1z"/>
	</g>
	<g>
		<line x1="9.6" y1="60.3" x2="9.6" y2="9.7"/>
		<path d="M9.6,62c-1,0-1.8-0.8-1.8-1.8V9.7c0-1,0.8-1.8,1.8-1.8s1.8,0.8,1.8,1.8v50.6C11.4,61.2,10.6,62,9.6,62z"/>
	</g>
</g>
</svg>
