<?xml version="1.0" encoding="utf-8"?>
<!-- Generator: Adobe Illustrator 21.0.2, SVG Export Plug-In . SVG Version: 6.00 Build 0)  -->
<!DOCTYPE svg PUBLIC "-//W3C//DTD SVG 1.1//EN" "http://www.w3.org/Graphics/SVG/1.1/DTD/svg11.dtd">
<svg version="1.1" id="Layer_1" xmlns="http://www.w3.org/2000/svg" xmlns:xlink="http://www.w3.org/1999/xlink" x="0px" y="0px"
	 width="106.5411377px" height="64px" viewBox="0 0 106.5411377 64" style="enable-background:new 0 0 106.5411377 64;"
	 xml:space="preserve">
<path d="M106.5411377,58.8914795H86.4712524L77.3632812,0L59.0808716,2.8280029V2.1130981H39.4562378v56.7783813h-2.9891357
	V2.1130981H16.8435669v56.7783813H0v4.8983154h16.8435669v0.0499878h19.6235352v-0.0499878h2.9891357v0.0499878h19.6246338
	v-0.0499878h8.2929688L67.4063721,64l1.3603516-0.2102051h37.7744141V58.8914795z M21.1051636,6.3746948h11.1003418v52.5167847
	H21.1051636V6.3746948z M73.8050537,4.8629761l8.131958,52.578125l-9.3722534,1.4503784h-1.6383667l-8.09375-52.331604
	L73.8050537,4.8629761z M43.7178345,6.3746948h11.1014404v52.5167847H43.7178345V6.3746948z M59.0808716,58.8914795V10.1707764
	l7.5354004,48.7207031H59.0808716z"/>
</svg>
