<?xml version="1.0" encoding="utf-8"?>
<!-- Generator: Adobe Illustrator 19.0.1, SVG Export Plug-In . SVG Version: 6.00 Build 0)  -->
<!DOCTYPE svg PUBLIC "-//W3C//DTD SVG 1.1//EN" "http://www.w3.org/Graphics/SVG/1.1/DTD/svg11.dtd">
<svg version="1.1" id="Layer_1" xmlns="http://www.w3.org/2000/svg" xmlns:xlink="http://www.w3.org/1999/xlink" x="0px" y="0px"
	 width="131px" height="64px" viewBox="0 0 131 64" style="enable-background:new 0 0 131 64;" xml:space="preserve">
<path d="M129.1,60.4h-17.6V45.6c0-0.8-0.8-1.6-1.6-1.6H95.1V29.2c0-0.8-0.8-1.6-1.6-1.6H67.9c6.8-0.8,12-6.8,12-13.6
	c0-7.6-6.4-14-14-14c-7.2,0-13.2,5.6-14,12.8l-0.4-0.4c-2.4-1.2-5.6-1.2-8,0l-0.4,0.4C42.7,5.6,36.7,0,29.5,0c-8,0-14,6.4-14,14
	c0,7.2,5.2,12.8,12,13.6H1.9c-0.8,0-1.6,0.8-1.6,1.6v16.4c0,0.8,0.8,1.6,1.6,1.6h14.8v13.2H7.5c-0.8,0-1.6,0.8-1.6,1.6
	c-0.4,1.2,0.4,2,1.6,2h121.6c0.8,0,1.6-0.8,1.6-1.6C130.7,61.2,129.9,60.4,129.1,60.4z M108.3,60.4h-7.2V47.2h7.2V60.4z M13.9,44
	V30.8h60.4V44h-56H13.9z M77.5,44V30.8h4V44H77.5z M93.5,47.2h4.4v13.2H30.3V47.2H93.5z M91.9,44h-7.2V30.8h7.2V44z M65.9,3.2
	c6,0,10.8,4.8,10.8,10.8s-4.8,10.8-10.8,10.8c-5.6,0-10.4-4.8-10.4-10.8S60.3,3.2,65.9,3.2z M18.7,14c0-6,4.8-10.8,10.8-10.8
	S40.3,8,40.3,14s-4.8,10.8-10.8,10.8S18.7,20,18.7,14z M43.1,16.4l2-0.8c1.6-0.8,3.6-0.8,5.6,0l2,0.8c1.2,6,5.6,10.4,11.6,11.2H31.1
	C37.1,26.8,41.9,22.4,43.1,16.4z M3.5,30.8h7.2V44H3.5V30.8z M19.9,47.2h7.2v13.2h-7.2V47.2z"/>
</svg>
