<?xml version="1.0" encoding="utf-8"?>
<!-- Generator: Adobe Illustrator 19.0.1, SVG Export Plug-In . SVG Version: 6.00 Build 0)  -->
<!DOCTYPE svg PUBLIC "-//W3C//DTD SVG 1.1//EN" "http://www.w3.org/Graphics/SVG/1.1/DTD/svg11.dtd">
<svg version="1.1" id="Layer_1" xmlns="http://www.w3.org/2000/svg" xmlns:xlink="http://www.w3.org/1999/xlink" x="0px" y="0px"
	 width="53px" height="64px" viewBox="0 0 53 64" style="enable-background:new 0 0 53 64;" xml:space="preserve">
<path d="M51.2,21h-8v-9c0-0.8-0.7-1.5-1.5-1.5h-8v-9c0-0.8-0.7-1.5-1.5-1.5H1.8C1,0,0.3,0.7,0.3,1.5v37.1v0.3v0.3
	C0.3,41.3,2,43,4.1,43h5.6v6.1v0.3v0.3c0,2.1,1.7,3.9,3.9,3.9h5.6v6.1v0.3v0.3c0,2.1,1.7,3.9,3.9,3.9h28.1c0.8,0,1.5-0.7,1.5-1.5
	v-2.6v-2.6V22.5C52.7,21.6,52,21,51.2,21z M30.7,3v31.8H4.1c-0.3,0-0.6,0-0.8,0.1V3H30.7z M3.3,39.2v-0.3v-0.3
	c0-0.5,0.4-0.8,0.8-0.8h26.6v1.1V40H4.1C3.7,40,3.3,39.6,3.3,39.2z M32.3,43c0.8,0,1.5-0.7,1.5-1.5v-2.6v-2.6V13.5h6.5v31.8H13.6
	c-0.3,0-0.6,0-0.8,0.1V43H32.3z M12.8,49.7v-0.3v-0.3c0-0.5,0.4-0.8,0.8-0.8h26.6v1.1v1.1H13.6C13.2,50.5,12.8,50.1,12.8,49.7z
	 M41.7,53.5c0.8,0,1.5-0.7,1.5-1.5v-2.6v-2.6V24h6.5v31.8H23.1c-0.3,0-0.6,0-0.8,0.1v-2.3H41.7z M49.7,61H23.1
	c-0.5,0-0.8-0.4-0.8-0.8v-0.3v-0.3c0-0.5,0.4-0.8,0.8-0.8h26.6v1.1V61z"/>
</svg>
