<?xml version="1.0" encoding="utf-8"?>
<!-- Generator: Adobe Illustrator 21.0.2, SVG Export Plug-In . SVG Version: 6.00 Build 0)  -->
<!DOCTYPE svg PUBLIC "-//W3C//DTD SVG 1.1//EN" "http://www.w3.org/Graphics/SVG/1.1/DTD/svg11.dtd">
<svg version="1.1" id="Layer_1" xmlns="http://www.w3.org/2000/svg" xmlns:xlink="http://www.w3.org/1999/xlink" x="0px" y="0px"
	 width="126.270752px" height="64px" viewBox="0 0 126.270752 64" style="enable-background:new 0 0 126.270752 64;"
	 xml:space="preserve">
<path d="M110.0079956,59.1240845V43.0427246H94.1056519V26.9614258H72.1308594
	c4.3363037-2.4954834,7.2696533-7.1660156,7.2696533-12.5175171C79.4005127,6.4794312,72.9186401,0,64.9541626,0
	c-7.1516113,0-13.088501,5.2296753-14.229187,12.0623779c-2.3644409-0.8494873-4.979187-0.8509521-7.3453979,0.0002441
	C42.2387695,5.2297974,36.3007812,0,29.1491089,0c-7.9644775,0-14.4439697,6.4794312-14.4439697,14.4439087
	c0,5.3515015,2.932312,10.0220337,7.2678833,12.5175171H0v20.9572144h15.9035645v11.2054443H7.7129517V64h8.1906128h94.1044312
	h16.2627563v-4.8759155H110.0079956z M64.9541626,4.8734741c5.2774048,0,9.5704346,4.2930298,9.5704346,9.5704346
	s-4.2930298,9.5704346-9.5704346,9.5704346c-5.2761841,0-9.5692139-4.2930298-9.5692139-9.5704346
	S59.6779785,4.8734741,64.9541626,4.8734741z M43.2984619,17.3536377l1.4324951-0.6035767
	c1.4753418-0.6191406,3.1659546-0.621582,4.6425171,0l1.4325562,0.6036377
	c0.8436279,4.1091309,3.444397,7.5769043,6.9724121,9.6077271H36.3251953
	C39.8535156,24.930603,42.4546509,21.4627686,43.2984619,17.3536377z M19.5786743,14.4439087
	c0-5.2774048,4.2930298-9.5704346,9.5704346-9.5704346s9.5704346,4.2930298,9.5704346,9.5704346
	s-4.2930298,9.5704346-9.5704346,9.5704346S19.5786743,19.7213135,19.5786743,14.4439087z M4.8735352,43.0427246V31.8348999
	h84.3562012v11.2078247H15.9035645H4.8735352z M105.1320801,59.1240845H20.7770996V47.9186401h73.3285522h11.0264282V59.1240845z"/>
</svg>
