<?xml version="1.0" encoding="utf-8"?>
<!-- Generator: Adobe Illustrator 19.0.1, SVG Export Plug-In . SVG Version: 6.00 Build 0)  -->
<!DOCTYPE svg PUBLIC "-//W3C//DTD SVG 1.1//EN" "http://www.w3.org/Graphics/SVG/1.1/DTD/svg11.dtd">
<svg version="1.1" id="Layer_1" xmlns="http://www.w3.org/2000/svg" xmlns:xlink="http://www.w3.org/1999/xlink" x="0px" y="0px"
	 width="86px" height="64px" viewBox="0 0 86 64" style="enable-background:new 0 0 86 64;" xml:space="preserve">
<g>
	<path d="M84.4,60.8H76c0.4-0.4,0.4-0.8,0.4-1.2L67.2,1.2c0-0.4-0.4-0.8-0.4-0.8C66.4,0,66,0,65.6,0L50,2.4c-0.4,0-0.8,0.4-0.8,0.4
		c-0.4,0.4-0.4,0.8-0.4,1.2l8.8,56.8H48V3.2C48,2.4,47.2,2,46.8,2h-16c-0.8,0-1.2,0.8-1.2,1.2v57.6h-2.8V3.2C26.8,2.4,26,2,25.6,2
		h-16C8.8,2,8.4,2.8,8.4,3.2v57.6H1.2C0.4,60.8,0,61.6,0,62c0,0.8,0.8,1.2,1.2,1.2h7.6C8.8,64,9.2,64,9.6,64h16c0.4,0,0.8,0,0.8-0.4
		H30c0,0.4,0.4,0.4,0.8,0.4h16c0.4,0,0.8,0,0.8-0.4h10.8c0.4,0,0.4,0.4,0.8,0.4c0,0,0,0,0.4,0l1.6-0.4h23.6c0.8,0,1.2-0.8,1.2-1.2
		C86,61.6,85.2,60.8,84.4,60.8z M51.6,4.8l12.8-2l8.8,56l-12.8,2H60L51.6,4.8z M45.2,49.6H32V16h13.2V49.6z M45.2,13.2H32v-1.6h13.2
		V13.2z M32,52.4h13.2v2H32V52.4z M45.2,4.8v4H32v-4H45.2z M32,57.2h13.2v3.6H32V57.2z M10.8,11.6H24v43.2H10.8V11.6z M24,4.8v4
		H10.8v-4H24z M10.8,57.2H24v3.6H10.8V57.2z"/>
	<path d="M62.4,36.4c0.4,0,0.4,0,0.8,0c2.4-0.4,4.4-2.8,4-5.2c0-1.2-0.8-2.4-2-3.2c-1.2-0.8-2.4-1.2-3.6-0.8c-2.4,0.4-4.4,2.8-4,5.2
		C58.4,34.8,60.4,36.4,62.4,36.4z"/>
</g>
</svg>
