<?xml version="1.0" encoding="utf-8"?>
<!-- Generator: Adobe Illustrator 20.0.0, SVG Export Plug-In . SVG Version: 6.00 Build 0)  -->
<!DOCTYPE svg PUBLIC "-//W3C//DTD SVG 1.1//EN" "http://www.w3.org/Graphics/SVG/1.1/DTD/svg11.dtd">
<svg version="1.1" id="Layer_1" xmlns="http://www.w3.org/2000/svg" xmlns:xlink="http://www.w3.org/1999/xlink" x="0px" y="0px"
	 width="129.45013px" height="64px" viewBox="0 0 129.45013 64" style="enable-background:new 0 0 129.45013 64;"
	 xml:space="preserve">
<path d="M119.43854,12.12301c-6.40098,7.74515-17.15431,16.02011-28.15489,16.02011c0,0-0.00393,0-0.00785,0h-2.00938v0.01374
	l-17.26543-0.00049c-0.27473-0.01251-0.53326-0.08193-0.81116-0.08193H39.06718c-0.27546,0-0.53178,0.06893-0.80405,0.08119
	L0,28.1549v4.01877l27.78501,0.00049c-4.04207,3.2964-6.68061,8.25191-6.68061,13.86307C21.1044,55.94285,29.16155,64,39.06718,64
	h32.12264c9.90562,0,17.96278-8.05715,17.96278-17.96278c0-5.61043-2.6378-10.56545-6.67913-13.86184l6.79295,0.00024v0.01374
	h2.00938c0.00392,0,0.00392,0,0.00785,0c10.99666,0,21.75391,8.27496,28.15489,16.02208l10.0116,12.11909V0L119.43854,12.12301z
	 M85.13383,46.03722c0,7.68824-6.25578,13.94401-13.94402,13.94401H39.06718c-7.68824,0-13.94401-6.25577-13.94401-13.94401
	c0-7.41303,5.83216-13.43701,13.14021-13.86283l33.73736,0.00074C79.3056,32.60463,85.13383,38.62664,85.13383,46.03722z
	 M125.43137,49.15334l-2.89241-3.50072c-4.98421-6.03207-12.46053-12.35849-20.83949-15.48637
	c8.37897-3.12789,15.85529-9.45234,20.83949-15.48441l2.89241-3.50464V49.15334z"/>
</svg>
