<?xml version="1.0" encoding="utf-8"?>
<!-- Generator: Adobe Illustrator 19.2.1, SVG Export Plug-In . SVG Version: 6.00 Build 0)  -->
<!DOCTYPE svg PUBLIC "-//W3C//DTD SVG 1.1//EN" "http://www.w3.org/Graphics/SVG/1.1/DTD/svg11.dtd">
<svg version="1.1" id="Layer_1" xmlns="http://www.w3.org/2000/svg" xmlns:xlink="http://www.w3.org/1999/xlink" x="0px" y="0px"
	 width="193px" height="64px" viewBox="0 0 193 64" style="enable-background:new 0 0 193 64;" xml:space="preserve">
<path d="M157.9,3.3c-1.1-0.4-2.4-0.1-3.2,0.9l-5.8,7.1c-5.6,6.8-15.1,14.1-24.7,14.1c0,0,0,0,0,0c0,0-0.1,0-0.1,0h-23.1
	c-0.5,0-1.1-0.1-1.6-0.1H41.4c-0.6,0-1.1,0-1.6,0.1H8.6v-0.6c0-2.2-1.8-4-4-4H4.3c-2.2,0-4,1.8-4,4v6.8c0,2.2,1.8,4,4,4h0.2
	c2.2,0,4-1.8,4-4v-0.5h19c-3.4,3.5-5.5,8.3-5.5,13.5c0,10.7,8.7,19.3,19.3,19.3h57.9c10.7,0,19.3-8.7,19.3-19.3
	c0-5.3-2.1-10-5.5-13.5H124c0,0,0.1,0,0.1,0c0,0,0,0,0,0c9.6,0,19.1,7.3,24.7,14.1l5.8,7.1c0.6,0.7,1.4,1,2.2,1c0.3,0,0.7-0.1,1-0.2
	c1.1-0.4,1.9-1.5,1.9-2.7V6C159.8,4.8,159,3.7,157.9,3.3z M99.3,58.3H41.4c-7.5,0-13.6-6.1-13.6-13.6c0-7,5.3-12.8,12.1-13.5h60.8
	c6.8,0.7,12.1,6.5,12.1,13.5C112.9,52.2,106.8,58.3,99.3,58.3z"/>
<path d="M190.8,26.3C190.8,26.3,190.8,26.3,190.8,26.3l-11.4,0c-1.1,0-1.9,0.9-1.9,1.9c0,1.1,0.9,1.9,1.9,1.9c0,0,0,0,0,0l11.4,0
	c1.1,0,1.9-0.9,1.9-1.9C192.7,27.2,191.9,26.3,190.8,26.3z"/>
<path d="M175.2,19.7c0.4,0.6,1,1,1.7,1c0.3,0,0.7-0.1,1-0.3l9.8-5.7c0.9-0.5,1.2-1.7,0.7-2.6s-1.7-1.2-2.6-0.7l-9.8,5.7
	C175,17.6,174.7,18.8,175.2,19.7z"/>
<path d="M168.9,13.4c0.3,0.2,0.6,0.3,0.9,0.3c0.7,0,1.3-0.3,1.7-1l5.7-9.9c0.5-0.9,0.2-2.1-0.7-2.6c-0.9-0.5-2.1-0.2-2.6,0.7
	l-5.7,9.9C167.7,11.7,168,12.9,168.9,13.4z"/>
<path d="M171.6,43.8c-0.5-0.9-1.7-1.2-2.6-0.7c-0.9,0.5-1.2,1.7-0.7,2.6l5.7,9.8c0.4,0.6,1,1,1.7,1c0.3,0,0.7-0.1,1-0.3
	c0.9-0.5,1.2-1.7,0.7-2.6L171.6,43.8z"/>
<path d="M187.7,41.8l-9.9-5.7c-0.9-0.5-2.1-0.2-2.6,0.7c-0.5,0.9-0.2,2.1,0.7,2.6l9.9,5.7c0.3,0.2,0.6,0.3,0.9,0.3
	c0.7,0,1.3-0.3,1.7-1C189,43.5,188.6,42.3,187.7,41.8z"/>
</svg>
