<?xml version="1.0" encoding="utf-8"?>
<!-- Generator: Adobe Illustrator 19.0.1, SVG Export Plug-In . SVG Version: 6.00 Build 0)  -->
<!DOCTYPE svg PUBLIC "-//W3C//DTD SVG 1.1//EN" "http://www.w3.org/Graphics/SVG/1.1/DTD/svg11.dtd">
<svg version="1.1" id="Layer_1" xmlns="http://www.w3.org/2000/svg" xmlns:xlink="http://www.w3.org/1999/xlink" x="0px" y="0px"
	 width="94px" height="64px" viewBox="0 0 94 64" style="enable-background:new 0 0 94 64;" xml:space="preserve">
<g>
	<g>
		<g>
			<circle cx="6.8" cy="6.6" r="6.6"/>
		</g>
		<g>
			<circle cx="6.8" cy="32" r="6.6"/>
		</g>
		<g>
			<circle cx="6.8" cy="57.4" r="6.6"/>
		</g>
		<g>
			<path d="M89.2,11.3H30.4c-2.6,0-4.6-2.1-4.6-4.6S27.8,2,30.4,2h58.9c2.6,0,4.6,2.1,4.6,4.6S91.8,11.3,89.2,11.3z"/>
		</g>
		<g>
			<path d="M89.2,36.6H30.4c-2.6,0-4.6-2.1-4.6-4.6c0-2.6,2.1-4.6,4.6-4.6h58.9c2.6,0,4.6,2.1,4.6,4.6
				C93.9,34.6,91.8,36.6,89.2,36.6z"/>
		</g>
		<g>
			<path d="M89.2,62H30.4c-2.6,0-4.6-2.1-4.6-4.6c0-2.6,2.1-4.6,4.6-4.6h58.9c2.6,0,4.6,2.1,4.6,4.6C93.9,59.9,91.8,62,89.2,62z"/>
		</g>
	</g>
</g>
</svg>
