<?xml version="1.0" encoding="utf-8"?>
<!-- Generator: Adobe Illustrator 19.0.1, SVG Export Plug-In . SVG Version: 6.00 Build 0)  -->
<!DOCTYPE svg PUBLIC "-//W3C//DTD SVG 1.1//EN" "http://www.w3.org/Graphics/SVG/1.1/DTD/svg11.dtd">
<svg version="1.1" id="Layer_1" xmlns="http://www.w3.org/2000/svg" xmlns:xlink="http://www.w3.org/1999/xlink" x="0px" y="0px"
	 width="71px" height="64px" viewBox="0 0 71 64" style="enable-background:new 0 0 71 64;" xml:space="preserve">
<g>
	<path d="M70.4,32.6c0.2-0.4,0.2-0.9,0-1.3c0-0.1-0.1-0.1-0.1-0.2c0-0.1-0.1-0.1-0.1-0.2L62,18.8c-0.6-0.8-1.7-1.1-2.6-0.5
		c-0.8,0.6-1.1,1.7-0.5,2.6l6.3,9.2H30.7c-1,0-1.9,0.8-1.9,1.9c0,1,0.8,1.9,1.9,1.9h34.5l-6.3,9.2c-0.6,0.8-0.4,2,0.5,2.6
		c0.3,0.2,0.7,0.3,1,0.3c0.6,0,1.2-0.3,1.5-0.8L70.2,33c0-0.1,0.1-0.1,0.1-0.2C70.4,32.8,70.4,32.7,70.4,32.6z"/>
	<path d="M50.7,53.5c-5.1,4.4-11.6,6.8-18.3,6.8C16.9,60.3,4.2,47.6,4.2,32c0-15.6,12.7-28.3,28.3-28.3c6.7,0,13.2,2.4,18.3,6.7
		c0.8,0.7,2,0.6,2.6-0.2c0.7-0.8,0.6-2-0.2-2.6C47.4,2.7,40,0,32.5,0c-17.6,0-32,14.4-32,32c0,17.6,14.4,32,32,32
		c7.6,0,14.9-2.7,20.7-7.7c0.8-0.7,0.9-1.8,0.2-2.6C52.7,52.9,51.5,52.8,50.7,53.5z"/>
</g>
</svg>
