<?xml version="1.0" encoding="utf-8"?>
<!-- Generator: Adobe Illustrator 22.1.0, SVG Export Plug-In . SVG Version: 6.00 Build 0)  -->
<svg version="1.1" id="Layer_1" xmlns="http://www.w3.org/2000/svg" xmlns:xlink="http://www.w3.org/1999/xlink" x="0px" y="0px"
	 viewBox="0 0 64 41.4" style="enable-background:new 0 0 64 41.4;" xml:space="preserve">
<path d="M38.2,28.4c-0.8-0.4-1.7-0.1-2.1,0.6c-3.1,5.6-9,9.1-15.4,9.1c-9.7,0-17.5-7.9-17.5-17.5C3.2,11,11,3.2,20.7,3.2
	c6.4,0,12.3,3.5,15.4,9.1c0.4,0.8,1.4,1,2.1,0.6c0.8-0.4,1-1.4,0.6-2.1C35.2,4.1,28.3,0,20.7,0C9.3,0,0,9.3,0,20.7
	s9.3,20.7,20.7,20.7c7.6,0,14.5-4.1,18.2-10.8C39.3,29.8,39,28.9,38.2,28.4z"/>
<path d="M62.9,19.6C62.9,19.6,62.9,19.6,62.9,19.6L50.4,7.1c-0.6-0.6-1.6-0.6-2.2,0c-0.6,0.6-0.6,1.6,0,2.2l9.8,9.8h-36
	c-0.9,0-1.6,0.7-1.6,1.6s0.7,1.6,1.6,1.6h36L48.2,32c-0.6,0.6-0.6,1.6,0,2.2c0.3,0.3,0.7,0.5,1.1,0.5s0.8-0.2,1.1-0.5l12.5-12.5
	c0,0,0,0,0,0l1.1-1.1L62.9,19.6z"/>
</svg>
