<?xml version="1.0" encoding="utf-8"?>
<!-- Generator: Adobe Illustrator 20.0.0, SVG Export Plug-In . SVG Version: 6.00 Build 0)  -->
<!DOCTYPE svg PUBLIC "-//W3C//DTD SVG 1.1//EN" "http://www.w3.org/Graphics/SVG/1.1/DTD/svg11.dtd">
<svg version="1.1" id="Layer_1" xmlns="http://www.w3.org/2000/svg" xmlns:xlink="http://www.w3.org/1999/xlink" x="0px" y="0px"
	 width="115.70525px" height="64px" viewBox="0 0 115.70525 64" style="enable-background:new 0 0 115.70525 64;"
	 xml:space="preserve">
<path d="M17.88243,64c-5.33459-0.35033-10.5409-3.77402-14.34588-9.39524c-4.44549-6.56783-4.71885-14.9917-0.71305-21.98681
	c3.75544-6.55986,10.36485-10.19676,17.69526-9.72169c3.91026,0.25213,7.69932,1.6508,10.86557,3.98281
	c-0.00089-0.0752-0.00177-0.15039-0.00177-0.22648C31.38256,11.95637,43.33894,0,58.03515,0
	C69.24751,0,79.17179,6.96062,83.0272,17.42012c3.81295-1.4491,7.96384-1.90824,12.07227-1.32347
	c10.41262,1.47652,18.98335,10.10829,20.38113,20.52445l0,0c0.88468,6.58728-0.86167,13.05602-4.91702,18.21545
	c-4.00758,5.09926-9.98975,8.41148-16.41071,9.08914L17.88243,64z M19.26252,24.66738c-6.16176,0-11.65912,3.24941-14.86695,8.85028
	c-3.65901,6.39089-3.41307,14.08048,0.64139,20.0715c3.48916,5.15588,8.19209,8.29117,12.90386,8.6008l76.1165-0.07077
	c5.84239-0.62104,11.37514-3.68555,15.08193-8.40087c3.75101-4.77193,5.36466-10.75764,4.54723-16.85659
	c-1.2934-9.62703-9.21654-17.60591-18.8418-18.97096c-4.11197-0.58123-8.25578-0.04335-12.00504,1.55791l-0.90768,0.38749
	l-0.30786-0.93776C78.26588,8.67866,68.78571,1.81181,58.03515,1.81181c-13.69741,0-24.84077,11.14336-24.84077,24.84077
	c0,0.72632,0.04866,1.44025,0.10881,2.15064l0.1964,2.29662l-1.70742-1.54906c-3.14767-2.85485-7.1924-4.57642-11.39018-4.84625
	C20.0198,24.67976,19.64028,24.66738,19.26252,24.66738z"/>
<polygon points="72.02008,38.2542 58.56418,24.79742 45.10917,38.2542 46.39018,39.53521 57.65828,28.26546 57.65828,51.7101 
	59.47009,51.7101 59.47009,28.26546 70.73907,39.53521 "/>
</svg>
