<svg id="Layer_1" data-name="Layer 1" xmlns="http://www.w3.org/2000/svg" viewBox="0 0 62.7624 64"><title>collection-smart</title><path id="collection-smart-a" d="M11.681,2.25715H51.08186V0H11.681ZM31.38188,51.22993a3.94212,3.94212,0,1,1,3.941-3.94325,3.94858,3.94858,0,0,1-3.941,3.94325m0-10.14139A6.19927,6.19927,0,1,0,37.58,47.28668a6.20607,6.20607,0,0,0-6.19814-6.19814m11.10519,15.8714L39.7672,55.389a1.13109,1.13109,0,0,0-1.29786.11963c-.11512.09931-.22572.20314-.33406.307a2.84968,2.84968,0,0,1-.33857.3002A10.67433,10.67433,0,0,1,34.95947,57.54a1.12924,1.12924,0,0,0-.75615,1.06537v3.13744H28.55818V58.64829a1.12825,1.12825,0,0,0-.75841-1.06538,10.8478,10.8478,0,0,1-3.53244-2.05175A1.128,1.128,0,0,0,22.965,55.407l-2.69052,1.55292-2.8237-4.89125,2.69955-1.55518a1.1307,1.1307,0,0,0,.544-1.18952,10.80151,10.80151,0,0,1-.00452-4.07416,1.13068,1.13068,0,0,0-.544-1.18952l-2.695-1.55518,2.8237-4.889,2.71987,1.56872a1.12364,1.12364,0,0,0,1.29786-.11963c.11511-.09932.22572-.20315.33406-.30472a3.30641,3.30641,0,0,1,.33857-.30246,10.67246,10.67246,0,0,1,2.83724-1.422,1.12925,1.12925,0,0,0,.75615-1.06538V32.83548h5.64514v3.09231a1.12825,1.12825,0,0,0,.7584,1.06537,10.8079,10.8079,0,0,1,3.53245,2.05175,1.13147,1.13147,0,0,0,1.30463.12415l2.68827-1.55292,2.8237,4.889-2.6973,1.55743a1.12879,1.12879,0,0,0-.54623,1.18952,10.80154,10.80154,0,0,1,.00451,4.07417,1.12876,1.12876,0,0,0,.54624,1.18951l2.69278,1.55293Zm4.92962-6.28166L44.41694,48.947a13.16452,13.16452,0,0,0-.00226-3.318l3.002-1.7335a1.12415,1.12415,0,0,0,.41081-1.54163l-3.95228-6.84369a1.122,1.122,0,0,0-1.53938-.41306l-2.99524,1.729a12.99167,12.99167,0,0,0-2.88013-1.67481V31.70691a1.12754,1.12754,0,0,0-1.12858-1.12858H27.4296A1.12754,1.12754,0,0,0,26.301,31.70691v3.48053a12.15443,12.15443,0,0,0-2.6657,1.44683q-.1185.088-.23023.18283l-2.97719-1.72a1.129,1.129,0,0,0-1.54163.41306L14.934,42.3539a1.12454,1.12454,0,0,0,.41306,1.54163l2.9975,1.73124a13.06029,13.06029,0,0,0,.00451,3.318l-3.002,1.73349a1.12508,1.12508,0,0,0-.41306,1.54164l3.95228,6.84594a1.11913,1.11913,0,0,0,.68617.52592,1.13442,1.13442,0,0,0,.85546-.11286l2.993-1.729A12.99144,12.99144,0,0,0,26.301,59.42475v3.44667A1.129,1.129,0,0,0,27.4296,64h7.90229a1.129,1.129,0,0,0,1.12858-1.12858V59.38863a12.15443,12.15443,0,0,0,2.6657-1.44683q.1185-.088.23023-.18283l2.97944,1.72a1.13443,1.13443,0,0,0,.85546.11286,1.11466,1.11466,0,0,0,.68392-.52592l3.95228-6.84594A1.12634,1.12634,0,0,0,47.41669,50.67828ZM0,15.82851V53.69226H9.04216V51.4351h-6.785V18.08567h58.2481V51.4351h-6.785v2.25716H62.7624V15.82851Zm6.40377-5.65778H56.35908V7.91358H6.40377Z"/></svg>