<svg id="Layer_1" data-name="Layer 1" xmlns="http://www.w3.org/2000/svg" viewBox="0 0 63.22175 64"><title>collection-manual</title><path id="collection-manual-a" d="M31.44831,61.7264a14.09285,14.09285,0,1,1,14.094-14.094,14.10842,14.10842,0,0,1-14.094,14.094m0-30.45929A16.36645,16.36645,0,1,0,47.8159,47.63242,16.38382,16.38382,0,0,0,31.44831,31.26711m1.30573,8.1897h-2.2736v7.039H23.43913v2.27359h7.04131v7.04131H32.754V48.76944h7.039V46.49585H32.754ZM0,15.94492V54.08441H9.11028V51.81082H2.27359V18.21851H60.94816V51.81082H54.11147v2.27359h9.11028V15.94492Zm6.45291-5.69784H56.76975V7.97348H6.45291Zm5.31338-7.97349H51.45637V0H11.76629Z"/></svg>