<?xml version="1.0" encoding="utf-8"?>
<!-- Generator: Adobe Illustrator 19.0.1, SVG Export Plug-In . SVG Version: 6.00 Build 0)  -->
<!DOCTYPE svg PUBLIC "-//W3C//DTD SVG 1.1//EN" "http://www.w3.org/Graphics/SVG/1.1/DTD/svg11.dtd">
<svg version="1.1" id="Layer_1" xmlns="http://www.w3.org/2000/svg" xmlns:xlink="http://www.w3.org/1999/xlink" x="0px" y="0px"
	 width="55px" height="64px" viewBox="0 0 55 64" style="enable-background:new 0 0 55 64;" xml:space="preserve">
<g>
	<g>
		<g>
			<g>
				<path d="M46.8,30.8c0-0.1,0-0.1,0-0.2c0-0.1,0-0.1,0-0.2c0,0,0-0.1,0-0.1c-0.1-0.3-0.4-0.7-0.7-0.8L28.2,19.2
					c-0.5-0.3-1.1-0.3-1.5,0L9.2,29.3c-0.1,0-0.1,0.1-0.2,0.2c0,0-0.1,0.1-0.1,0.1c-0.1,0.1-0.1,0.1-0.1,0.2c0,0-0.1,0.1-0.1,0.1
					c0,0.1-0.1,0.1-0.1,0.2c0,0.1-0.1,0.1-0.1,0.2c0,0.1,0,0.1,0,0.2c0,0.1,0,0.1,0,0.2L8.4,52.1c0,0.6,0.3,1.1,0.8,1.3L27,63.8
					c0.2,0.1,0.5,0.2,0.8,0.2c0.1,0,0.3,0,0.4-0.1c0,0,0,0,0,0c0.1,0,0.3-0.1,0.4-0.2c0,0,0,0,0,0L46,53.7c0.5-0.3,0.8-0.8,0.8-1.3
					L46.8,30.8C46.8,30.8,46.8,30.8,46.8,30.8C46.8,30.8,46.8,30.8,46.8,30.8z M27.4,22.3l14.8,8.5l-10.9,6.3l-3.4,2l-14.8-8.5
					L27.4,22.3z M11.5,33.3l1.5,0.8l13.3,7.7l0,13.3l0,4.6l-14.8-8.5L11.5,33.3z M29.4,59.8l0.1-17.9l14.3-8.3l-0.1,17.9L29.4,59.8z
					"/>
			</g>
		</g>
	</g>
	<g>
		<g>
			<path d="M27.4,14.2c-0.8,0-1.5-0.7-1.5-1.5L25.7,1.6c0-0.8,0.7-1.6,1.5-1.6c0,0,0,0,0,0c0.8,0,1.5,0.7,1.5,1.5L29,12.7
				C29,13.5,28.3,14.2,27.4,14.2C27.4,14.2,27.4,14.2,27.4,14.2z"/>
		</g>
		<g>
			<path d="M18.1,16.9c-0.5,0-1-0.3-1.3-0.7L11,6.6c-0.4-0.7-0.2-1.7,0.5-2.1c0.7-0.4,1.7-0.2,2.1,0.5l5.8,9.6
				c0.4,0.7,0.2,1.7-0.5,2.1C18.7,16.9,18.4,16.9,18.1,16.9z"/>
		</g>
		<g>
			<path d="M11.4,23.9c-0.3,0-0.5-0.1-0.7-0.2l-9.8-5.4c-0.7-0.4-1-1.3-0.6-2.1c0.4-0.7,1.3-1,2.1-0.6l9.8,5.4
				c0.7,0.4,1,1.3,0.6,2.1C12.5,23.6,11.9,23.9,11.4,23.9z"/>
		</g>
		<g>
			<path d="M43.8,23.3c-0.5,0-1-0.3-1.3-0.7c-0.4-0.7-0.2-1.7,0.5-2.1l9.6-5.8c0.7-0.4,1.7-0.2,2.1,0.5c0.4,0.7,0.2,1.7-0.5,2.1
				l-9.6,5.8C44.4,23.2,44.1,23.3,43.8,23.3z"/>
		</g>
		<g>
			<path d="M36.8,16.6c-0.3,0-0.5-0.1-0.7-0.2c-0.7-0.4-1-1.3-0.6-2.1l5.4-9.8c0.4-0.7,1.3-1,2.1-0.6c0.7,0.4,1,1.3,0.6,2.1
				l-5.4,9.8C37.9,16.3,37.4,16.6,36.8,16.6z"/>
		</g>
	</g>
</g>
</svg>
