<?xml version="1.0" encoding="utf-8"?>
<!-- Generator: Adobe Illustrator 21.1.0, SVG Export Plug-In . SVG Version: 6.00 Build 0)  -->
<!DOCTYPE svg PUBLIC "-//W3C//DTD SVG 1.1//EN" "http://www.w3.org/Graphics/SVG/1.1/DTD/svg11.dtd">
<svg version="1.1" id="Layer_1" xmlns="http://www.w3.org/2000/svg" xmlns:xlink="http://www.w3.org/1999/xlink" x="0px" y="0px"
	 width="62.2404213px" height="64px" viewBox="0 0 62.2404213 64" style="enable-background:new 0 0 62.2404213 64;"
	 xml:space="preserve">
<path d="M62.2167816,35.9597473c-0.0084229-0.0691795-0.0172653-0.135231-0.0399437-0.2010422
	c-0.0205765-0.0598564-0.0496902-0.1118317-0.0809135-0.1657333c-0.0314598-0.0551033-0.062439-0.1073189-0.1046104-0.155983
	c-0.0445747-0.0513153-0.0959511-0.091198-0.1500893-0.1324043c-0.0335693-0.0256882-0.0560074-0.0608215-0.093605-0.0825348
	L47.1817818,26.813118l0.0483665-17.0329781c0.0001221-0.0421095-0.0186462-0.078083-0.0236397-0.1188698
	c-0.0084229-0.0692396-0.0172653-0.1353521-0.0399437-0.2012234c-0.0205154-0.0596151-0.0496902-0.1114101-0.0806732-0.1651907
	c-0.0315208-0.0552835-0.0625-0.1076193-0.1048508-0.1564665c-0.0445175-0.0513744-0.0960693-0.091258-0.1502724-0.1325254
	c-0.0335083-0.0256262-0.0559464-0.0606976-0.0934219-0.0823545L31.5100269,0.1324658
	c-0.306076-0.177101-0.682415-0.1766198-0.9880104,0.0014438L15.6753683,8.7618093
	c-0.0171442,0.0099859-0.0263481,0.02701-0.0426512,0.037838c-0.036334,0.0238819-0.068759,0.0499296-0.101965,0.078805
	c-0.0351315,0.0305595-0.0658722,0.0620823-0.0963707,0.0972738c-0.0286951,0.0331459-0.0549231,0.0652094-0.0786848,0.1014833
	c-0.0111294,0.0168447-0.028635,0.0264091-0.0388613,0.044095c-0.0101671,0.0176258-0.0096855,0.0375376-0.0186491,0.0555248
	c-0.0196714,0.0390415-0.0345898,0.0782032-0.0489674,0.1200724c-0.0152197,0.0442152-0.0271301,0.0867462-0.0359735,0.1327057
	c-0.0081215,0.0422897-0.0141973,0.0825348-0.0167236,0.1250658c-0.0012636,0.0197916-0.0114899,0.0364542-0.0115499,0.0565472
	l-0.0481853,16.9683113L0.5423755,35.0613098c-0.016904,0.0098038-0.0259275,0.0266495-0.0420494,0.0372963
	c-0.0366955,0.0240631-0.0694809,0.0501099-0.102928,0.0792274c-0.0351315,0.0305595-0.0657512,0.0622597-0.0962506,0.0974541
	c-0.0284541,0.0329056-0.0545019,0.0646667-0.0781434,0.1005821c-0.0111891,0.016964-0.0288752,0.0265884-0.0391619,0.0444527
	c-0.0102266,0.017746-0.0097454,0.0377808-0.0187689,0.0558853c-0.0197314,0.0391045-0.0345299,0.0783272-0.0489073,0.1201363
	c-0.0151595,0.0440331-0.0270103,0.0864449-0.0358533,0.1322212C0.0721916,35.770916,0.0660556,35.8111,0.063529,35.8536911
	c-0.0012633,0.0197334-0.0114899,0.0365143-0.0115501,0.0565491L0.0000037,54.2209435
	c-0.0009625,0.353241,0.1872073,0.6795311,0.4928028,0.8566322l15.2268372,8.7905617
	c0.0012035,0.000721,0.0025864,0.000843,0.0037899,0.001564c0.0226793,0.0129318,0.0478849,0.01931,0.0714054,0.0303192
	c0.0246649,0.0116692,0.0490885,0.0205727,0.0747747,0.0301971c0.0128736,0.0048141,0.0251455,0.0111313,0.0381994,0.0153999
	c0.0983572,0.0321236,0.1982164,0.0531807,0.2984381,0.0537224C16.2073936,63.9993401,16.208416,64,16.2095585,64
	c0.0009632,0,0.0019245,0,0.0028877,0c0.0001202,0,0.0002403-0.000061,0.0003605-0.000061
	C16.2129879,63.999939,16.2132282,64,16.2134094,64c0.0593147,0,0.1185684-0.0123329,0.177763-0.0232811
	c0.023941-0.0044518,0.048727-0.0032463,0.0722466-0.0094452c0.0164833-0.0043907,0.0318832-0.0144348,0.0483074-0.0196686
	c0.0134735-0.0043335,0.0259266-0.0110092,0.0392208-0.0158844c0.02701-0.0099831,0.0523968-0.0196114,0.0782642-0.0318222
	c0.0244827-0.0114899,0.0505924-0.0184059,0.0741119-0.0318832c0.0013847-0.000782,0.0029488-0.0009613,0.0043316-0.0018044
	l14.528059-8.4427376l14.6276779,8.444664c0.0013847,0.000782,0.003006,0.0010223,0.0043907,0.0018044
	c0.0224991,0.0128136,0.0474052,0.0190697,0.0707436,0.0300179c0.0246658,0.0116692,0.0492706,0.0206337,0.075016,0.0302582
	c0.0067368,0.0025253,0.013176,0.0057755,0.0199699,0.0081215c0.1039543,0.0362129,0.2098885,0.0604591,0.3165474,0.0610008
	C46.3512001,63.9993401,46.3521652,64,46.3533058,64c0.0009613,0,0.0019264,0,0.0028877,0
	c0.0001221,0,0.0002403-0.000061,0.0003624-0.000061C46.3567352,63.999939,46.3569756,64,46.3571548,64
	c0.070385,0,0.1407661-0.0121498,0.2106094-0.0275536c0.0128746-0.0028267,0.0264702-0.0017433,0.0392227-0.0051117
	c0.0231018-0.006134,0.0446968-0.0195503,0.0675545-0.0274315c0.0069199-0.0024071,0.0133553-0.0057144,0.0202141-0.0082397
	c0.0268898-0.0099258,0.0523376-0.0194931,0.078022-0.0316429c0.0243034-0.0113716,0.0503502-0.0181084,0.0736923-0.0315247
	c0.0017433-0.0010223,0.0036697-0.0012627,0.0054131-0.002285l14.8466492-8.6278992
	c0.302227-0.1751747,0.4889526-0.4985771,0.4899139-0.8489304l0.0519753-18.3107033
	C62.2405434,36.0365067,62.2217751,36.0005341,62.2167816,35.9597473z M30.4101849,18.9734516l-0.0455379,16.038229
	l-13.2589951-7.654747L17.15131,11.3185844L30.4101849,18.9734516z M32.3354378,35.0009727l0.0455971-16.057539
	l12.8731499-7.4805336L45.208889,27.5200787L32.3354378,35.0009727z M31.0186691,2.1253335L44.251976,9.7651606
	l-12.8824139,7.4858866L18.1372166,9.6112804L31.0186691,2.1253335z M15.2316532,61.3099785l-13.2589941-7.654026
	l0.0456587-16.0383492l13.2583933,7.6543846L15.2316532,61.3099785z M16.2369308,43.5498276L3.0038631,35.9100571
	l12.4716043-7.247303c0.0475245,0.0414467,0.0945663,0.0835571,0.1503315,0.1158009l13.05723,7.5384617L16.2369308,43.5498276z
	 M30.0749321,53.818615l-12.8720684,7.4805946l0.0451794-16.0577202l12.8726082-7.4807129L30.0749321,53.818615z
	 M45.3754005,61.3099785l-13.2585144-7.654026l0.0452385-16.0383492l13.2588158,7.6543846L45.3754005,61.3099785z
	 M46.3806763,43.5495834l-12.4577065-7.1919594l12.7643242-7.4173679c0.0374794-0.0217781,0.067318-0.0519753,0.1010666-0.0780239
	l12.4738884,7.2014656L46.3806763,43.5495834z M60.219162,53.818615l-12.8724899,7.4803543l0.0455971-16.0574799
	l12.8721886-7.4804726L60.219162,53.818615z"/>
</svg>
