<?xml version="1.0" encoding="utf-8"?>
<!-- Generator: Adobe Illustrator 20.0.0, SVG Export Plug-In . SVG Version: 6.00 Build 0)  -->
<!DOCTYPE svg PUBLIC "-//W3C//DTD SVG 1.1//EN" "http://www.w3.org/Graphics/SVG/1.1/DTD/svg11.dtd">
<svg version="1.1" id="Layer_1" xmlns="http://www.w3.org/2000/svg" xmlns:xlink="http://www.w3.org/1999/xlink" x="0px" y="0px"
	 width="47.22322px" height="64px" viewBox="0 0 47.22322 64" style="enable-background:new 0 0 47.22322 64;" xml:space="preserve"
	>
<path d="M46.32474,13.24384c-0.00254-0.00259-0.00322-0.00615-0.00575-0.00869l-12.3427-12.3405
	c-0.00316-0.00316-0.00615-0.00615-0.00931-0.00931l-0.06103-0.06097c-0.01952-0.01952-0.04529-0.02651-0.06605-0.04388
	C33.30312,0.30068,32.60266,0,31.82763,0H0.9241C0.41377,0,0,0.41377,0,0.9241V63.0759C0,63.58669,0.41377,64,0.9241,64h45.37503
	c0.51078,0,0.9241-0.41331,0.9241-0.9241V15.39559C47.22322,14.55491,46.87889,13.79388,46.32474,13.24384z M34.86163,4.39312
	l7.96994,7.96847h-7.96994V4.39312z M45.37503,62.15181H1.84819V1.84819h29.97944c0.32465,0,0.61828,0.13204,0.83256,0.34389
	l0.00953,0.00953c0.21185,0.21433,0.34372,0.50796,0.34372,0.83239v10.2517c0,0.51033,0.41331,0.9241,0.9241,0.9241h10.2517
	c0.65427,0,1.1858,0.53199,1.1858,1.1858V62.15181z"/>
<path d="M35.62419,23.13355H10.02744c-0.51033,0-0.9241-0.41377-0.9241-0.9241s0.41377-0.9241,0.9241-0.9241h25.59675
	c0.51078,0,0.9241,0.41377,0.9241,0.9241S36.13497,23.13355,35.62419,23.13355z"/>
<path d="M35.62419,34.93969H10.02744c-0.51033,0-0.9241-0.41332-0.9241-0.9241s0.41377-0.9241,0.9241-0.9241h25.59675
	c0.51078,0,0.9241,0.41331,0.9241,0.9241S36.13497,34.93969,35.62419,34.93969z"/>
<path d="M35.62419,46.74538H10.02744c-0.51033,0-0.9241-0.41331-0.9241-0.9241s0.41377-0.9241,0.9241-0.9241h25.59675
	c0.51078,0,0.9241,0.41331,0.9241,0.9241S36.13497,46.74538,35.62419,46.74538z"/>
<path d="M31.52893,28.8347H10.02744c-0.51033,0-0.9241-0.41377-0.9241-0.9241s0.41377-0.9241,0.9241-0.9241h21.50149
	c0.51078,0,0.9241,0.41377,0.9241,0.9241S32.03971,28.8347,31.52893,28.8347z"/>
<path d="M31.52893,40.65303H10.02744c-0.51033,0-0.9241-0.41331-0.9241-0.9241s0.41377-0.9241,0.9241-0.9241h21.50149
	c0.51078,0,0.9241,0.41332,0.9241,0.9241S32.03971,40.65303,31.52893,40.65303z"/>
</svg>
