<?xml version="1.0" encoding="utf-8"?>
<!-- Generator: Adobe Illustrator 19.0.1, SVG Export Plug-In . SVG Version: 6.00 Build 0)  -->
<!DOCTYPE svg PUBLIC "-//W3C//DTD SVG 1.1//EN" "http://www.w3.org/Graphics/SVG/1.1/DTD/svg11.dtd">
<svg version="1.1" id="Layer_1" xmlns="http://www.w3.org/2000/svg" xmlns:xlink="http://www.w3.org/1999/xlink" x="0px" y="0px"
	 width="93px" height="64px" viewBox="0 0 93 64" style="enable-background:new 0 0 93 64;" xml:space="preserve">
<g>
	<path d="M46.5,0c-11.7,0-20.6,14.7-23,28.5c-1.9,11.3,0.1,21.5,5.6,28c4.2,4.9,10.1,7.5,17.3,7.5s13.2-2.6,17.3-7.5
		c5.5-6.5,7.6-16.7,5.6-28C67.1,14.7,58.2,0,46.5,0z M60.7,53.8c-3.4,4-8.2,6.1-14.2,6.1c-6,0-10.8-2-14.2-6.1
		c-4.7-5.5-6.4-14.8-4.7-24.7c2.1-12.3,9.8-25.1,18.9-25.1c9.2,0,16.8,12.7,18.9,25.1c0.3,1.6,0.4,3.2,0.5,4.8l-7-6
		c-0.4-0.4-0.9-0.5-1.5-0.5c-0.5,0-1,0.3-1.4,0.7l-6.8,8l-6-6.7c-0.4-0.4-0.9-0.7-1.4-0.7c-0.5,0-1.1,0.2-1.5,0.5l-4.8,4.4
		c-0.8,0.8-0.9,2.1-0.1,2.9c0.8,0.8,2.1,0.9,2.9,0.1l3.3-3l6.2,7c0.4,0.4,0.9,0.7,1.5,0.7c0,0,0,0,0,0c0.6,0,1.2-0.3,1.5-0.7l7-8.2
		l8.1,6.9C65.5,45.1,63.7,50.3,60.7,53.8z"/>
	<path d="M76.9,21.5c0.2,0,0.3,0,0.5-0.1l10-2.5c1.1-0.3,1.8-1.4,1.5-2.5c-0.3-1.1-1.4-1.8-2.5-1.5l-10,2.5
		c-1.1,0.3-1.8,1.4-1.5,2.5C75.1,20.9,76,21.5,76.9,21.5z"/>
	<path d="M90.7,29.6l-11.2-0.1c0,0,0,0,0,0c-1.1,0-2,0.9-2.1,2c0,1.1,0.9,2.1,2,2.1l11.2,0.1c0,0,0,0,0,0c1.1,0,2-0.9,2.1-2
		C92.8,30.6,91.9,29.7,90.7,29.6z"/>
	<path d="M87,45.1l-9.6-3.6c-1.1-0.4-2.2,0.1-2.6,1.2c-0.4,1.1,0.1,2.2,1.2,2.6l9.6,3.6c0.2,0.1,0.5,0.1,0.7,0.1
		c0.8,0,1.6-0.5,1.9-1.3C88.6,46.7,88.1,45.5,87,45.1z"/>
	<path d="M5.6,18.9l10,2.5c0.2,0,0.3,0.1,0.5,0.1c0.9,0,1.8-0.6,2-1.5c0.3-1.1-0.4-2.2-1.5-2.5L6.6,15c-1.1-0.3-2.2,0.4-2.5,1.5
		C3.9,17.5,4.5,18.7,5.6,18.9z"/>
	<path d="M15.5,31.6c0-1.1-0.9-2-2.1-2c0,0,0,0,0,0L2.3,29.6c-1.1,0-2,0.9-2,2.1c0,1.1,0.9,2,2.1,2c0,0,0,0,0,0l11.2-0.1
		C14.6,33.7,15.5,32.7,15.5,31.6z"/>
	<path d="M15.6,41.5L6,45.1c-1.1,0.4-1.6,1.6-1.2,2.6c0.3,0.8,1.1,1.3,1.9,1.3c0.2,0,0.5,0,0.7-0.1l9.6-3.6c1.1-0.4,1.6-1.6,1.2-2.6
		C17.9,41.6,16.7,41.1,15.6,41.5z"/>
</g>
</svg>
