<?xml version="1.0" encoding="utf-8"?>
<!-- Generator: Adobe Illustrator 22.1.0, SVG Export Plug-In . SVG Version: 6.00 Build 0)  -->
<svg version="1.1" id="Layer_1" xmlns="http://www.w3.org/2000/svg" xmlns:xlink="http://www.w3.org/1999/xlink" x="0px" y="0px"
	 viewBox="0 0 90.7 64" style="enable-background:new 0 0 90.7 64;" xml:space="preserve">
<path d="M73.7,0c-8.2,0-15,5.8-16.6,13.5H2.4c-1.3,0-2.3,1.1-2.3,2.3v0.5c0,0.1,0,0.2,0,0.2v45.1C0,62.9,1.1,64,2.4,64h72.9
	c1.3,0,2.3-1.1,2.3-2.3V33.4C85.1,31.7,90.7,25,90.7,17C90.7,7.6,83,0,73.7,0z M56.8,18.2c0.2,3.1,1.3,5.9,2.9,8.4L40,43.9L8.4,18.2
	H56.8z M72.9,59.3H4.7V21.3L40.1,50l22.7-20c2.8,2.3,6.2,3.7,10.1,3.9V59.3z M73.7,29.2c-6.8,0-12.3-5.5-12.3-12.3
	c0-6.8,5.5-12.3,12.3-12.3S86,10.2,86,17C86,23.7,80.5,29.2,73.7,29.2z"/>
</svg>
