<?xml version="1.0" encoding="utf-8"?>
<!-- Generator: Adobe Illustrator 19.0.1, SVG Export Plug-In . SVG Version: 6.00 Build 0)  -->
<!DOCTYPE svg PUBLIC "-//W3C//DTD SVG 1.1//EN" "http://www.w3.org/Graphics/SVG/1.1/DTD/svg11.dtd">
<svg version="1.1" id="Layer_1" xmlns="http://www.w3.org/2000/svg" xmlns:xlink="http://www.w3.org/1999/xlink" x="0px" y="0px"
	 width="110px" height="64px" viewBox="0 0 110 64" style="enable-background:new 0 0 110 64;" xml:space="preserve">
<g>
	<g>
		<path d="M55,64C23.5,64,3.2,36,2.4,34.8l-2-2.8l2-2.8C3.2,28,23.5,0,55,0c31.5,0,51.8,28,52.6,29.2l2,2.8l-2,2.8
			C106.8,36,86.5,64,55,64z M12.4,32C18,38.5,33.8,54.4,55,54.4c21.2,0,37-15.9,42.6-22.4C92,25.4,76.2,9.6,55,9.6
			C33.8,9.6,18,25.4,12.4,32z"/>
	</g>
	<g>
		<path d="M55,50.3c-10.1,0-18.3-8.2-18.3-18.3S44.9,13.7,55,13.7S73.3,21.9,73.3,32S65.1,50.3,55,50.3z M55,23.3
			c-4.8,0-8.7,3.9-8.7,8.7s3.9,8.7,8.7,8.7c4.8,0,8.7-3.9,8.7-8.7S59.8,23.3,55,23.3z"/>
	</g>
</g>
</svg>
