<?xml version="1.0" encoding="utf-8"?>
<!-- Generator: Adobe Illustrator 21.1.0, SVG Export Plug-In . SVG Version: 6.00 Build 0)  -->
<svg version="1.1" id="Layer_1" xmlns="http://www.w3.org/2000/svg" xmlns:xlink="http://www.w3.org/1999/xlink" x="0px" y="0px"
	 viewBox="0 0 79.5 64" style="enable-background:new 0 0 79.5 64;" xml:space="preserve">
<path d="M78.1,30.1c-0.4-0.5-6-8.3-15.6-14.3l9.6-9.5L65.9,0L54.3,11.6C49.9,9.9,45,8.8,39.8,8.8C16.8,8.8,2,29.2,1.5,30.1l-1.5,2
	l1.5,2c0.4,0.5,6.1,8.4,15.8,14.5l-9.2,9.2l6.2,6.2l11.2-11.3c4.3,1.6,9,2.7,14.3,2.7c22.9,0,37.7-20.4,38.3-21.3l1.5-2L78.1,30.1z
	 M8.7,32.1c4.1-4.8,15.6-16.3,31-16.3c3.2,0,6.2,0.5,9,1.3l-3.1,3.1c-1.8-0.9-3.8-1.4-5.9-1.4c-7.4,0-13.3,6-13.3,13.3
	c0,2.1,0.5,4.2,1.4,5.9l-5.5,5.5C15.8,39.8,11.1,34.8,8.7,32.1z M33.4,32.1c0-3.5,2.8-6.3,6.3-6.3c0.1,0,0.2,0,0.3,0l-6.6,6.6
	C33.4,32.3,33.4,32.3,33.4,32.1z M46.1,32.2c0,3.5-2.8,6.3-6.3,6.3L46.1,32.2z M39.8,48.4c-3.1,0-6-0.4-8.7-1.2l3.1-3.1
	c1.7,0.8,3.6,1.3,5.7,1.3c7.4,0,13.3-6,13.3-13.3c0-2-0.4-3.9-1.3-5.7l5.6-5.6c6.4,3.7,11.1,8.6,13.4,11.3
	C66.7,36.9,55.2,48.4,39.8,48.4z"/>
</svg>
