<?xml version="1.0" encoding="utf-8"?>
<!-- Generator: Adobe Illustrator 22.0.1, SVG Export Plug-In . SVG Version: 6.00 Build 0)  -->
<svg version="1.1" id="Layer_1" xmlns="http://www.w3.org/2000/svg" xmlns:xlink="http://www.w3.org/1999/xlink" x="0px" y="0px"
	 viewBox="0 0 64 64" enable-background="new 0 0 64 64" xml:space="preserve">
<g>
	<path d="M63.5,0h-63C0.2,0,0,0.2,0,0.5v63C0,63.8,0.2,64,0.5,64h63c0.3,0,0.5-0.2,0.5-0.5v-63C64,0.2,63.8,0,63.5,0z M63,63H1V1h62
		V63z"/>
	<path d="M14.6,27.9h1v18.2c0,0.3,0.2,0.5,0.5,0.5h31.6c0.3,0,0.5-0.2,0.5-0.5V27.9h1.2c0.3,0,0.5-0.2,0.5-0.5v-4.5c0,0,0,0,0,0
		c0-0.1,0-0.1-0.1-0.2c0-0.1,0-0.1-0.1-0.2c0,0,0,0,0,0l-6.2-5c-0.1-0.1-0.2-0.1-0.3-0.1H20.8c-0.1,0-0.2,0-0.3,0.1l-6.2,5
		c0,0,0,0,0,0c0,0-0.1,0.1-0.1,0.2c0,0.1-0.1,0.1-0.1,0.2c0,0,0,0,0,0v4.5C14.1,27.7,14.3,27.9,14.6,27.9z M47.2,45.6H16.6V27.9H29
		c0.2,1.4,1.5,2.5,3,2.5c1.5,0,2.7-1.1,3-2.5h12.3V45.6z M30,27.9h3.8c-0.2,0.9-1,1.5-1.9,1.5C31,29.4,30.3,28.8,30,27.9z M21,18.4
		H43l4.9,3.9H16L21,18.4z M15.1,23.4h33.8v3.5h-1.2c0,0,0,0,0,0s0,0,0,0H34.5c0,0,0,0,0,0s0,0,0,0h-5c0,0,0,0,0,0s0,0,0,0H16.1
		c0,0,0,0,0,0s0,0,0,0h-1V23.4z"/>
	<path d="M25.3,35.3v5.6c0,0.3,0.2,0.5,0.5,0.5h12.3c0.3,0,0.5-0.2,0.5-0.5v-5.6c0-0.3-0.2-0.5-0.5-0.5H25.8
		C25.6,34.8,25.3,35,25.3,35.3z M26.4,35.8h11.3v4.6H26.4V35.8z"/>
</g>
</svg>
