<?xml version="1.0" encoding="utf-8"?>
<!-- Generator: Adobe Illustrator 20.0.0, SVG Export Plug-In . SVG Version: 6.00 Build 0)  -->
<!DOCTYPE svg PUBLIC "-//W3C//DTD SVG 1.1//EN" "http://www.w3.org/Graphics/SVG/1.1/DTD/svg11.dtd">
<svg version="1.1" id="Layer_1" xmlns="http://www.w3.org/2000/svg" xmlns:xlink="http://www.w3.org/1999/xlink" x="0px" y="0px"
	 width="78.3019px" height="64px" viewBox="0 0 78.3019 64" style="enable-background:new 0 0 78.3019 64;" xml:space="preserve">
<path d="M53.98667,52.73626H24.31523V37.55347h29.67145V52.73626z M27.38334,49.66814h23.53521v-9.04655H27.38334V49.66814z"/>
<path d="M78.3019,10.71744h-0.99549L63.92609,0H14.3778L0.99549,10.71744H0v12.85873h3.27486V64h71.41561V23.57616h3.61143V10.71744
	z M15.45444,3.06812h47.39302l9.55104,7.64932H5.9034L15.45444,3.06812z M71.62235,60.93188H6.34297V23.57616h25.90908
	c0.70261,3.10519,3.4731,5.43612,6.78853,5.43612s6.08517-2.33092,6.78754-5.43612h25.79423V60.93188z M35.45388,23.57616h7.17267
	c-0.59712,1.39061-1.97862,2.368-3.58596,2.368C37.43325,25.94416,36.05137,24.96678,35.45388,23.57616z M75.23378,20.50805H3.06812
	v-6.72249h72.16566V20.50805z"/>
</svg>
