<?xml version="1.0" encoding="utf-8"?>
<!-- Generator: Adobe Illustrator 21.1.0, SVG Export Plug-In . SVG Version: 6.00 Build 0)  -->
<!DOCTYPE svg PUBLIC "-//W3C//DTD SVG 1.1//EN" "http://www.w3.org/Graphics/SVG/1.1/DTD/svg11.dtd">
<svg version="1.1" id="Layer_1" xmlns="http://www.w3.org/2000/svg" xmlns:xlink="http://www.w3.org/1999/xlink" x="0px" y="0px"
	 width="135.25943px" height="64px" viewBox="0 0 135.25943 64" style="enable-background:new 0 0 135.25943 64;"
	 xml:space="preserve">
<path d="M129.09654,14.06864c-3.81441-1.58061-7.98283-0.74792-10.88976,2.16399L96.04831,38.39111
	c-2.13937-9.28048-10.4273-16.23741-20.3485-16.23741c-10.85797,0-19.70747,8.34651-20.72184,18.94583l-0.67625-0.28515
	c-3.80943-1.60056-8.17231-1.61053-11.97924,0l-0.67625,0.28515c-0.58868-6.15167-3.78013-11.52488-8.53848-14.95909
	L52.68621,6.56199c1.441-1.43851,3.43048-1.84238,5.32023-1.05707c1.88726,0.78283,3.01413,2.46815,3.01413,4.50998
	c0,1.41108,1.14183,2.55291,2.55291,2.55291c1.41108,0,2.55291-1.14183,2.55291-2.55291c0-4.11607-2.36344-7.65126-6.16538-9.22688
	c-3.80194-1.58061-7.97536-0.74543-10.88478,2.16399L28.42482,23.60342c-2.33632-0.90343-4.85153-1.44973-7.50292-1.44973
	C9.38644,22.15369,0,31.54013,0,43.07809S9.38644,64,20.92191,64c10.29298,0,18.82491-7.48297,20.55667-17.28638l2.8284-1.19231
	c2.54294-1.07701,5.46732-1.07701,8.01026,0l2.8284,1.19231C56.87738,56.51703,65.409,64,75.69981,64
	c10.7916,0,19.59435-8.23931,20.70158-18.74202l25.41537-25.41537c1.45097-1.44598,3.44543-1.83241,5.32521-1.05706
	c1.88477,0.78033,3.01164,2.46815,3.01164,4.50998c0,1.41108,1.14183,2.55291,2.5529,2.55291
	c1.41109,0,2.55292-1.14183,2.55292-2.55291C135.25943,19.17945,132.896,15.64427,129.09654,14.06864z M20.92191,58.89418
	c-8.72079,0-15.81608-7.0953-15.81608-15.81608c0-8.72328,7.0953-15.81858,15.81608-15.81858
	c8.72328,0,15.81857,7.0953,15.81857,15.81858C36.74048,51.79888,29.64519,58.89418,20.92191,58.89418z M75.69981,58.89418
	c-8.72079,0-15.81608-7.0953-15.81608-15.81608c0-8.72328,7.09529-15.81858,15.81608-15.81858s15.81609,7.0953,15.81609,15.81858
	C91.51589,51.79888,84.42059,58.89418,75.69981,58.89418z"/>
</svg>
