<?xml version="1.0" encoding="utf-8"?>
<!-- Generator: Adobe Illustrator 19.0.1, SVG Export Plug-In . SVG Version: 6.00 Build 0)  -->
<!DOCTYPE svg PUBLIC "-//W3C//DTD SVG 1.1//EN" "http://www.w3.org/Graphics/SVG/1.1/DTD/svg11.dtd">
<svg version="1.1" id="Layer_1" xmlns="http://www.w3.org/2000/svg" xmlns:xlink="http://www.w3.org/1999/xlink" x="0px" y="0px"
	 width="136px" height="64px" viewBox="0 0 136 64" style="enable-background:new 0 0 136 64;" xml:space="preserve">
<path d="M129.9,14.2c-3.7-1.5-7.8-0.7-10.7,2.1L96.5,38.9c-2-9.5-10.4-16.6-20.4-16.6c-10.9,0-19.9,8.5-20.8,19.2l-0.9-0.4
	c-3.8-1.6-8.1-1.6-11.9,0l-0.9,0.4c-0.5-6.4-3.9-11.9-8.8-15.4L52.8,6.2c1.8-1.8,4.1-1.8,5.6-1.1c1.5,0.6,3.2,2.2,3.2,4.8
	c0,1.3,1,2.3,2.3,2.3c1.3,0,2.3-1,2.3-2.3c0-4-2.3-7.5-6.1-9.1C56.4-0.8,52.3,0,49.5,2.9L28.6,23.8c-2.4-0.9-5-1.5-7.7-1.5
	c-11.5,0-20.8,9.3-20.8,20.8C0.1,54.7,9.4,64,20.9,64c10.3,0,18.9-7.5,20.5-17.4l3-1.2c2.6-1.1,5.6-1.1,8.3,0l2.9,1.2
	C57.3,56.5,65.8,64,76.1,64c10.8,0,19.7-8.3,20.7-18.9l25.6-25.6c1.8-1.8,4.1-1.8,5.6-1.1c1.5,0.6,3.2,2.2,3.2,4.8
	c0,1.3,1,2.3,2.3,2.3c1.3,0,2.3-1,2.3-2.3C135.9,19.2,133.6,15.7,129.9,14.2z M20.9,59.4c-8.9,0-16.2-7.3-16.2-16.2
	C4.7,34.2,12,27,20.9,27s16.2,7.3,16.2,16.2C37.1,52.1,29.8,59.4,20.9,59.4z M76.1,59.4c-8.9,0-16.2-7.3-16.2-16.2
	c0-8.9,7.3-16.2,16.2-16.2c8.9,0,16.2,7.3,16.2,16.2C92.3,52.1,85.1,59.4,76.1,59.4z"/>
</svg>
