<?xml version="1.0" encoding="utf-8"?>
<!-- Generator: Adobe Illustrator 19.0.1, SVG Export Plug-In . SVG Version: 6.00 Build 0)  -->
<!DOCTYPE svg PUBLIC "-//W3C//DTD SVG 1.1//EN" "http://www.w3.org/Graphics/SVG/1.1/DTD/svg11.dtd">
<svg version="1.1" id="Layer_1" xmlns="http://www.w3.org/2000/svg" xmlns:xlink="http://www.w3.org/1999/xlink" x="0px" y="0px"
	 width="80px" height="64px" viewBox="0 0 80 64" style="enable-background:new 0 0 80 64;" xml:space="preserve">
<g>
	<path d="M79.2,18.1c-0.8-0.8-2.1-0.8-2.9,0l-23,23L41.1,28.9L29,16.7L42.2,3.5c0.8-0.8,0.8-2.1,0-2.9c-0.8-0.8-2.1-0.8-2.9,0
		L24.6,15.3c0,0,0,0.1-0.1,0.1c-0.1,0.1-0.2,0.3-0.3,0.5c0,0.1-0.1,0.1-0.1,0.2c-0.1,0.2-0.1,0.4-0.1,0.7l0,3.8
		c0,1.7,0.2,3.4,0.3,5.1c0.4,4.2,0.8,8.4-1.4,10.7L17.3,42c-0.7,0.7-0.7,1.8-0.2,2.6L8.7,53c-0.6,0.6-0.8,1.5-0.4,2.2
		c0.3,0.8,1.1,1.3,1.9,1.3h11c0.5,0,1.1-0.2,1.4-0.6l2.9-2.9c0.4,0.3,0.7,0.4,1.2,0.4c0.5,0,1-0.2,1.4-0.6l5.7-5.7
		c2.3-2.3,6.6-1.8,10.7-1.4c1.7,0.2,3.5,0.3,5.1,0.3l3.8,0c0.2,0,0.5-0.1,0.7-0.1c0.1,0,0.1-0.1,0.2-0.1c0.2-0.1,0.3-0.2,0.5-0.3
		c0,0,0.1,0,0.1-0.1L79.2,21C80,20.2,80,18.9,79.2,18.1z M20.3,52.4H15l4.9-4.9l2.6,2.6L20.3,52.4z M44.8,41.6
		c-4.8-0.5-10.3-1-14,2.6l-4.2,4.2l-5-5l4.2-4.2c3.6-3.6,3.1-9.1,2.6-14c-0.1-1.3-0.2-2.5-0.3-3.6l20.4,20.4
		C47.3,41.9,46.1,41.8,44.8,41.6z"/>
	<path d="M65.4,59.9H2.3c-1.1,0-2,0.9-2,2c0,1.1,0.9,2,2,2h63.1c1.1,0,2-0.9,2-2C67.4,60.9,66.5,59.9,65.4,59.9z"/>
</g>
</svg>
