<?xml version="1.0" encoding="utf-8"?>
<!-- Generator: Adobe Illustrator 21.1.0, SVG Export Plug-In . SVG Version: 6.00 Build 0)  -->
<!DOCTYPE svg PUBLIC "-//W3C//DTD SVG 1.1//EN" "http://www.w3.org/Graphics/SVG/1.1/DTD/svg11.dtd">
<svg version="1.1" id="Layer_1" xmlns="http://www.w3.org/2000/svg" xmlns:xlink="http://www.w3.org/1999/xlink" x="0px" y="0px"
	 width="64px" height="64.00204px" viewBox="0 0 64 64.00204" style="enable-background:new 0 0 64 64.00204;" xml:space="preserve"
	>
<g>
	<g>
		<path d="M31.99898,64.00204C14.3556,64.00204,0,49.64645,0,32.00102S14.3556,0,31.99898,0C49.6444,0,64,14.3556,64,32.00102
			S49.6444,64.00204,31.99898,64.00204z M31.99898,4.19524c-15.33067,0-27.80373,12.47307-27.80373,27.80578
			c0,15.33067,12.47307,27.80578,27.80373,27.80578s27.80578-12.47511,27.80578-27.80578
			C59.80476,16.66831,47.32964,4.19524,31.99898,4.19524z"/>
	</g>
	<g>
		<g>
			<path d="M34.38217,29.72978h-4.763v17.71464h4.763V29.72978z"/>
		</g>
	</g>
	<g>
		<path d="M32.00068,24.82006L32.00068,24.82006c-2.2053,0-3.99305-1.78774-3.99305-3.99304v-0.00001
			c0-2.20529,1.78774-3.99304,3.99304-3.99304h0.00001c2.2053,0,3.99304,1.78774,3.99304,3.99304v0.00001
			C35.99371,23.03232,34.20597,24.82006,32.00068,24.82006z"/>
	</g>
</g>
</svg>
