<?xml version="1.0" encoding="utf-8"?>
<!-- Generator: Adobe Illustrator 20.0.0, SVG Export Plug-In . SVG Version: 6.00 Build 0)  -->
<!DOCTYPE svg PUBLIC "-//W3C//DTD SVG 1.1//EN" "http://www.w3.org/Graphics/SVG/1.1/DTD/svg11.dtd">
<svg version="1.1" id="Logo" xmlns="http://www.w3.org/2000/svg" xmlns:xlink="http://www.w3.org/1999/xlink" x="0px" y="0px"
	 width="64px" height="64px" viewBox="0 0 64 64" style="enable-background:new 0 0 64 64;" xml:space="preserve">
<path d="M32,5.76577c8.54438,0,9.55643,0.03258,12.93072,0.18654c3.11994,0.14237,4.81437,0.66364,5.94197,1.10186
	c1.49365,0.58048,2.55965,1.27398,3.67938,2.39371c1.11978,1.11978,1.81328,2.18578,2.39376,3.67945
	c0.43822,1.12759,0.9595,2.82202,1.10186,5.94191C58.20165,22.44356,58.23423,23.45562,58.23423,32
	s-0.03258,9.55644-0.18653,12.93072c-0.14236,3.11994-0.66364,4.81437-1.10186,5.94197
	c-0.58047,1.49365-1.27398,2.55965-2.3937,3.67938c-1.11979,1.11978-2.18578,1.81329-3.67944,2.39376
	c-1.12761,0.43822-2.82203,0.9595-5.94197,1.10186C41.55692,58.20165,40.54496,58.23423,32,58.23423
	s-9.55692-0.03258-12.93072-0.18653c-3.11994-0.14235-4.81437-0.66364-5.94196-1.10186
	c-1.49366-0.58047-2.55966-1.27398-3.6794-2.39371c-1.11976-1.11976-1.81328-2.18578-2.39376-3.67944
	c-0.43822-1.12761-0.95949-2.82203-1.10186-5.94193C5.79835,41.55644,5.76577,40.54438,5.76577,32s0.03258-9.55644,0.18653-12.93072
	c0.14237-3.11994,0.66364-4.81437,1.10186-5.94196c0.58048-1.49366,1.27398-2.55966,2.39371-3.6794
	c1.11978-1.11978,2.18578-1.81328,3.67945-2.39376c1.12759-0.43822,2.82202-0.95949,5.94191-1.10186
	C22.44356,5.79835,23.45561,5.76577,32,5.76577 M32,0c-8.69069,0-9.78042,0.03681-13.19355,0.19253
	c-3.40609,0.15541-5.7322,0.69636-7.76771,1.48743C8.93449,2.49773,7.14989,3.59189,5.37088,5.37088
	c-1.77899,1.77901-2.87315,3.56361-3.69092,5.66787c-0.79107,2.03551-1.33201,4.36162-1.48743,7.76771
	C0.03681,22.21958,0,23.30928,0,32c0,8.69069,0.03681,9.78042,0.19253,13.19355c0.15541,3.40609,0.69636,5.73218,1.48743,7.76771
	c0.81777,2.10423,1.91193,3.88886,3.69092,5.66787c1.77901,1.77899,3.56361,2.87315,5.66787,3.69092
	c2.03551,0.79107,4.36162,1.33201,7.76771,1.48743C22.21958,63.96323,23.30931,64,32,64s9.78042-0.03677,13.19355-0.19253
	c3.40609-0.15541,5.73218-0.69636,7.76771-1.48743c2.10426-0.81777,3.88886-1.91193,5.66787-3.69092
	c1.77899-1.77901,2.87315-3.56361,3.69092-5.66787c0.79107-2.03553,1.33201-4.36162,1.48743-7.76771
	C63.96319,41.78042,64,40.69069,64,32s-0.03681-9.78042-0.19253-13.19355c-0.15541-3.40609-0.69636-5.7322-1.48743-7.76771
	c-0.81777-2.10426-1.91193-3.88886-3.69092-5.66787c-1.77901-1.77899-3.56361-2.87315-5.66787-3.69092
	c-2.03553-0.79107-4.36162-1.33201-7.76771-1.48743C41.78042,0.03681,40.69069,0,32,0L32,0z"/>
<path d="M32,15.56756c-9.07538,0-16.43243,7.35705-16.43243,16.43243S22.92462,48.43242,32,48.43242S48.43243,41.07538,48.43243,32
	S41.07538,15.56756,32,15.56756z M32,42.66667c-5.89104,0-10.66667-4.77563-10.66667-10.66667S26.10896,21.33333,32,21.33333
	S42.66666,26.10896,42.66666,32S37.89104,42.66667,32,42.66667z"/>
<circle cx="49.08168" cy="14.91832" r="3.84"/>
</svg>
