<?xml version="1.0" encoding="utf-8"?>
<!-- Generator: Adobe Illustrator 20.0.0, SVG Export Plug-In . SVG Version: 6.00 Build 0)  -->
<!DOCTYPE svg PUBLIC "-//W3C//DTD SVG 1.1//EN" "http://www.w3.org/Graphics/SVG/1.1/DTD/svg11.dtd">
<svg version="1.1" id="Layer_1" xmlns="http://www.w3.org/2000/svg" xmlns:xlink="http://www.w3.org/1999/xlink" x="0px" y="0px"
	 width="134.15454px" height="64px" viewBox="0 0 134.15454 64" style="enable-background:new 0 0 134.15454 64;"
	 xml:space="preserve">
<path d="M134.15454,22.19703H50.35114C48.78394,9.72008,38.22872,0,25.3342,0C11.36459,0,0,11.36738,0,25.33699
	c0,13.96683,11.36459,25.32863,25.3342,25.32863c12.89417,0,23.44905-9.71486,25.01659-22.18867h40.90305V64h6.27435V28.47695
	h16.17622V64h6.27435V28.47695h14.17579V22.19703z M25.3342,44.39128c-10.50646,0-19.05429-8.54782-19.05429-19.05429
	c0-10.50925,8.54782-19.05707,19.05429-19.05707s19.05429,8.54782,19.05429,19.05707
	C44.38849,35.84346,35.84067,44.39128,25.3342,44.39128z"/>
</svg>
