<?xml version="1.0" encoding="utf-8"?>
<!-- Generator: Adobe Illustrator 19.0.1, SVG Export Plug-In . SVG Version: 6.00 Build 0)  -->
<!DOCTYPE svg PUBLIC "-//W3C//DTD SVG 1.1//EN" "http://www.w3.org/Graphics/SVG/1.1/DTD/svg11.dtd">
<svg version="1.1" id="Layer_1" xmlns="http://www.w3.org/2000/svg" xmlns:xlink="http://www.w3.org/1999/xlink" x="0px" y="0px"
	 width="61px" height="64px" viewBox="0 0 61 64" style="enable-background:new 0 0 61 64;" xml:space="preserve">
<g>
	<path d="M48.5,31.2c-0.6-0.8-1.8-1-2.6-0.4c-0.8,0.6-1,1.8-0.4,2.6l4.2,5.7c0.4,0.5,0.9,0.8,1.5,0.8c0.4,0,0.8-0.1,1.1-0.4
		c0.8-0.6,1-1.8,0.4-2.6L48.5,31.2z"/>
	<path d="M58.1,28.7l-6.5-2.9c-0.9-0.4-2,0-2.4,0.9c-0.4,0.9,0,2,0.9,2.4l6.5,2.9c0.2,0.1,0.5,0.2,0.8,0.2c0.7,0,1.4-0.4,1.7-1.1
		C59.4,30.2,59,29.1,58.1,28.7z"/>
	<path d="M60.7,20.5c-0.1-1-1-1.7-2-1.6l-7,0.7c-1,0.1-1.8,1-1.6,2c0.1,0.9,0.9,1.7,1.8,1.7c0.1,0,0.1,0,0.2,0l7-0.7
		C60.1,22.4,60.8,21.5,60.7,20.5z"/>
	<path d="M35.9,31.8c-0.9-0.4-2,0-2.4,0.9l-2.9,6.5c-0.4,0.9,0,2,0.9,2.4c0.2,0.1,0.5,0.2,0.8,0.2c0.7,0,1.4-0.4,1.7-1.1l2.9-6.5
		C37.3,33.3,36.9,32.2,35.9,31.8z"/>
	<path d="M43.1,34.3c-0.1-1-1-1.7-2-1.6c-1,0.1-1.8,1-1.6,2l0.7,7c0.1,0.9,0.9,1.7,1.8,1.7c0.1,0,0.1,0,0.2,0c1-0.1,1.8-1,1.6-2
		L43.1,34.3z"/>
	<path d="M13.4,27.9l10.7-7.8l4.9,9.2c0.3,0.5,0.7,0.8,1.2,0.9c0.1,0,0.3,0,0.4,0c0.4,0,0.8-0.1,1.1-0.4l16.9-12.3
		c0.4-0.3,0.7-0.8,0.8-1.3c0-0.5-0.1-1.1-0.5-1.4L34.9,0.6c-0.6-0.7-1.7-0.7-2.4-0.2L28,3.6l-2.5-3c-0.7-0.8-1.8-0.9-2.6-0.2
		c-0.8,0.7-0.9,1.8-0.2,2.6L25,5.8l-4.9,3.5c-0.7,0.5-1,1.5-0.5,2.4l2.7,5.2l-11.1,8.1c-7.8,5.7-10,16.2-5.1,24.6l6.4,10.8H2.1
		c-1,0-1.8,0.8-1.8,1.8c0,1,0.8,1.8,1.8,1.8h13.6c0,0,0,0,0,0c0,0,0,0,0,0h11.9c1,0,1.8-0.8,1.8-1.8c0-1-0.8-1.8-1.8-1.8H16.8
		L9.3,47.6C5.4,40.9,7.1,32.5,13.4,27.9z M33.4,4.3l11.3,11.6l-13.4,9.8l-7.6-14.3L33.4,4.3z"/>
</g>
</svg>
