<?xml version="1.0" encoding="utf-8"?>
<!-- Generator: Adobe Illustrator 19.0.1, SVG Export Plug-In . SVG Version: 6.00 Build 0)  -->
<!DOCTYPE svg PUBLIC "-//W3C//DTD SVG 1.1//EN" "http://www.w3.org/Graphics/SVG/1.1/DTD/svg11.dtd">
<svg version="1.1" id="Layer_1" xmlns="http://www.w3.org/2000/svg" xmlns:xlink="http://www.w3.org/1999/xlink" x="0px" y="0px"
	 width="16px" height="16px" viewBox="0 0 16 16" style="enable-background:new 0 0 16 16;" xml:space="preserve">
<path d="M15.8,14.3L12,10.5c0.7-1.1,1.2-2.4,1.2-3.8C13.2,3,10.3,0,6.7,0S0.2,3,0.2,6.7c0,3.7,2.9,6.7,6.5,6.7
	c1.3,0,2.6-0.4,3.6-1.1L14,16L15.8,14.3z M2.7,6.7c0-2.3,1.8-4.2,4-4.2s4,1.9,4,4.2c0,2.3-1.8,4.2-4,4.2S2.7,9,2.7,6.7z"/>
</svg>
