<?xml version="1.0" encoding="utf-8"?>
<!-- Generator: Adobe Illustrator 21.1.0, SVG Export Plug-In . SVG Version: 6.00 Build 0)  -->
<svg version="1.1" id="Layer_1" xmlns="http://www.w3.org/2000/svg" xmlns:xlink="http://www.w3.org/1999/xlink" x="0px" y="0px"
	 viewBox="0 0 61.9 64" enable-background="new 0 0 61.9 64" xml:space="preserve">
<g>
	<path d="M52.8,49.8c4.2-5.3,6.7-12,6.7-19.3C59.5,13.7,46.1,0,29.7,0C13.3,0,0,13.7,0,30.6c0,16.8,13.3,30.5,29.7,30.5
		c6.8,0,13.1-2.4,18.2-6.4l9,9.3l4.9-4.8L52.8,49.8z M29.7,54.2c-12.6,0-22.8-10.6-22.8-23.7c0-13.1,10.3-23.7,22.8-23.7
		s22.8,10.6,22.8,23.7C52.6,43.6,42.3,54.2,29.7,54.2z"/>
	<polygon points="33.2,17.5 26.3,17.5 26.3,27.1 16.6,27.1 16.6,34 26.3,34 26.3,43.6 33.2,43.6 33.2,34 42.8,34 42.8,27.1 
		33.2,27.1 	"/>
</g>
</svg>
