<?xml version="1.0" encoding="utf-8"?>
<!-- Generator: Adobe Illustrator 19.0.1, SVG Export Plug-In . SVG Version: 6.00 Build 0)  -->
<!DOCTYPE svg PUBLIC "-//W3C//DTD SVG 1.1//EN" "http://www.w3.org/Graphics/SVG/1.1/DTD/svg11.dtd">
<svg version="1.1" id="Layer_1" xmlns="http://www.w3.org/2000/svg" xmlns:xlink="http://www.w3.org/1999/xlink" x="0px" y="0px"
	 width="64px" height="64px" viewBox="0 0 64 64" style="enable-background:new 0 0 64 64;" xml:space="preserve">
<polygon points="62.8,20.4 58,22 50.8,19.2 62.8,15.2 62.8,11.2 45.2,16.8 38,14 62.8,6.4 62.8,2.4 32.4,12 1.2,0 1.6,25.6 30,16.8 
	30,21.6 1.6,30.8 1.6,34.8 30,25.6 30,30.8 1.6,39.6 1.6,43.6 30,34.8 30,39.6 1.6,48.8 1.6,52.8 30,43.6 30,48.8 1.6,58 1.6,62 
	32,52 62.8,64 "/>
</svg>
