<?xml version="1.0" encoding="utf-8"?>
<!-- Generator: Adobe Illustrator 19.0.1, SVG Export Plug-In . SVG Version: 6.00 Build 0)  -->
<!DOCTYPE svg PUBLIC "-//W3C//DTD SVG 1.1//EN" "http://www.w3.org/Graphics/SVG/1.1/DTD/svg11.dtd">
<svg version="1.1" id="Layer_1" xmlns="http://www.w3.org/2000/svg" xmlns:xlink="http://www.w3.org/1999/xlink" x="0px" y="0px"
	 width="16px" height="16px" viewBox="0 0 16 16" style="enable-background:new 0 0 16 16;" xml:space="preserve">
<path d="M8,0C3.6,0,0,3.6,0,8s3.6,8,8,8c4.4,0,8-3.6,8-8S12.4,0,8,0z M4.6,9.9C4.5,9.9,4.3,9.8,4.2,9.7C4,9.6,3.9,9.5,3.9,9.3
	C3.8,8.9,3.8,8.1,3.8,7.6C3.5,8.3,3.1,9.4,2.9,10c0,0.1-0.1,0.1-0.2,0C2.6,10,2.5,9.9,2.4,9.8c0-0.1-0.1-0.2-0.1-0.3
	c0.2-0.8,0.7-2.5,1.1-3.3c0.1-0.1,0.2-0.1,0.3-0.1c0.2,0,0.4,0.2,0.6,0.3c0.1,0.1,0.1,0.2,0.1,0.4c0,0.5,0,1.3,0,1.9
	c0.3-0.8,0.8-1.9,1.1-2.5c0-0.1,0.1-0.1,0.2,0C6,6.4,6,6.6,5.9,6.9c-0.2,0.7-0.7,1.9-1,3C4.9,10,4.8,10,4.6,9.9z M9.1,6.7
	c-0.4,0-1,0.1-1.5,0.2c-0.1,0.3-0.3,0.6-0.4,1c0.2,0,0.4,0,0.5,0c0.1,0,0.2,0,0.3,0.1C8.1,8,8.2,8.1,8.2,8.2c0.1,0.1,0,0.1-0.1,0.2
	c-0.3,0-0.8,0.1-1.2,0.2C6.8,8.8,6.8,9.1,6.7,9.3C7,9.2,7.3,9.2,7.6,9.2c0.1,0,0.3,0,0.3,0.1C8,9.4,8.1,9.5,8.2,9.6
	c0.1,0.1,0,0.2-0.1,0.2C7.7,9.8,7,9.9,6.6,10c-0.2,0.1-0.3,0-0.4,0C6.2,10,6,9.9,6,9.8C5.9,9.7,5.8,9.7,5.9,9.5
	c0.2-0.8,0.6-1.9,0.9-2.7c0-0.1-0.1-0.2-0.1-0.2c-0.1-0.1,0-0.2,0.1-0.2c0.5-0.1,1.3-0.2,1.8-0.2c0.2,0,0.3,0,0.4,0.1
	c0.1,0.1,0.2,0.2,0.2,0.3C9.3,6.6,9.3,6.7,9.1,6.7z M13.6,6.8c-0.3,0.6-0.9,1.7-1.5,3.1c-0.1,0.1-0.1,0.1-0.3,0.1
	c-0.2-0.1-0.3-0.2-0.4-0.2c-0.1-0.1-0.2-0.2-0.2-0.4c0-0.5,0-1.1,0.1-1.6c-0.3,0.6-0.8,1.6-1,2.2c-0.1,0.2-0.2,0.2-0.3,0.1
	C9.9,9.9,9.7,9.8,9.6,9.7C9.4,9.6,9.3,9.5,9.4,9c0-0.8,0.2-2.1,0.4-2.8c0-0.1,0.1-0.1,0.2-0.1c0.1,0.1,0.2,0.2,0.3,0.3
	c0.1,0.1,0.1,0.2,0.1,0.4c-0.1,0.5-0.2,1.5-0.3,2.1c0.4-0.9,1-1.8,1.5-2.5c0.1-0.1,0.2-0.1,0.3,0c0.1,0.1,0.2,0.2,0.3,0.3
	c0.1,0.1,0.1,0.2,0.1,0.4c-0.1,0.5-0.3,1.3-0.3,2c0.3-0.8,1.1-2.3,1.6-2.9c0.1-0.1,0.1-0.1,0.2,0C13.8,6.3,13.8,6.6,13.6,6.8z"/>
</svg>
