<?xml version="1.0" encoding="utf-8"?>
<!-- Generator: Adobe Illustrator 19.0.1, SVG Export Plug-In . SVG Version: 6.00 Build 0)  -->
<!DOCTYPE svg PUBLIC "-//W3C//DTD SVG 1.1//EN" "http://www.w3.org/Graphics/SVG/1.1/DTD/svg11.dtd">
<svg version="1.1" id="Layer_1" xmlns="http://www.w3.org/2000/svg" xmlns:xlink="http://www.w3.org/1999/xlink" x="0px" y="0px"
	 width="64px" height="64px" viewBox="0 0 64 64" style="enable-background:new 0 0 64 64;" xml:space="preserve">
<path d="M32,0C14.3,0,0,14.3,0,32s14.3,32,32,32s32-14.3,32-32S49.7,0,32,0z M18.5,39.8c-0.6-0.3-1.3-0.6-1.8-0.9
	c-0.5-0.3-0.9-0.8-1.1-1.6c-0.3-1.8-0.6-4.8-0.6-7c-1.3,3.1-2.8,7.4-3.3,9.7c-0.1,0.4-0.4,0.4-0.8,0.2c-0.5-0.3-1-0.7-1.3-1
	c-0.2-0.3-0.4-0.6-0.3-1c0.6-3.3,2.9-9.9,4.4-13.2c0.3-0.6,0.7-0.5,1.2-0.4c0.6,0.2,1.5,0.6,2.3,1.2c0.6,0.4,0.6,0.7,0.6,1.4
	c-0.1,1.9-0.1,5.2,0.1,7.8c1.1-3.2,3-7.7,4.4-10c0.2-0.3,0.4-0.4,0.8,0c0.7,0.8,1,1.7,0.5,2.8c-1,2.6-2.9,7.6-4.2,11.8
	C19.4,39.9,19.1,40,18.5,39.8z M36.5,26.8c-1.4,0.1-4.2,0.5-6,0.9c-0.6,1.2-1.2,2.5-1.7,4c0.8-0.1,1.5-0.1,2-0.1
	c0.5,0,0.9,0.1,1.2,0.4c0.3,0.3,0.6,0.7,0.8,1c0.3,0.4,0.1,0.6-0.2,0.6c-1.3,0.2-3.2,0.4-4.9,0.9c-0.4,1-0.7,1.9-1,2.8
	c1.4-0.3,2.7-0.4,3.8-0.4c0.6,0,1,0.1,1.3,0.4c0.4,0.3,0.8,0.7,1,1.1c0.3,0.4,0.1,0.6-0.3,0.7c-1.7,0.3-4.4,0.6-6,1.2
	c-0.8,0.3-1,0.1-1.5-0.1c-0.3-0.2-0.8-0.5-1-0.8c-0.4-0.4-0.6-0.6-0.4-1.3c0.7-3.1,2.3-7.8,3.8-11c-0.2-0.3-0.4-0.8-0.5-1
	c-0.2-0.4-0.1-0.7,0.4-0.8c2.2-0.5,5.2-0.8,7.3-0.8c0.7,0,1.2,0.1,1.6,0.5c0.4,0.3,0.7,0.8,1,1.2C37.2,26.6,37,26.7,36.5,26.8z
	 M54.6,27.3c-1.2,2.4-3.6,6.7-5.8,12.5c-0.2,0.5-0.5,0.4-1.2,0.2c-0.7-0.3-1.2-0.6-1.8-1c-0.5-0.3-0.8-1-0.9-1.7
	c-0.1-1.8,0-4.5,0.4-6.3c-1.4,2.5-3.1,6.3-4,8.7c-0.3,0.6-0.6,0.6-1.2,0.4c-0.7-0.4-1.3-0.7-1.8-1.1c-0.6-0.5-1-0.9-0.9-2.9
	c0.1-3.3,0.8-8.3,1.5-11.1c0.1-0.4,0.3-0.6,0.8-0.3c0.5,0.3,0.9,0.8,1.3,1.2c0.3,0.4,0.4,0.9,0.3,1.5c-0.4,2.1-1,6-1.2,8.2
	c1.5-3.5,3.8-7.2,5.9-9.9c0.4-0.4,0.7-0.6,1.2-0.2c0.4,0.4,0.8,0.6,1.2,1.2c0.4,0.4,0.4,0.6,0.2,1.5c-0.4,1.9-1.2,5.2-1.2,7.9
	c1.3-3.4,4.5-9,6.3-11.4c0.2-0.3,0.5-0.4,0.8,0C55.2,25.3,55.1,26.2,54.6,27.3z"/>
</svg>
