<?xml version="1.0" encoding="utf-8"?>
<!-- Generator: Adobe Illustrator 21.0.0, SVG Export Plug-In . SVG Version: 6.00 Build 0)  -->
<!DOCTYPE svg PUBLIC "-//W3C//DTD SVG 1.1//EN" "http://www.w3.org/Graphics/SVG/1.1/DTD/svg11.dtd">
<svg version="1.1" id="Layer_1" xmlns="http://www.w3.org/2000/svg" xmlns:xlink="http://www.w3.org/1999/xlink" x="0px" y="0px"
	 width="60.6302376px" height="64px" viewBox="0 0 60.6302376 64" style="enable-background:new 0 0 60.6302376 64;"
	 xml:space="preserve">
<path d="M49.3807106,41.5034943c-3.5546532,0-6.6917496,1.6896591-8.7550125,4.2722397L21.8706474,35.5474854
	c0.3764706-1.1220856,0.6284065-2.3011818,0.6284065-3.5481224c0-1.2498055-0.2527313-2.4314518-0.6307945-3.5554485
	L40.5842934,18.175375c2.0619888,2.6117249,5.2185135,4.3224049,8.7964172,4.3224049
	c6.2018929,0,11.249527-5.0450878,11.249527-11.2469788C60.6302376,5.047636,55.5826035,0,49.3807106,0
	s-11.249527,5.047636-11.249527,11.2508011c0,1.220026,0.2446098,2.3733253,0.6056328,3.4742317L19.9916401,25.0082207
	c-2.0631046-2.5730267-5.1938295-4.2558365-8.740839-4.2558365C5.047636,20.7523842,0,25.797472,0,31.9993629
	s5.047636,11.249527,11.2508011,11.249527c3.5509901,0,6.6850605-1.6872711,8.7480049-4.2660294l18.7574387,10.2307968
	c-0.3740807,1.1187401-0.625061,2.2938576-0.625061,3.5368156C38.1311836,58.9523621,43.1788177,64,49.3807106,64
	s11.249527-5.0476379,11.249527-11.249527S55.5826035,41.5034943,49.3807106,41.5034943z M49.3807106,3.9137652
	c4.0437164,0,7.335762,3.2907736,7.335762,7.3370361c0,4.0437145-3.2920456,7.3332138-7.335762,7.3332138
	s-7.335762-3.2894993-7.335762-7.3332138C42.0449486,7.2045388,45.336998,3.9137652,49.3807106,3.9137652z M11.2508011,39.335125
	c-4.0462623,0-7.3370361-3.2920456-7.3370361-7.335762s3.2907736-7.3332138,7.3370361-7.3332138
	c4.0437145,0,7.3344879,3.2894993,7.3344879,7.3332138S15.2945156,39.335125,11.2508011,39.335125z M49.3807106,60.086235
	c-4.0437126,0-7.335762-3.2920494-7.335762-7.335762s3.2920494-7.3332138,7.335762-7.3332138s7.335762,3.2894974,7.335762,7.3332138
	S53.424427,60.086235,49.3807106,60.086235z"/>
</svg>
