<?xml version="1.0" encoding="utf-8"?>
<!-- Generator: Adobe Illustrator 22.0.1, SVG Export Plug-In . SVG Version: 6.00 Build 0)  -->
<svg version="1.1" id="Layer_1" xmlns="http://www.w3.org/2000/svg" xmlns:xlink="http://www.w3.org/1999/xlink" x="0px" y="0px"
	 viewBox="0 0 59.4 64" enable-background="new 0 0 59.4 64" xml:space="preserve">
<g>
	<path d="M46.8,5.2V0h-5.7v5.2h-8.5V0h-5.7v5.2h-8.5V0h-5.7v5.2H0v48.4C0,59.3,4.7,64,10.5,64h38.4c5.8,0,10.5-4.7,10.5-10.4V5.2
		H46.8z M54.2,53.6c0,2.9-2.4,5.2-5.3,5.2H10.5c-2.9,0-5.3-2.3-5.3-5.2V10.4h7.4v5.2h5.7v-5.2h8.5v5.2h5.7v-5.2h8.5v5.2h5.7v-5.2
		h7.4V53.6z"/>
	<rect x="12.9" y="45.3" width="33.7" height="5.2"/>
	<rect x="12.9" y="34.3" width="26.7" height="5.2"/>
	<rect x="12.9" y="23.4" width="33.7" height="5.2"/>
</g>
</svg>
