<?xml version="1.0" encoding="utf-8"?>
<!-- Generator: Adobe Illustrator 19.2.1, SVG Export Plug-In . SVG Version: 6.00 Build 0)  -->
<!DOCTYPE svg PUBLIC "-//W3C//DTD SVG 1.1//EN" "http://www.w3.org/Graphics/SVG/1.1/DTD/svg11.dtd">
<svg version="1.1" id="Layer_1" xmlns="http://www.w3.org/2000/svg" xmlns:xlink="http://www.w3.org/1999/xlink" x="0px" y="0px"
	 width="65px" height="64px" viewBox="0 0 65 64" style="enable-background:new 0 0 65 64;" xml:space="preserve">
<path d="M64,10.5l-10-10c-0.7-0.7-1.8-0.7-2.5,0l-7.4,7.4L6.8,45.2c0,0,0,0,0,0c-0.1,0.1-0.1,0.2-0.2,0.3c-0.1,0.1-0.2,0.2-0.2,0.3
	c0,0,0,0,0,0L0.6,61.6C0.4,62.2,0.5,63,1,63.5C1.4,63.8,1.8,64,2.3,64c0.2,0,0.4,0,0.6-0.1l15.8-5.8c0,0,0,0,0,0
	c0.1,0,0.2-0.1,0.3-0.2c0.1-0.1,0.2-0.1,0.3-0.2c0,0,0,0,0,0l37.3-37.3L64,13c0.3-0.3,0.5-0.8,0.5-1.3C64.5,11.3,64.3,10.8,64,10.5z
	 M45.4,11.7l2.4,2.4L13.1,48.9l-2.4-2.4L45.4,11.7z M8.8,49.7l6,6l-9.5,3.5L8.8,49.7z M18.1,53.9l-2.4-2.4l34.8-34.8l2.4,2.4
	L18.1,53.9z M55.4,16.6l-7.4-7.4l4.8-4.8l7.4,7.4L55.4,16.6z"/>
</svg>
