<?xml version="1.0" encoding="utf-8"?>
<!-- Generator: Adobe Illustrator 20.0.0, SVG Export Plug-In . SVG Version: 6.00 Build 0)  -->
<!DOCTYPE svg PUBLIC "-//W3C//DTD SVG 1.1//EN" "http://www.w3.org/Graphics/SVG/1.1/DTD/svg11.dtd">
<svg version="1.1" id="Layer_1" xmlns="http://www.w3.org/2000/svg" xmlns:xlink="http://www.w3.org/1999/xlink" x="0px" y="0px"
	 width="64.17783px" height="64px" viewBox="0 0 64.17783 64" style="enable-background:new 0 0 64.17783 64;" xml:space="preserve"
	>
<path d="M64.17783,16.97664L47.20118,0L8.73733,38.2849l0.00839,0.00839c-0.21239,0.2115-0.3888,0.46125-0.49544,0.75219
	L0.12699,61.20174c-0.27861,0.76057-0.0905,1.61469,0.48298,2.18818C1.00754,63.78851,1.53934,64,2.08231,64
	c0.24098,0,0.48298-0.04067,0.71685-0.12812l22.15627-8.12227c0.28674-0.10486,0.53268-0.27873,0.74265-0.48769l0.00979,0.00978
	L64.17783,16.97664z M58.28033,16.97054L24.2415,50.85342L13.1546,39.76575L47.19305,5.88326L58.28033,16.97054z M5.5842,58.41568
	l5.45416-14.87592l9.42277,9.42175L5.5842,58.41568z"/>
</svg>
