<?xml version="1.0" encoding="utf-8"?>
<!-- Generator: Adobe Illustrator 19.0.1, SVG Export Plug-In . SVG Version: 6.00 Build 0)  -->
<!DOCTYPE svg PUBLIC "-//W3C//DTD SVG 1.1//EN" "http://www.w3.org/Graphics/SVG/1.1/DTD/svg11.dtd">
<svg version="1.1" id="Layer_1" xmlns="http://www.w3.org/2000/svg" xmlns:xlink="http://www.w3.org/1999/xlink" x="0px" y="0px"
	 width="54px" height="64px" viewBox="0 0 54 64" style="enable-background:new 0 0 54 64;" xml:space="preserve">
<path d="M52,0H2c-1.1,0-2,0.9-2,2v46.3c0,1.1,0.9,2,2,2h15.1V62c0,0.8,0.4,1.5,1.1,1.8c0.3,0.1,0.5,0.2,0.8,0.2
	c0.5,0,0.9-0.2,1.3-0.5l15.3-13.3H52c1.1,0,2-0.9,2-2V2C53.9,0.9,53,0,52,0z M35,46.3c-0.5,0-0.9,0.2-1.3,0.5l-12.6,11v-9.5
	c0-1.1-0.9-2-2-2h-6.6c1-7.2,7.1-12.7,14.5-12.7c7.4,0,13.5,5.5,14.5,12.7H35z M20,22.7c0-3.9,3.2-7,7-7c3.9,0,7,3.2,7,7
	c0,3.9-3.2,7-7,7C23.1,29.7,20,26.6,20,22.7z M50,46.3h-4.6c-0.7-6.9-5.3-12.7-11.5-15.2c2.4-2,3.9-5,3.9-8.4
	c0-6-4.9-10.9-10.9-10.9c-6,0-10.9,4.9-10.9,10.9c0,3.4,1.5,6.4,3.9,8.4c-6.2,2.5-10.7,8.3-11.5,15.2H4V3.9h46V46.3z"/>
</svg>
