<?xml version="1.0" encoding="utf-8"?>
<!-- Generator: Adobe Illustrator 22.0.1, SVG Export Plug-In . SVG Version: 6.00 Build 0)  -->
<svg version="1.1" id="Layer_1" xmlns="http://www.w3.org/2000/svg" xmlns:xlink="http://www.w3.org/1999/xlink" x="0px" y="0px"
	 viewBox="0 0 56.9 64" enable-background="new 0 0 56.9 64" xml:space="preserve">
<g>
	<path d="M17.1,23.2c6.4,0,11.6-5.2,11.6-11.6S23.5,0,17.1,0C10.7,0,5.5,5.2,5.5,11.6S10.7,23.2,17.1,23.2z M17.1,3
		c4.7,0,8.6,3.9,8.6,8.6c0,4.7-3.9,8.6-8.6,8.6c-4.7,0-8.6-3.9-8.6-8.6C8.5,6.8,12.3,3,17.1,3z"/>
	<path d="M55.6,28.1L52,24.4c-1.7-1.7-4.6-1.7-6.3,0L34.2,35.9v-0.3c0-4.7-3.8-8.4-8.4-8.4H8.4C3.8,27.2,0,31,0,35.6V48h3V35.6
		c0-3,2.5-5.5,5.5-5.5h17.3c3,0,5.5,2.5,5.5,5.5v3.3L21.1,49l0,0c-0.2,0.2-0.3,0.3-0.4,0.5L16.2,62c-0.2,0.5-0.1,1.2,0.3,1.6
		c0.3,0.3,0.7,0.4,1.1,0.4c0.2,0,0.3,0,0.5-0.1l12.4-4.6c0.2-0.1,0.4-0.2,0.5-0.4l0,0l24.6-24.6C57.4,32.7,57.4,29.8,55.6,28.1z
		 M30,55.8l-5.8-5.8l18-18l5.8,5.8L30,55.8z M20.1,60l2.6-7.2l4.6,4.6L20.1,60z M53.5,32.3l-3.4,3.4L44.3,30l3.4-3.4
		c0.6-0.6,1.5-0.6,2.1,0l3.7,3.7C54.1,30.8,54.1,31.7,53.5,32.3z"/>
</g>
</svg>
