<?xml version="1.0" encoding="utf-8"?>
<!-- Generator: Adobe Illustrator 20.0.0, SVG Export Plug-In . SVG Version: 6.00 Build 0)  -->
<!DOCTYPE svg PUBLIC "-//W3C//DTD SVG 1.1//EN" "http://www.w3.org/Graphics/SVG/1.1/DTD/svg11.dtd">
<svg version="1.1" id="Layer_1" xmlns="http://www.w3.org/2000/svg" xmlns:xlink="http://www.w3.org/1999/xlink" x="0px" y="0px"
	 width="53.82623px" height="64px" viewBox="0 0 53.82623 64" style="enable-background:new 0 0 53.82623 64;" xml:space="preserve"
	>
<path d="M51.87494,0H1.95129C0.87369,0,0,0.87369,0,1.95129v46.32214c0,1.07855,0.87369,1.95129,1.95129,1.95129h15.14343v11.82397
	c0,0.76413,0.44592,1.45773,1.14145,1.77597C18.49533,63.94284,18.77164,64,19.04602,64c0.46115,0,0.91754-0.16388,1.2796-0.4783
	L35.6377,50.22473h16.23724c1.07855,0,1.95129-0.87274,1.95129-1.95129V1.95129C53.82623,0.87369,52.95349,0,51.87494,0z
	 M34.90787,46.32214c-0.47067,0-0.92419,0.16959-1.27863,0.4783L20.99731,57.76883v-9.49539
	c0-1.07855-0.87369-1.95129-1.95129-1.95129h-6.65475c0.95755-7.16138,7.10233-12.70242,14.52185-12.70242
	c7.41867,0,13.56335,5.54105,14.52087,12.70242H34.90787z M19.88733,22.69135c0-3.87399,3.15179-7.02579,7.02579-7.02579
	c3.87305,0,7.02484,3.15179,7.02484,7.02579c0,3.87305-3.15179,7.02484-7.02484,7.02484
	C23.03912,29.71619,19.88733,26.56439,19.88733,22.69135z M49.92365,46.32214h-4.5679
	c-0.72784-6.9119-5.2583-12.7019-11.46198-15.23169c2.40945-2.00632,3.94675-5.02603,3.94675-8.39911
	c0-6.02631-4.90109-10.92834-10.9274-10.92834s-10.92838,4.90204-10.92838,10.92834c0,3.37296,1.53745,6.39267,3.94714,8.39911
	c-6.2041,2.52979-10.73453,8.31979-11.46234,15.23169H3.90259V3.90256h46.02106V46.32214z"/>
</svg>
