<?xml version="1.0" encoding="utf-8"?>
<!-- Generator: Adobe Illustrator 19.0.1, SVG Export Plug-In . SVG Version: 6.00 Build 0)  -->
<!DOCTYPE svg PUBLIC "-//W3C//DTD SVG 1.1//EN" "http://www.w3.org/Graphics/SVG/1.1/DTD/svg11.dtd">
<svg version="1.1" id="Layer_1" xmlns="http://www.w3.org/2000/svg" xmlns:xlink="http://www.w3.org/1999/xlink" x="0px" y="0px"
	 width="69px" height="64px" viewBox="0 0 69 64" style="enable-background:new 0 0 69 64;" xml:space="preserve">
<g>
	<path d="M26.5,21.5c5.9,0,10.7-4.8,10.7-10.7S32.4,0,26.5,0S15.7,4.8,15.7,10.7S20.5,21.5,26.5,21.5z M26.5,2.8c4.4,0,8,3.6,8,8
		s-3.6,8-8,8c-4.4,0-8-3.6-8-8S22.1,2.8,26.5,2.8z"/>
	<path d="M67.7,21.2l-3.9-3.9c-1.6-1.6-4.4-1.6-6,0L42.3,32.7c-0.1-4.2-3.6-7.5-7.8-7.5h-16c-4.3,0-7.8,3.5-7.8,7.8v10.1H1.5
		c-0.8,0-1.4,0.6-1.4,1.4c0,0.8,0.6,1.4,1.4,1.4h27.7l-6.2,6.2c-0.1,0.1-0.2,0.3-0.3,0.4c0,0.1,0,0.1-0.1,0.2c0,0.1-0.1,0.1-0.1,0.2
		L21,62.4c-0.1,0.4,0.1,0.9,0.4,1.2c0.3,0.3,0.6,0.4,1,0.4c0.1,0,0.1,0,0.2,0l9.6-1.6c0.1,0,0.1,0,0.2-0.1c0.1,0,0.1,0,0.2-0.1
		c0.2-0.1,0.3-0.2,0.4-0.3l34.8-34.8c0.8-0.8,1.2-1.9,1.2-3C68.9,23.1,68.5,22,67.7,21.2z M59.7,19.2c0.6-0.6,1.5-0.6,2.1,0l1,1
		L27.9,55.1L25.9,53l15.6-15.6c0.3-0.1,0.6-0.4,0.7-0.7L59.7,19.2z M13.4,33c0-2.8,2.3-5.1,5.1-5.1h16c2.8,0,5.1,2.3,5.1,5.1v2.5
		l-7.6,7.6H13.4V33z M24.8,55.9l4.2,4.2l-5,0.8L24.8,55.9z M65.7,25.3L31.9,59.1L29.9,57l34.9-34.9l1,1
		C66.3,23.8,66.3,24.7,65.7,25.3z"/>
</g>
</svg>
