<?xml version="1.0" encoding="utf-8"?>
<!-- Generator: Adobe Illustrator 20.0.0, SVG Export Plug-In . SVG Version: 6.00 Build 0)  -->
<!DOCTYPE svg PUBLIC "-//W3C//DTD SVG 1.1//EN" "http://www.w3.org/Graphics/SVG/1.1/DTD/svg11.dtd">
<svg version="1.1" id="Layer_1" xmlns="http://www.w3.org/2000/svg" xmlns:xlink="http://www.w3.org/1999/xlink" x="0px" y="0px"
	 width="63.89525px" height="64px" viewBox="0 0 63.89525 64" style="enable-background:new 0 0 63.89525 64;" xml:space="preserve"
	>
<g>
	<path d="M63.38325,64H7.81513c-0.283,0-0.512-0.229-0.512-0.512s0.229-0.512,0.512-0.512h55.05612V7.91987
		c0-0.283,0.229-0.512,0.512-0.512s0.512,0.229,0.512,0.512V63.488C63.89525,63.771,63.66625,64,63.38325,64z"/>
</g>
<g>
	<path d="M59.47524,60.03999H3.90762c-0.283,0-0.512-0.229-0.512-0.512s0.229-0.512,0.512-0.512h55.05562V3.95986
		c0-0.283,0.229-0.512,0.512-0.512s0.512,0.229,0.512,0.512v55.56812C59.98724,59.81099,59.75824,60.03999,59.47524,60.03999z"/>
</g>
<g>
	<path d="M54.54408,1.024v53.52008H1.024V1.024H54.54408 M55.56808,0H0v55.56808h55.56808V0L55.56808,0z"/>
</g>
<path d="M43.29521,13.30089H39.4082c-0.283,0-0.512,0.229-0.512,0.512v3.24651v24.20955c0,0.083,0.02419,0.15825,0.05912,0.2275
	c0.00344,0.007,0.00212,0.01569,0.00587,0.0225l1.943,3.46501c0.091,0.162,0.262,0.262,0.447,0.262c0.185,0,0.356-0.1,0.447-0.261
	l1.944-3.46501c0.004-0.00738,0.00256-0.0165,0.00625-0.02406c0.03475-0.06913,0.05875-0.14419,0.05875-0.22694V17.05939v-3.24651
	C43.80721,13.52989,43.57821,13.30089,43.29521,13.30089z M39.9202,40.75695V17.5714h2.86301v23.18555H39.9202z M39.9202,14.32489
	h2.86301v2.2225H39.9202V14.32489z M41.3512,43.68695l-1.06875-1.90601h2.13825L41.3512,43.68695z"/>
<g>
	<path d="M22.64716,45.24596c-0.0605,0-0.121-0.011-0.1795-0.033c-0.2-0.075-0.3325-0.266-0.3325-0.479v-3.63901h-9.08402
		c-0.283,0-0.512-0.229-0.512-0.512V26.02091c0-0.283,0.229-0.512,0.512-0.512h18.65304c0.283,0,0.512,0.229,0.512,0.512v14.56203
		c0,0.283-0.229,0.512-0.512,0.512h-5.20251l-3.46851,3.97601C22.93366,45.18396,22.79216,45.24596,22.64716,45.24596z
		 M13.56314,40.07095h9.08402c0.283,0,0.512,0.229,0.512,0.512v2.78501l2.72351-3.12201c0.0975-0.111,0.238-0.175,0.386-0.175
		h4.92351V26.53292H13.56314V40.07095z"/>
</g>
<g>
	<path d="M28.51517,30.62092H16.18665c-0.283,0-0.512-0.229-0.512-0.512s0.229-0.512,0.512-0.512h12.32853
		c0.283,0,0.512,0.229,0.512,0.512S28.79817,30.62092,28.51517,30.62092z"/>
</g>
<g>
	<path d="M28.51517,36.69794H16.18665c-0.283,0-0.512-0.229-0.512-0.512s0.229-0.512,0.512-0.512h12.32853
		c0.283,0,0.512,0.229,0.512,0.512S28.79817,36.69794,28.51517,36.69794z"/>
</g>
<g>
	<path d="M28.51517,33.65893H16.18665c-0.283,0-0.512-0.229-0.512-0.512s0.229-0.512,0.512-0.512h12.32853
		c0.283,0,0.512,0.229,0.512,0.512S28.79817,33.65893,28.51517,33.65893z"/>
</g>
<path d="M33.72419,12.93238c-0.657-0.271-1.377-0.128-1.87901,0.374l-3.50213,3.50213
	c-0.415-1.4745-1.75725-2.56463-3.36238-2.56463c-1.77725,0-3.23394,1.33294-3.46157,3.04888
	c-0.63938-0.26825-1.3715-0.26781-2.01088-0.0005c-0.12475-0.93944-0.61581-1.75644-1.33238-2.309l3.11882-3.11838
	c0.307-0.308,0.6625-0.194,0.7635-0.152c0.1015,0.042,0.4325,0.213,0.4325,0.647c0,0.283,0.229,0.512,0.512,0.512
	s0.512-0.229,0.512-0.512c0-0.7105-0.408-1.321-1.0645-1.593c-0.655-0.2705-1.377-0.129-1.87951,0.374l-3.32732,3.32688
	c-0.375-0.13713-0.77431-0.22388-1.19619-0.22388c-1.9345,0-3.50801,1.5735-3.50801,3.50801c0,1.934,1.5735,3.50751,3.50801,3.50751
	c1.70819,0,3.13088-1.22882,3.44082-2.84801l0.40969-0.173c0.392-0.165,0.841-0.1655,1.232,0.0005l0.40969,0.17269
	c0.31,1.61913,1.73275,2.84782,3.44132,2.84782c1.79707,0,3.26563-1.36357,3.46707-3.10757l4.12145-4.12145
	c0.3065-0.3085,0.662-0.1935,0.764-0.152c0.101,0.042,0.432,0.213,0.432,0.6475c0,0.283,0.229,0.512,0.512,0.512
	s0.512-0.229,0.512-0.512C34.78919,13.81489,34.38119,13.20439,33.72419,12.93238z M16.04715,20.2354
	c-1.3695,0-2.48401-1.114-2.48401-2.48351s1.1145-2.48401,2.48401-2.48401s2.48351,1.1145,2.48351,2.48401
	S17.41665,20.2354,16.04715,20.2354z M24.98067,20.2354c-1.3695,0-2.484-1.114-2.484-2.48351s1.1145-2.48401,2.484-2.48401
	s2.48351,1.1145,2.48351,2.48401S26.35017,20.2354,24.98067,20.2354z"/>
</svg>
