<?xml version="1.0" encoding="utf-8"?>
<!-- Generator: Adobe Illustrator 19.0.1, SVG Export Plug-In . SVG Version: 6.00 Build 0)  -->
<!DOCTYPE svg PUBLIC "-//W3C//DTD SVG 1.1//EN" "http://www.w3.org/Graphics/SVG/1.1/DTD/svg11.dtd">
<svg version="1.1" id="Layer_1" xmlns="http://www.w3.org/2000/svg" xmlns:xlink="http://www.w3.org/1999/xlink" x="0px" y="0px"
	 width="126px" height="64px" viewBox="0 0 126 64" style="enable-background:new 0 0 126 64;" xml:space="preserve">
<path d="M117,30.1c-3.5,0-6.6,2.2-7.9,5.2H92.9l-6.5-15.6c-0.5-1.2-1.7-2-3-2c-1.3,0-2.5,0.7-3.1,1.9L65.5,51.9L48,2.2
	c-0.5-1.3-1.7-2.2-3-2.2c-1.4-0.1-2.6,0.8-3.1,2L27.9,35.3H3.8c-1.8,0-3.3,1.5-3.3,3.3c0,1.8,1.5,3.3,3.3,3.3h26.3
	c1.3,0,2.5-0.8,3.1-2l11.4-27.4L62,61.8c0.4,1.3,1.6,2.1,3,2.2c0,0,0.1,0,0.1,0c1.3,0,2.5-0.8,3-1.9l15-32.9l4.5,10.7
	c0.5,1.2,1.7,2,3.1,2h18.5c1.3,3.1,4.3,5.2,7.9,5.2c4.7,0,8.5-3.8,8.5-8.5S121.7,30.1,117,30.1z"/>
</svg>
