<?xml version="1.0" encoding="utf-8"?>
<!-- Generator: Adobe Illustrator 21.0.2, SVG Export Plug-In . SVG Version: 6.00 Build 0)  -->
<!DOCTYPE svg PUBLIC "-//W3C//DTD SVG 1.1//EN" "http://www.w3.org/Graphics/SVG/1.1/DTD/svg11.dtd">
<svg version="1.1" id="Layer_1" xmlns="http://www.w3.org/2000/svg" xmlns:xlink="http://www.w3.org/1999/xlink" x="0px" y="0px"
	 width="64px" height="64px" viewBox="0 0 64 64" style="enable-background:new 0 0 64 64;" xml:space="preserve">
<g>
	<g>
		<g>
			<g>
				<path d="M33.3479,38.64856h-4.21638V36.4983c0-5.73329,3.07769-5.31165,7.0828-8.00978
					c1.09572-0.75913,1.68655-2.02359,1.68655-3.16184c0-2.36108-2.10909-3.92096-4.42765-3.92096
					c-2.27559,0-4.25756,1.72862-4.25756,4.5109h-4.17341c0-5.39625,3.75267-8.81098,8.43097-8.81098
					c4.76424,0,8.72817,3.16184,8.72817,8.22104c0,4.08926-2.69812,6.95591-5.98708,7.9677
					c-1.72952,0.50579-2.78227,1.22262-2.78227,3.20391L33.3479,38.64856z M31.28179,41.17794
					c1.64358,0,2.99354,1.22261,2.99354,2.86687c0,1.64403-1.34996,2.82457-2.99354,2.82457
					c-1.6024,0-2.99354-1.18054-2.99354-2.82457C28.28825,42.40056,29.67938,41.17794,31.28179,41.17794z"/>
			</g>
		</g>
		<g>
			<path d="M32,64C14.3554,64,0,49.6446,0,32S14.3554,0,32,0s32,14.3554,32,32S49.6446,64,32,64z M32,3.74759
				C16.42133,3.74759,3.74759,16.42133,3.74759,32S16.42133,60.25241,32,60.25241S60.25241,47.57867,60.25241,32
				S47.57867,3.74759,32,3.74759z"/>
		</g>
	</g>
</g>
</svg>
