<?xml version="1.0" encoding="utf-8"?>
<!-- Generator: Adobe Illustrator 20.0.0, SVG Export Plug-In . SVG Version: 6.00 Build 0)  -->
<!DOCTYPE svg PUBLIC "-//W3C//DTD SVG 1.1//EN" "http://www.w3.org/Graphics/SVG/1.1/DTD/svg11.dtd">
<svg version="1.1" id="Layer_1" xmlns="http://www.w3.org/2000/svg" xmlns:xlink="http://www.w3.org/1999/xlink" x="0px" y="0px"
	 width="51.39685px" height="64px" viewBox="0 0 51.39685 64" style="enable-background:new 0 0 51.39685 64;" xml:space="preserve"
	>
<path d="M14.18804,11.6523c-0.38495,0-0.76037-0.19331-0.97778-0.54464L9.15067,4.53162
	c-0.33284-0.5396-0.1653-1.24673,0.37374-1.57957c0.5396-0.33284,1.24561-0.1653,1.57957,0.37374l4.05959,6.57603
	c0.33284,0.5396,0.1653,1.24673-0.37374,1.57957C14.60212,11.59738,14.39368,11.6523,14.18804,11.6523z"/>
<path d="M23.21047,9.58412c-0.07172,0-0.14513-0.00672-0.21853-0.02073c-0.62197-0.11991-1.02933-0.72171-0.90942-1.34423
	l1.40587-7.28989c0.11991-0.62141,0.7217-1.0254,1.34423-0.90942c0.62197,0.11991,1.02933,0.7217,0.90942,1.34423l-1.40587,7.28989
	C24.23027,9.20253,23.74951,9.58412,23.21047,9.58412z"/>
<path d="M8.29561,18.79202c-0.10254,0-0.20732-0.01401-0.31098-0.04314l-7.14701-2.0099
	c-0.6102-0.17202-0.96601-0.80576-0.79455-1.41539c0.17258-0.61076,0.808-0.96545,1.41539-0.79455l7.14701,2.0099
	c0.6102,0.17202,0.96601,0.80576,0.79455,1.41539C9.25714,18.46087,8.79711,18.79202,8.29561,18.79202z"/>
<path d="M43.36946,64c-0.3687,0-0.73067-0.17706-0.95256-0.50542L31.91744,47.93086l-8.7305,5.32425
	c-0.33564,0.20732-0.75364,0.22413-1.10665,0.04931c-0.35245-0.17482-0.59115-0.51886-0.63205-0.90997l-3.51047-33.70889
	c-0.04539-0.43818,0.16362-0.86347,0.53848-1.09488c0.37542-0.23086,0.85058-0.22861,1.21984,0.00841l28.57515,18.22305
	c0.33396,0.21292,0.53456,0.58274,0.53008,0.97946c-0.00449,0.39559-0.21293,0.76205-0.55136,0.96825l-7.38067,4.4916
	l10.33249,15.39674c0.17034,0.25439,0.2331,0.56593,0.17258,0.86515c-0.05939,0.29922-0.23646,0.56257-0.49197,0.73179
	l-6.88085,4.55436C43.80652,63.93836,43.58687,64,43.36946,64z M32.25476,45.23343c0.36982,0,0.73179,0.17818,0.95256,0.50542
	l10.47593,15.52898l4.96901-3.28913L38.29512,42.54497c-0.17482-0.25999-0.23534-0.5805-0.1681-0.88644
	c0.06724-0.30594,0.25663-0.57042,0.52447-0.73403l6.83266-4.15765L20.4671,20.81257l3.07565,29.53779l8.11582-4.94883
	C31.8446,45.28722,32.0508,45.23343,32.25476,45.23343z"/>
</svg>
