<?xml version="1.0" encoding="utf-8"?>
<!-- Generator: Adobe Illustrator 22.1.0, SVG Export Plug-In . SVG Version: 6.00 Build 0)  -->
<svg version="1.1" id="Layer_1" xmlns="http://www.w3.org/2000/svg" xmlns:xlink="http://www.w3.org/1999/xlink" x="0px" y="0px"
	 viewBox="0 0 89.6 64" style="enable-background:new 0 0 89.6 64;" xml:space="preserve">
<style type="text/css">
	.st0{fill:#FFFFFF;}
</style>
<polygon class="st0" points="0,21.7 0,42.3 16,42.3 40.5,64 40.5,0 16,21.7 "/>
<path class="st0" d="M62.5,11.1l-5,3.2c5.5,3.3,9.2,9.3,9.2,16.1c0,7.7-4.6,14.3-11.2,17.2l5.4,3.3c6.8-4.3,11.3-11.8,11.3-20.5
	C72.2,22.5,68.3,15.5,62.5,11.1z"/>
<path class="st0" d="M77.7,1.3l-4.7,3c6.9,6.6,11.2,15.8,11.2,26.1c0,10.8-4.8,20.5-12.3,27.1l4.8,2.9c7.9-7.6,12.9-18.2,12.9-30.1
	C89.6,19.1,85,8.8,77.7,1.3z"/>
</svg>
