<?xml version="1.0" encoding="utf-8"?>
<!-- Generator: Adobe Illustrator 21.0.0, SVG Export Plug-In . SVG Version: 6.00 Build 0)  -->
<!DOCTYPE svg PUBLIC "-//W3C//DTD SVG 1.1//EN" "http://www.w3.org/Graphics/SVG/1.1/DTD/svg11.dtd">
<svg version="1.1" id="Layer_1" xmlns="http://www.w3.org/2000/svg" xmlns:xlink="http://www.w3.org/1999/xlink" x="0px" y="0px"
	 width="98.371994px" height="128px" viewBox="0 0 98.371994 128" style="enable-background:new 0 0 98.371994 128;"
	 xml:space="preserve">
<g>
	<path d="M89.2494507,119.840004H9.1234827c-0.5330744,0-0.9644318-0.4313507-0.9644318-0.9644318
		c0-0.5330734,0.4313574-0.9644241,0.9644318-0.9644241h79.1615372V9.124424c0-0.5330744,0.4313583-0.9644308,0.9644318-0.9644308
		s0.9644318,0.4313564,0.9644318,0.9644308v109.7511444C90.2138824,119.4086533,89.7825241,119.840004,89.2494507,119.840004z"/>
	<path d="M97.4075623,128H17.2825336c-0.5330753,0-0.9644318-0.4313583-0.9644318-0.9644318
		s0.4313564-0.9644318,0.9644318-0.9644318h79.1605988V17.2834759c0-0.5330753,0.4313583-0.9644318,0.9644318-0.9644318
		s0.9644318,0.4313564,0.9644318,0.9644318v109.7520905C98.371994,127.5686417,97.9406357,128,97.4075623,128z"/>
	<path d="M81.0894623,0H26.5190353c-1.1861134,0-2.2582664,0.4567863-3.0850735,1.1854075
		c-0.0364952,0.027313-0.0792313,0.0415581-0.1124306,0.0747576l-0.1040726,0.104072
		c-0.0081234,0.0081233-0.0163631,0.0162466-0.0244865,0.0243697L1.4004974,23.1764889
		c-0.004356,0.0043564-0.0055332,0.010479-0.0098892,0.0149517C0.5330743,24.0417938,0,25.2188416,0,26.5190353v84.1984329
		c0,0.5330734,0.431357,0.9644318,0.9644313,0.9644318h80.1250305c0.5330734,0,0.9644241-0.4313583,0.9644241-0.9644318V0.9644313
		C82.0538864,0.431357,81.6225357,0,81.0894623,0z M21.8287354,5.4799051v16.3488312H5.4763732L21.8287354,5.4799051z
		 M80.1250305,109.7530365H1.9288626V26.5190353c0-1.5229359,1.2385032-2.7614384,2.7614379-2.7614384h18.1028652
		c0.5330753,0,0.9644318-0.4313564,0.9644318-0.9644318V4.6903005c0-0.7521667,0.3038578-1.4334612,0.7931366-1.9318056
		l0.0366135-0.0366135c0.4984627-0.4891617,1.1795216-0.7930188,1.9316883-0.7930188h53.6059952V109.7530365z"/>
	<path d="M64.1685867,39.5162544H18.9684048c-0.5330753,0-0.9644318-0.4313583-0.9644318-0.9644318
		s0.4313564-0.9644318,0.9644318-0.9644318h45.2001801c0.5330734,0,0.9644318,0.4313583,0.9644318,0.9644318
		S64.7016602,39.5162544,64.1685867,39.5162544z"/>
	<path d="M64.1685867,60.3636055H18.9684048c-0.5330753,0-0.9644318-0.4313583-0.9644318-0.9644318
		s0.4313564-0.9644318,0.9644318-0.9644318h45.2001801c0.5330734,0,0.9644318,0.4313583,0.9644318,0.9644318
		S64.7016602,60.3636055,64.1685867,60.3636055z"/>
	<path d="M64.1685867,81.2118988H18.9684048c-0.5330753,0-0.9644318-0.4313583-0.9644318-0.9644318
		s0.4313564-0.9644318,0.9644318-0.9644318h45.2001801c0.5330734,0,0.9644318,0.4313583,0.9644318,0.9644318
		S64.7016602,81.2118988,64.1685867,81.2118988z"/>
	<path d="M56.9372368,49.5834465H18.9684048c-0.5330753,0-0.9644318-0.4313545-0.9644318-0.9644318
		c0-0.5330734,0.4313564-0.9644318,0.9644318-0.9644318h37.9688339c0.5330734,0,0.9644318,0.4313583,0.9644318,0.9644318
		C57.9016685,49.152092,57.4703102,49.5834465,56.9372368,49.5834465z"/>
	<path d="M56.9372368,70.4524612H18.9684048c-0.5330753,0-0.9644318-0.4313583-0.9644318-0.9644318
		s0.4313564-0.9644318,0.9644318-0.9644318h37.9688339c0.5330734,0,0.9644318,0.4313583,0.9644318,0.9644318
		S57.4703102,70.4524612,56.9372368,70.4524612z"/>
</g>
</svg>
