<?xml version="1.0" encoding="utf-8"?>
<!-- Generator: Adobe Illustrator 20.0.0, SVG Export Plug-In . SVG Version: 6.00 Build 0)  -->
<!DOCTYPE svg PUBLIC "-//W3C//DTD SVG 1.1//EN" "http://www.w3.org/Graphics/SVG/1.1/DTD/svg11.dtd">
<svg version="1.1" id="Layer_1" xmlns="http://www.w3.org/2000/svg" xmlns:xlink="http://www.w3.org/1999/xlink" x="0px" y="0px"
	 width="114.3462372px" height="128px" viewBox="0 0 114.3462372 128" style="enable-background:new 0 0 114.3462372 128;"
	 xml:space="preserve">
<path d="M114.3462372,27.3724289h-11.4436417H82.4381714V8.0148726C82.4381714,3.5946145,78.8471603,0,74.4269028,0h-34.507576
	c-4.4202576,0-8.0148716,3.5946145-8.0148716,8.0148726v19.3575554H11.4472427H0v7.3839226h11.8091373l4.0006762,81.5764771
	C15.8098135,122.7649155,20.756464,128,26.8388252,128h60.6685829c6.0787582,0,11.0254059-5.2350845,11.0181961-11.4869003
	l4.0146484-81.7567444h11.8059845V27.3724289z M39.2883797,8.0148726c0-0.3461213,0.2848282-0.6309505,0.6309471-0.6309505
	h34.507576c0.3461227,0,0.6273499,0.2848291,0.6273499,0.6309505v19.3575554h-35.765873V8.0148726z M91.1488953,116.3328247
	c0,2.3651657-1.6368713,4.2832565-3.6414871,4.2832565H26.8388252c-2.0082245,0-3.6450901-1.9180908-3.648695-4.4635239
	l-3.9912109-81.3962097h75.9447861L91.1488953,116.3328247z"/>
<rect x="42.0825882" y="56.4934921" width="7.3839221" height="38.4735489"/>
<rect x="67.9299164" y="56.4934921" width="7.3839221" height="38.4735489"/>
</svg>
