<?xml version="1.0" encoding="utf-8"?>
<!-- Generator: Adobe Illustrator 20.0.0, SVG Export Plug-In . SVG Version: 6.00 Build 0)  -->
<!DOCTYPE svg PUBLIC "-//W3C//DTD SVG 1.1//EN" "http://www.w3.org/Graphics/SVG/1.1/DTD/svg11.dtd">
<svg version="1.1" id="Layer_1" xmlns="http://www.w3.org/2000/svg" xmlns:xlink="http://www.w3.org/1999/xlink" x="0px" y="0px"
	 width="57.17312px" height="64px" viewBox="0 0 57.17312 64" style="enable-background:new 0 0 57.17312 64;" xml:space="preserve"
	>
<g>
	<path d="M57.17312,13.68621H51.4513H41.21909V4.00744C41.21909,1.79731,39.42358,0,37.21345,0H19.95966
		c-2.21013,0-4.00744,1.79731-4.00744,4.00744v9.67878H5.72362H0v3.69196h5.90457l2.00034,40.78824
		C7.90491,61.38246,10.37823,64,13.41941,64H43.7537c3.03938,0,5.5127-2.61754,5.5091-5.74345l2.00732-40.87837h5.90299V13.68621z
		 M19.64419,4.00744c0-0.17306,0.14241-0.31548,0.31547-0.31548h17.25379c0.17306,0,0.31367,0.14241,0.31367,0.31548v9.67878
		H19.64419V4.00744z M45.57445,58.16641c0,1.18258-0.81844,2.14163-1.82074,2.14163H13.41941
		c-1.00411,0-1.82255-0.95905-1.82435-2.23176l-1.99561-40.6981h37.97239L45.57445,58.16641z"/>
	<rect x="21.04129" y="28.24675" width="3.69196" height="19.23677"/>
	<rect x="33.96496" y="28.24675" width="3.69196" height="19.23677"/>
</g>
</svg>
