<?xml version="1.0" encoding="utf-8"?>
<!-- Generator: Adobe Illustrator 20.0.0, SVG Export Plug-In . SVG Version: 6.00 Build 0)  -->
<!DOCTYPE svg PUBLIC "-//W3C//DTD SVG 1.1//EN" "http://www.w3.org/Graphics/SVG/1.1/DTD/svg11.dtd">
<svg version="1.1" id="Layer_1" xmlns="http://www.w3.org/2000/svg" xmlns:xlink="http://www.w3.org/1999/xlink" x="0px" y="0px"
	 width="114.34624px" height="128px" viewBox="0 0 114.34624 128" style="enable-background:new 0 0 114.34624 128;"
	 xml:space="preserve">
<g>
	<path d="M114.34624,27.37243H102.9026H82.43817V8.01487C82.43817,3.59461,78.84716,0,74.4269,0H39.91933
		c-4.42026,0-8.01487,3.59461-8.01487,8.01487v19.35756H11.44724H0v7.38392h11.80914l4.00068,81.57648
		c0,6.43209,4.94665,11.66718,11.02901,11.66718h60.66858c6.07876,0,11.02541-5.23508,11.0182-11.4869l4.01465-81.75674h11.80598
		V27.37243z M39.28838,8.01487c0-0.34612,0.28483-0.63095,0.63095-0.63095H74.4269c0.34612,0,0.62735,0.28483,0.62735,0.63095
		v19.35756H39.28838V8.01487z M91.1489,116.33282c0,2.36517-1.63687,4.28326-3.64149,4.28326H26.83883
		c-2.00822,0-3.64509-1.91809-3.64869-4.46352l-3.99121-81.39621h75.94479L91.1489,116.33282z"/>
	<rect x="42.08259" y="56.49349" width="7.38392" height="38.47355"/>
	<rect x="67.92992" y="56.49349" width="7.38392" height="38.47355"/>
</g>
</svg>
