<?xml version="1.0" encoding="utf-8"?>
<!-- Generator: Adobe Illustrator 19.0.1, SVG Export Plug-In . SVG Version: 6.00 Build 0)  -->
<!DOCTYPE svg PUBLIC "-//W3C//DTD SVG 1.1//EN" "http://www.w3.org/Graphics/SVG/1.1/DTD/svg11.dtd">
<svg version="1.1" id="Layer_1" xmlns="http://www.w3.org/2000/svg" xmlns:xlink="http://www.w3.org/1999/xlink" x="0px" y="0px"
	 width="79px" height="64px" viewBox="0 0 79 64" style="enable-background:new 0 0 79 64;" xml:space="preserve">
<path d="M78.9,7.6c-2.9,1.3-6,2.2-9.3,2.5c3.3-2,5.9-5.2,7.1-8.9C73.6,3,70.1,4.4,66.4,5.1C63.5,2,59.3,0,54.6,0
	c-8.9,0-16.2,7.2-16.2,16.2c0,1.3,0.1,2.5,0.4,3.7C25.5,19.2,13.6,12.7,5.6,3c-1.4,2.4-2.2,5.2-2.2,8.1c0,5.6,2.9,10.6,7.2,13.4
	c-2.6-0.1-5.1-0.8-7.3-2c0,0.1,0,0.1,0,0.2c0,7.8,5.6,14.4,13,15.8c-1.4,0.4-2.8,0.6-4.3,0.6c-1,0-2.1-0.1-3-0.3
	C11,45.2,17,49.9,24,50.1C18.5,54.4,11.5,57,4,57c-1.3,0-2.6-0.1-3.9-0.2C7.3,61.3,15.8,64,24.9,64c29.7,0,46-24.6,46-46
	c0-0.7,0-1.4,0-2.1C74,13.7,76.7,10.8,78.9,7.6z"/>
</svg>
