<?xml version="1.0" encoding="utf-8"?>
<!-- Generator: Adobe Illustrator 19.2.1, SVG Export Plug-In . SVG Version: 6.00 Build 0)  -->
<!DOCTYPE svg PUBLIC "-//W3C//DTD SVG 1.1//EN" "http://www.w3.org/Graphics/SVG/1.1/DTD/svg11.dtd">
<svg version="1.1" id="Layer_1" xmlns="http://www.w3.org/2000/svg" xmlns:xlink="http://www.w3.org/1999/xlink" x="0px" y="0px"
	 width="64px" height="64px" viewBox="0 0 64 64" style="enable-background:new 0 0 64 64;" xml:space="preserve">
<g>
	<g>
		<g>
			<path d="M16.5,64c-0.3,0-0.5-0.1-0.8-0.2c-0.8-0.3-1.3-1.1-1.3-2V50.8l-12.1,0c0,0,0,0,0,0c-0.6,0-1.1-0.2-1.5-0.6
				c-0.4-0.4-0.6-0.9-0.6-1.5V2.1C0.2,0.9,1.1,0,2.3,0h59.4c1.2,0,2.1,0.9,2.1,2.1v46.6c0,0.6-0.2,1.1-0.6,1.5
				c-0.4,0.4-0.9,0.5-1.5,0.6l-31.1-0.1L18,63.4C17.6,63.8,17.1,64,16.5,64z M16.5,46.6c0.6,0,1.1,0.2,1.5,0.6
				c0.4,0.4,0.6,0.9,0.6,1.5v8.1l9.6-9.6c0.4-0.4,0.9-0.6,1.5-0.6c0,0,0,0,0,0l29.9,0V4.2H4.4v42.4L16.5,46.6
				C16.5,46.6,16.5,46.6,16.5,46.6z"/>
		</g>
	</g>
	<g>
		<path d="M50.2,18.3H14.4c-1.2,0-2.1-0.9-2.1-2.1s0.9-2.1,2.1-2.1h35.7c1.2,0,2.1,0.9,2.1,2.1S51.3,18.3,50.2,18.3z"/>
	</g>
	<g>
		<path d="M50.2,28.3H14.4c-1.2,0-2.1-0.9-2.1-2.1s0.9-2.1,2.1-2.1h35.7c1.2,0,2.1,0.9,2.1,2.1S51.3,28.3,50.2,28.3z"/>
	</g>
	<g>
		<path d="M50.2,38.2H14.4c-1.2,0-2.1-0.9-2.1-2.1c0-1.2,0.9-2.1,2.1-2.1h35.7c1.2,0,2.1,0.9,2.1,2.1C52.3,37.3,51.3,38.2,50.2,38.2
			z"/>
	</g>
</g>
</svg>
