<svg xmlns="http://www.w3.org/2000/svg" width="16" height="16" viewBox="0 0 16 16">
  <g fill="none" fill-rule="evenodd">
    <path fill="#000" d="M8.49999995,1.5 L14.4999999,6 L8.49999995,10.5 L8.49999995,1.5 Z M8.5,5 L8.5,7 C4.47029597,7 3.5000232,8.08962773 3.5009999,11.8602778 L3.5,15.0003185 L1.5,14.9996815 L1.50099998,11.8602184 C1.49974956,7.03363911 3.31062917,5 8.5,5 Z"/>
    <path fill="#000" d="M8.49999995,1.5 L14.4999999,6 L8.49999995,10.5 L8.49999995,1.5 Z M8.5,5 L8.5,7 C4.47029597,7 3.5000232,8.08962773 3.5009999,11.8602778 L3.5,15.0003185 L1.5,14.9996815 L1.50099998,11.8602184 C1.49974956,7.03363911 3.31062917,5 8.5,5 Z"/>
  </g>
</svg>
