<svg xmlns="http://www.w3.org/2000/svg" width="16" height="16" viewBox="0 0 16 16">
  <g fill="none" fill-rule="evenodd">
    <path fill="#000" d="M1.00015,11.8837455 L1.00015,4.78853541 L7.50015,7.90493986 L7.50015,15.00015 L1.00015,11.8837455 Z M8.49985,7.90465986 L14.99985,4.78825541 L14.99985,11.8834655 L8.49985,14.99987 L8.49985,7.90465986 Z M8.00035,0.99985 L14.40435,4.05092103 L8.00035,7.12065874 L1.59635,4.05092103 L8.00035,0.99985 Z"/>
    <path fill="#000" d="M1.00015,11.8837455 L1.00015,4.78853541 L7.50015,7.90493986 L7.50015,15.00015 L1.00015,11.8837455 Z M8.49985,7.90465986 L14.99985,4.78825541 L14.99985,11.8834655 L8.49985,14.99987 L8.49985,7.90465986 Z M8.00035,0.99985 L14.40435,4.05092103 L8.00035,7.12065874 L1.59635,4.05092103 L8.00035,0.99985 Z"/>
  </g>
</svg>
